<svg xmlns="http://www.w3.org/2000/svg" viewBox="0 0 506.57 203.94"><defs><style>.cls-1{fill:#fefbda;}</style></defs><g id="Layer_2" data-name="Layer 2"><g id="Layer_1-2" data-name="Layer 1"><path class="cls-1" d="M106.87,79.87c-22,.32-46-.05-71.32-1.48l4.9,6.36c23.49.86,45.77.8,66.42.14Z"/><path class="cls-1" d="M52,99.64c19.33-.47,37.71-1.6,54.92-3.16V91.09c-18.66,1.28-38.71,2.06-59.94,2Z"/><path class="cls-1" d="M30.41,21.29H0V65.88c24.17,3.24,47.52,5.41,69.93,6.72Z"/><path class="cls-1" d="M33.08,78.25Q16.9,77.29,0,75.71v6.67q16.86,1.37,33.08,2.07Z"/><path class="cls-1" d="M33.08,93Q16.94,92.75,0,91.8v7.47q16.91.66,33.08.62Z"/><path class="cls-1" d="M33.08,124c-17.57,1.15-28.44,1.26-28.44,1.26l-4.64,0v6.05H33.08Z"/><path class="cls-1" d="M106.87,102.88c-15.37,2-31.69,3.61-48.8,4.7l3.94,5.1c15.67-1.3,30.67-3.05,44.86-5.1Z"/><path class="cls-1" d="M33.08,108.74Q16.92,109.22,0,109v6.16c11.27.06,22.3-.17,33.08-.63Z"/><polygon class="cls-1" points="106.87 131.3 106.87 115.63 68.33 120.87 76.38 131.3 106.87 131.3"/><path class="cls-1" d="M106.87,21.29h-33V72.82q16.88.93,33,1.23Z"/><path class="cls-1" d="M158.74,85.92c-11,1.44-22.82,2.76-35.37,3.87v5c12.53-1.39,24.35-3,35.37-4.7Z"/><path class="cls-1" d="M123.37,131.3h35.37V104.86c-11.83,3-23.73,5.65-35.37,7.85Z"/><path class="cls-1" d="M158.74,94.4c-11,2.18-22.82,4.28-35.37,6.18V105c12.54-2.1,24.37-4.42,35.37-6.82Z"/><path class="cls-1" d="M158.74,77.82c-11,.71-22.83,1.3-35.37,1.68v4.71c12.53-.62,24.35-1.45,35.37-2.4Z"/><path class="cls-1" d="M158.74,45.33H123.37v28.9q18.23,0,35.37-.58Z"/><path class="cls-1" d="M127.78,33.7a16.63,16.63,0,0,0,5.65,3.69,20.17,20.17,0,0,0,14.46,0A16.39,16.39,0,0,0,157.24,28a19.11,19.11,0,0,0,1.34-7.23,19.14,19.14,0,0,0-1.34-7.23,16.46,16.46,0,0,0-9.35-9.35,20.32,20.32,0,0,0-14.46,0,16.54,16.54,0,0,0-9.35,9.35,19.14,19.14,0,0,0-1.33,7.23A19.1,19.1,0,0,0,124.08,28,16.7,16.7,0,0,0,127.78,33.7Z"/><path class="cls-1" d="M272.05,45.33H232.13l-20,22.32v-53H176.81V72.84c28.07-1.52,53.57-4.15,76.1-7.21Z"/><path class="cls-1" d="M176.81,76.48v3.58C222.33,75.21,250,68.66,250,68S222.39,72.72,176.81,76.48Z"/><path class="cls-1" d="M250.15,68.55c-9.35,2.28-35.23,9-73.34,14.8V87.1c36.58-6.57,62-13.89,72.19-17.33Z"/><path class="cls-1" d="M248,70.88a737.61,737.61,0,0,1-71.15,19.7V94c36.25-8.92,61.11-18.12,70.05-21.95Z"/><path class="cls-1" d="M271.58,131.3l-30.8-52.81L246,73l-1.23.57S218.07,86,190,95.57q-6.53,2.24-13.18,4.23v31.5h35.36V108.75l4.25-4.56,13.2,27.11Z"/><rect class="cls-1" x="279.12" y="45.33" width="35.37" height="85.97"/><path class="cls-1" d="M283.52,33.7a16.77,16.77,0,0,0,5.66,3.69,20.17,20.17,0,0,0,14.46,0A16.39,16.39,0,0,0,313,28a19.11,19.11,0,0,0,1.34-7.23A19.14,19.14,0,0,0,313,13.58a16.46,16.46,0,0,0-9.35-9.35,20.32,20.32,0,0,0-14.46,0,16.46,16.46,0,0,0-9.35,9.35,19.14,19.14,0,0,0-1.33,7.23A19.1,19.1,0,0,0,279.83,28,16.82,16.82,0,0,0,283.52,33.7Z"/><path class="cls-1" d="M393.07,127.53l-6-24.2c-1.37.52-2.86,1-4.48,1.49a16.74,16.74,0,0,1-4.64.71,6.18,6.18,0,0,1-4.83-2,7.56,7.56,0,0,1-1.77-5.26V67.65H391.5V45.33H371.38V26H336.17V45.33H324.39V67.65h11.78v36a31.23,31.23,0,0,0,2.28,12.14,25.68,25.68,0,0,0,6.52,9.28,29.25,29.25,0,0,0,10.22,5.85,39.62,39.62,0,0,0,13.36,2,67,67,0,0,0,6.92-.35,59.39,59.39,0,0,0,6.64-1.06,53,53,0,0,0,6-1.69A27.13,27.13,0,0,0,393.07,127.53Z"/><path class="cls-1" d="M475,52.09a35.17,35.17,0,0,0-12.42-6.21,60.4,60.4,0,0,0-16.7-2.12,106.07,106.07,0,0,0-20.51,2.16,147.88,147.88,0,0,0-21.92,6.17l7.86,23.58a92.64,92.64,0,0,1,14.3-4.13,61.77,61.77,0,0,1,11.79-1.38q6.53,0,9.86,2.48a8.56,8.56,0,0,1,3.5,7H431.1q-16.5,0-24.91,6.72t-8.41,19.53A30.53,30.53,0,0,0,399.71,117a23.06,23.06,0,0,0,5.62,8.53,25.26,25.26,0,0,0,9,5.46,35.91,35.91,0,0,0,12.18,1.92A33.32,33.32,0,0,0,440.88,130a25.63,25.63,0,0,0,9.87-8v9.27h34.73V75.67a32.25,32.25,0,0,0-2.71-13.56A27.19,27.19,0,0,0,475,52.09ZM450.75,103.8a14.47,14.47,0,0,1-5.31,4.91,13.92,13.92,0,0,1-6.64,1.69,7.93,7.93,0,0,1-5.81-2,7.37,7.37,0,0,1-2.05-5.54,6.59,6.59,0,0,1,1.93-5.18,8.15,8.15,0,0,1,5.62-1.73h12.26Z"/><path class="cls-1" d="M26.62,154.75A15.8,15.8,0,0,1,38,150a17.45,17.45,0,0,1,3.59.38,20.46,20.46,0,0,1,3.53,1.07,19.85,19.85,0,0,1,6.24,4l5.46-6.57a26.08,26.08,0,0,0-4-2.89,28.54,28.54,0,0,0-4.61-2.16,31.91,31.91,0,0,0-5-1.38,28.23,28.23,0,0,0-15.42,1.38,25.51,25.51,0,0,0-8.2,5.16,24.06,24.06,0,0,0-5.46,7.74,23.6,23.6,0,0,0-2,9.63,24.17,24.17,0,0,0,7.27,17.49,24.83,24.83,0,0,0,8,5.2,26.06,26.06,0,0,0,10,1.89,28.73,28.73,0,0,0,5.08-.46,35,35,0,0,0,5.06-1.28,34.28,34.28,0,0,0,4.76-2,28,28,0,0,0,4.12-2.56V162.83H34.18v7.63H47.74v9.66a22.18,22.18,0,0,1-3.05,1.42,19.42,19.42,0,0,1-3.36,1,16.18,16.18,0,0,1-9.56-.92,15.53,15.53,0,0,1-5.11-3.49,16.41,16.41,0,0,1-3.41-5.25,17.42,17.42,0,0,1,0-12.91A16.18,16.18,0,0,1,26.62,154.75Z"/><path class="cls-1" d="M80.11,182.41a5.14,5.14,0,0,1-1.69.29,3.09,3.09,0,0,1-2.4-1,4.54,4.54,0,0,1-.9-3.13V139.71H65.84v39.65a13.9,13.9,0,0,0,.82,5,10.23,10.23,0,0,0,2.22,3.55A9.17,9.17,0,0,0,72.15,190a11,11,0,0,0,4,.71,13.18,13.18,0,0,0,3.41-.46A15.75,15.75,0,0,0,83,188.87l-1-7.29A12.28,12.28,0,0,1,80.11,182.41Z"/><path class="cls-1" d="M118.5,158.65a17.57,17.57,0,0,0-6.11-3.76,24.07,24.07,0,0,0-15.78,0,17.8,17.8,0,0,0-6.12,3.76,16.86,16.86,0,0,0-3.95,5.85,21.11,21.11,0,0,0,0,15.12,16.71,16.71,0,0,0,3.95,5.86,18.2,18.2,0,0,0,6.12,3.8,23.4,23.4,0,0,0,15.78,0,18,18,0,0,0,6.11-3.8,16.8,16.8,0,0,0,3.93-5.86,21.11,21.11,0,0,0,0-15.12A16.94,16.94,0,0,0,118.5,158.65Zm-4.78,18a10.12,10.12,0,0,1-2,3.53,9.38,9.38,0,0,1-3.14,2.27,9.82,9.82,0,0,1-4,.82,9.93,9.93,0,0,1-4-.82,9.36,9.36,0,0,1-3.16-2.27,10.27,10.27,0,0,1-2-3.53,13.45,13.45,0,0,1-.74-4.53,13.19,13.19,0,0,1,.74-4.5,10.67,10.67,0,0,1,2-3.51,9.27,9.27,0,0,1,3.16-2.29,9.93,9.93,0,0,1,4-.81,9.82,9.82,0,0,1,4,.81,9.29,9.29,0,0,1,3.14,2.29,10.5,10.5,0,0,1,2,3.51,13.19,13.19,0,0,1,.74,4.5A13.45,13.45,0,0,1,113.72,176.7Z"/><path class="cls-1" d="M165.56,158.72a15.66,15.66,0,0,0-5.47-3.82,17.88,17.88,0,0,0-7-1.34,15.41,15.41,0,0,0-6.39,1.27,13.33,13.33,0,0,0-4.83,3.67,13.09,13.09,0,0,0-.82,1.1V139.71h-9.34v50.6H141v-5.77c.27.41.56.79.86,1.16a13,13,0,0,0,4.85,3.67,16,16,0,0,0,6.53,1.28,17.63,17.63,0,0,0,7-1.35,15.88,15.88,0,0,0,5.4-3.75,16.46,16.46,0,0,0,3.46-5.81,23.94,23.94,0,0,0,0-15.12A17.28,17.28,0,0,0,165.56,158.72Zm-5.37,17.76a10.43,10.43,0,0,1-2.06,3.53,9.64,9.64,0,0,1-3.16,2.3,9.43,9.43,0,0,1-4,.84,9.82,9.82,0,0,1-4-.82,9.29,9.29,0,0,1-3.14-2.29,10.35,10.35,0,0,1-2-3.52A13.55,13.55,0,0,1,141,172a12.93,12.93,0,0,1,.74-4.44,10.64,10.64,0,0,1,2-3.52,9.32,9.32,0,0,1,3.14-2.3,10.38,10.38,0,0,1,8,0,9.5,9.5,0,0,1,3.16,2.3,10.68,10.68,0,0,1,2.06,3.52,12.93,12.93,0,0,1,.73,4.44A13.35,13.35,0,0,1,160.19,176.48Z"/><path class="cls-1" d="M207,161a10.56,10.56,0,0,0-3-4.05,13.49,13.49,0,0,0-4.75-2.54,21.44,21.44,0,0,0-6.43-.89,33.79,33.79,0,0,0-4.57.29,25.82,25.82,0,0,0-4,.87,31.58,31.58,0,0,0-3.77,1.4,41.76,41.76,0,0,0-3.82,1.94l3.24,6.07a26.27,26.27,0,0,1,2.8-1.5,23.91,23.91,0,0,1,2.76-1.09,18.23,18.23,0,0,1,2.69-.67,16.5,16.5,0,0,1,2.56-.22q4,0,6.07,1.81a6.38,6.38,0,0,1,2,5v1h-10.5a20.36,20.36,0,0,0-5.91.77,12.19,12.19,0,0,0-4.33,2.2,9.43,9.43,0,0,0-2.68,3.44,10.82,10.82,0,0,0-.92,4.53,11.52,11.52,0,0,0,.87,4.52,10.19,10.19,0,0,0,2.51,3.58,11.77,11.77,0,0,0,4,2.39,15.55,15.55,0,0,0,5.3.86,20.35,20.35,0,0,0,4.48-.46,13.71,13.71,0,0,0,3.75-1.38,11.25,11.25,0,0,0,2.95-2.28c.18-.2.35-.4.51-.61v4.33H208l0-23.87A14.41,14.41,0,0,0,207,161Zm-9,18.92a7.71,7.71,0,0,1-2,2.14,9.88,9.88,0,0,1-2.88,1.39,12,12,0,0,1-3.53.51,9,9,0,0,1-2.66-.35,5.82,5.82,0,0,1-2-1,4.3,4.3,0,0,1-1.24-1.6,4.88,4.88,0,0,1-.43-2.09,3.89,3.89,0,0,1,1.62-3.5,9.24,9.24,0,0,1,5-1.07h8.94v3.09A5.71,5.71,0,0,1,198,179.92Z"/><path class="cls-1" d="M231.4,182.41a5.12,5.12,0,0,1-1.68.29,3.11,3.11,0,0,1-2.41-1,4.54,4.54,0,0,1-.9-3.13V139.71h-9.27v39.65a13.9,13.9,0,0,0,.81,5,10.23,10.23,0,0,0,2.22,3.55,9.17,9.17,0,0,0,3.27,2.13,11,11,0,0,0,4,.71,13.13,13.13,0,0,0,3.41-.46,15.75,15.75,0,0,0,3.48-1.38l-1-7.29A12.8,12.8,0,0,1,231.4,182.41Z"/><path class="cls-1" d="M292.48,171.71a14.5,14.5,0,0,0,3.8-5.42,19.36,19.36,0,0,0,1.31-7.31,17.49,17.49,0,0,0-1.31-6.94,13.85,13.85,0,0,0-3.8-5.15,17.15,17.15,0,0,0-6.11-3.2,28.11,28.11,0,0,0-8.25-1.11H258v47.73h9.61V176.23h10.5c.51,0,1,0,1.5,0l8.12,14.12h10.87l-10.48-15.9A16.14,16.14,0,0,0,292.48,171.71Zm-24.86-21.22h10.5a16.41,16.41,0,0,1,4.4.54,9.06,9.06,0,0,1,3.26,1.62,7.1,7.1,0,0,1,2,2.73,10,10,0,0,1,.7,3.87,10.64,10.64,0,0,1-.68,3.95,7.1,7.1,0,0,1-2,2.83,8.92,8.92,0,0,1-3.27,1.71,15.58,15.58,0,0,1-4.4.58h-10.5Z"/><path class="cls-1" d="M336.52,159.39a14.17,14.17,0,0,0-5.66-4.32,22.4,22.4,0,0,0-15.83-.13,17.23,17.23,0,0,0-5.9,3.78,17,17,0,0,0-3.84,5.86,21.77,21.77,0,0,0,0,15.12,16.42,16.42,0,0,0,3.8,5.83A17,17,0,0,0,315,189.3a21.44,21.44,0,0,0,7.79,1.35,22.47,22.47,0,0,0,8.79-1.64,18.57,18.57,0,0,0,6.62-4.64l-5-4.91a13.13,13.13,0,0,1-4.41,3.06,13.54,13.54,0,0,1-5.27,1,10.83,10.83,0,0,1-4.31-.84,9.85,9.85,0,0,1-3.38-2.37,10.5,10.5,0,0,1-2.18-3.75,13.08,13.08,0,0,1-.4-1.43h26.8a30.53,30.53,0,0,0-.52-9A17,17,0,0,0,336.52,159.39Zm-23.39,9.88a12.84,12.84,0,0,1,.52-2.2,10.34,10.34,0,0,1,2-3.56,8.53,8.53,0,0,1,3.06-2.3,9.8,9.8,0,0,1,4-.8,10.08,10.08,0,0,1,3.58.61,7.84,7.84,0,0,1,4.62,4.54,10.69,10.69,0,0,1,.73,3.71Z"/><path class="cls-1" d="M376.15,161A10.56,10.56,0,0,0,373.2,157a13.49,13.49,0,0,0-4.75-2.54,21.44,21.44,0,0,0-6.43-.89,33.79,33.79,0,0,0-4.57.29,25.82,25.82,0,0,0-4,.87,31.58,31.58,0,0,0-3.77,1.4,41.76,41.76,0,0,0-3.82,1.94l3.24,6.07a26.27,26.27,0,0,1,2.8-1.5,23.91,23.91,0,0,1,2.76-1.09,18.23,18.23,0,0,1,2.69-.67,16.5,16.5,0,0,1,2.56-.22q4,0,6.06,1.81a6.36,6.36,0,0,1,2,5v1h-10.5a20.36,20.36,0,0,0-5.91.77,12.19,12.19,0,0,0-4.33,2.2,9.43,9.43,0,0,0-2.68,3.44,10.82,10.82,0,0,0-.92,4.53,11.52,11.52,0,0,0,.87,4.52,10.3,10.3,0,0,0,2.5,3.58,11.91,11.91,0,0,0,4,2.39,15.55,15.55,0,0,0,5.3.86,20.35,20.35,0,0,0,4.48-.46,13.71,13.71,0,0,0,3.75-1.38,11.25,11.25,0,0,0,3-2.28,5.68,5.68,0,0,0,.5-.6v4.32h9.17l0-23.87A14.41,14.41,0,0,0,376.15,161Zm-9,18.92a8,8,0,0,1-2,2.14,9.88,9.88,0,0,1-2.88,1.39,12,12,0,0,1-3.53.51,9,9,0,0,1-2.66-.35,5.82,5.82,0,0,1-2-1,4.3,4.3,0,0,1-1.24-1.6,4.88,4.88,0,0,1-.43-2.09,3.89,3.89,0,0,1,1.62-3.5,9.24,9.24,0,0,1,5-1.07H368v3.09A5.58,5.58,0,0,1,367.17,179.92Z"/><path class="cls-1" d="M400.59,182.41a5.12,5.12,0,0,1-1.68.29,3.11,3.11,0,0,1-2.41-1,4.54,4.54,0,0,1-.9-3.13V139.71h-9.27v39.65a13.9,13.9,0,0,0,.81,5,10.23,10.23,0,0,0,2.22,3.55,9.17,9.17,0,0,0,3.27,2.13,11,11,0,0,0,4,.71,13.18,13.18,0,0,0,3.41-.46,15.75,15.75,0,0,0,3.48-1.38l-1-7.29A12.8,12.8,0,0,1,400.59,182.41Z"/><path class="cls-1" d="M427.06,182.57a8.23,8.23,0,0,1-2.35.37,4.75,4.75,0,0,1-1.57-.24,2.87,2.87,0,0,1-1.17-.78,3.4,3.4,0,0,1-.74-1.43,8.69,8.69,0,0,1-.23-2.22v-18h10.29V153.9H421v-8.56h-9.28v8.56h-5.11v6.41h5.11v19.53a12.87,12.87,0,0,0,.85,4.86,9,9,0,0,0,5.82,5.38,14.11,14.11,0,0,0,4.28.63,16.32,16.32,0,0,0,2.42-.17,16.72,16.72,0,0,0,2.37-.51,17.56,17.56,0,0,0,2.3-.83,18.85,18.85,0,0,0,2.18-1.14l-2.11-6.62A17.41,17.41,0,0,1,427.06,182.57Z"/><path class="cls-1" d="M451.85,180.49,441.72,153.9h-9.64l15.1,35.79-1.09,2.46a6.63,6.63,0,0,1-2.15,2.81,5.21,5.21,0,0,1-3,.9,6.36,6.36,0,0,1-2.37-.44,10.44,10.44,0,0,1-2.37-1.4l-4,6.65a15.42,15.42,0,0,0,4.35,2.47,14.59,14.59,0,0,0,4.92.8,13.09,13.09,0,0,0,7.69-2.25,14.5,14.5,0,0,0,5-6.78l16.26-41h-9.31Z"/><path class="cls-1" d="M505.77,10.75a15.32,15.32,0,0,0-2.25-4.32A15.76,15.76,0,0,0,495.76.79,15.91,15.91,0,0,0,481.42,3,16.07,16.07,0,0,0,478,6.43a15.34,15.34,0,0,0-3.05,9.27,15.39,15.39,0,0,0,.79,5A15.56,15.56,0,0,0,478,25a16.5,16.5,0,0,0,3.43,3.4,15.84,15.84,0,0,0,4.35,2.23,16.19,16.19,0,0,0,10,0,15.92,15.92,0,0,0,4.34-2.23,16.21,16.21,0,0,0,3.42-3.4,15.53,15.53,0,0,0,2.25-4.31,15.12,15.12,0,0,0,.8-5A15.11,15.11,0,0,0,505.77,10.75Zm-2.32,9.13a13.34,13.34,0,0,1-1.9,3.65A13.52,13.52,0,0,1,495,28.29a13.59,13.59,0,0,1-8.43,0,13.64,13.64,0,0,1-3.68-1.89A13.33,13.33,0,0,1,480,23.53a13.24,13.24,0,0,1-2.57-7.83,12.91,12.91,0,0,1,.68-4.19A12.73,12.73,0,0,1,480,7.87,13.38,13.38,0,0,1,482.87,5,13.48,13.48,0,0,1,495,3.1,12.9,12.9,0,0,1,498.64,5a13.38,13.38,0,0,1,2.89,2.88,13.18,13.18,0,0,1,1.91,3.64,13,13,0,0,1,.68,4.19A13.17,13.17,0,0,1,503.45,19.88Z"/><path class="cls-1" d="M496.67,15.82a5.48,5.48,0,0,0,.75-2.93,5.6,5.6,0,0,0-.74-3A5,5,0,0,0,494.56,8a7.37,7.37,0,0,0-3.27-.68h-6.9V24.05h4V18.3h2.17l3.09,5.75H498l-3.5-6.38A4.84,4.84,0,0,0,496.67,15.82Zm-8.29-5.28h2.06a4,4,0,0,1,1.57.27,1.9,1.9,0,0,1,.95.78,2.34,2.34,0,0,1,.33,1.3,2.32,2.32,0,0,1-.33,1.28,2,2,0,0,1-.95.75,4.36,4.36,0,0,1-1.56.25h-2.07Z"/><path class="cls-1" d="M35.55,78.39l-2.47-.14"/></g></g></svg>