<svg xmlns="http://www.w3.org/2000/svg" viewBox="0 0 506.57 203.94"><g fill="#fefbda"><path d="M106.87 79.87c-22 .32-46-.05-71.32-1.48l4.9 6.36c23.49.86 45.77.8 66.42.14ZM52 99.64c19.33-.47 37.71-1.6 54.92-3.16v-5.39c-18.66 1.28-38.71 2.06-59.94 2ZM30.41 21.29H0v44.59c24.17 3.24 47.52 5.41 69.93 6.72Zm2.67 56.96Q16.9 77.29 0 75.71v6.67q16.86 1.37 33.08 2.07Zm0 14.75Q16.94 92.75 0 91.8v7.47q16.91.66 33.08.62Zm0 31c-17.57 1.15-28.44 1.26-28.44 1.26H0v6.05h33.08Zm73.79-21.12c-15.37 2-31.69 3.61-48.8 4.7l3.94 5.1c15.67-1.3 30.67-3.05 44.86-5.1Zm-73.79 5.86q-16.16.48-33.08.26v6.16c11.27.06 22.3-.17 33.08-.63Zm73.79 22.56v-15.67l-38.54 5.24 8.05 10.43zm0-110.01h-33v51.53q16.88.93 33 1.23Zm51.87 64.63c-11 1.44-22.82 2.76-35.37 3.87v5c12.53-1.39 24.35-3 35.37-4.7Zm-35.37 45.38h35.37v-26.44c-11.83 3-23.73 5.65-35.37 7.85Zm35.37-36.9c-11 2.18-22.82 4.28-35.37 6.18V105c12.54-2.1 24.37-4.42 35.37-6.82Zm0-16.58c-11 .71-22.83 1.3-35.37 1.68v4.71c12.53-.62 24.35-1.45 35.37-2.4Zm0-32.49h-35.37v28.9q18.23 0 35.37-.58ZM127.78 33.7a16.6 16.6 0 0 0 5.65 3.69 20.17 20.17 0 0 0 14.46 0 16.4 16.4 0 0 0 9.35-9.39 19.1 19.1 0 0 0 1.34-7.23 19.1 19.1 0 0 0-1.34-7.23 16.46 16.46 0 0 0-9.35-9.35 20.32 20.32 0 0 0-14.46 0 16.54 16.54 0 0 0-9.35 9.35 19.1 19.1 0 0 0-1.33 7.23 19.1 19.1 0 0 0 1.33 7.23 16.7 16.7 0 0 0 3.7 5.7m144.27 11.63h-39.92l-20 22.32v-53h-35.32v58.19c28.07-1.52 53.57-4.15 76.1-7.21Zm-95.24 31.15v3.58C222.33 75.21 250 68.66 250 68s-27.61 4.72-73.19 8.48"/><path d="M250.15 68.55c-9.35 2.28-35.23 9-73.34 14.8v3.75c36.58-6.57 62-13.89 72.19-17.33ZM248 70.88a738 738 0 0 1-71.15 19.7V94c36.25-8.92 61.11-18.12 70.05-21.95Zm23.58 60.42-30.8-52.81L246 73l-1.23.57S218.07 86 190 95.57q-6.53 2.24-13.18 4.23v31.5h35.36v-22.55l4.25-4.56 13.2 27.11Zm7.54-85.97h35.37v85.97h-35.37zm4.4-11.63a16.8 16.8 0 0 0 5.66 3.69 20.17 20.17 0 0 0 14.46 0A16.4 16.4 0 0 0 313 28a19.1 19.1 0 0 0 1.34-7.23 19.1 19.1 0 0 0-1.34-7.19 16.46 16.46 0 0 0-9.35-9.35 20.32 20.32 0 0 0-14.46 0 16.46 16.46 0 0 0-9.35 9.35 19.1 19.1 0 0 0-1.33 7.23 19.1 19.1 0 0 0 1.32 7.19 16.8 16.8 0 0 0 3.69 5.7m109.55 93.83-6-24.2c-1.37.52-2.86 1-4.48 1.49a16.7 16.7 0 0 1-4.64.71 6.18 6.18 0 0 1-4.83-2 7.56 7.56 0 0 1-1.77-5.26V67.65h20.15V45.33h-20.12V26h-35.21v19.33h-11.78v22.32h11.78v36a31.2 31.2 0 0 0 2.28 12.14 25.7 25.7 0 0 0 6.52 9.28 29.25 29.25 0 0 0 10.22 5.85 39.6 39.6 0 0 0 13.36 2 67 67 0 0 0 6.92-.35 59 59 0 0 0 6.64-1.06 53 53 0 0 0 6-1.69 27 27 0 0 0 4.96-2.29M475 52.09a35.2 35.2 0 0 0-12.42-6.21 60.4 60.4 0 0 0-16.7-2.12 106 106 0 0 0-20.51 2.16 148 148 0 0 0-21.92 6.17l7.86 23.58a92.6 92.6 0 0 1 14.3-4.13 62 62 0 0 1 11.79-1.38q6.53 0 9.86 2.48a8.56 8.56 0 0 1 3.5 7H431.1q-16.5 0-24.91 6.72t-8.41 19.53a30.5 30.5 0 0 0 1.93 11.11 23.06 23.06 0 0 0 5.62 8.53 25.3 25.3 0 0 0 9 5.46 35.9 35.9 0 0 0 12.18 1.92 33.3 33.3 0 0 0 14.37-2.91 25.6 25.6 0 0 0 9.87-8v9.27h34.73v-55.6a32.25 32.25 0 0 0-2.71-13.56A27.2 27.2 0 0 0 475 52.09m-24.25 51.71a14.5 14.5 0 0 1-5.31 4.91 13.9 13.9 0 0 1-6.64 1.69 7.93 7.93 0 0 1-5.81-2 7.37 7.37 0 0 1-2.05-5.54 6.59 6.59 0 0 1 1.93-5.18 8.15 8.15 0 0 1 5.62-1.73h12.26ZM26.62 154.75A15.8 15.8 0 0 1 38 150a17.5 17.5 0 0 1 3.59.38 20.5 20.5 0 0 1 3.53 1.07 19.9 19.9 0 0 1 6.24 4l5.46-6.57a26 26 0 0 0-4-2.89 28.5 28.5 0 0 0-4.61-2.16 32 32 0 0 0-5-1.38 28.23 28.23 0 0 0-15.42 1.38 25.5 25.5 0 0 0-8.2 5.16 24.1 24.1 0 0 0-5.46 7.74 23.6 23.6 0 0 0-2 9.63 24.17 24.17 0 0 0 7.27 17.49 24.8 24.8 0 0 0 8 5.2 26.1 26.1 0 0 0 10 1.89 28.7 28.7 0 0 0 5.08-.46 35 35 0 0 0 5.06-1.28 34 34 0 0 0 4.76-2 28 28 0 0 0 4.12-2.56v-21.81H34.18v7.63h13.56v9.66a22 22 0 0 1-3.05 1.42 19.4 19.4 0 0 1-3.36 1 16.2 16.2 0 0 1-9.56-.92 15.5 15.5 0 0 1-5.11-3.49 16.4 16.4 0 0 1-3.41-5.25 17.42 17.42 0 0 1 0-12.91 16.2 16.2 0 0 1 3.37-5.22m53.49 27.66a5.1 5.1 0 0 1-1.69.29 3.09 3.09 0 0 1-2.4-1 4.54 4.54 0 0 1-.9-3.13v-38.86h-9.28v39.65a13.9 13.9 0 0 0 .82 5 10.2 10.2 0 0 0 2.22 3.55 9.2 9.2 0 0 0 3.27 2.09 11 11 0 0 0 4 .71 13.2 13.2 0 0 0 3.41-.46 15.8 15.8 0 0 0 3.44-1.38l-1-7.29a12.3 12.3 0 0 1-1.89.83m38.39-23.76a17.6 17.6 0 0 0-6.11-3.76 24.07 24.07 0 0 0-15.78 0 17.8 17.8 0 0 0-6.12 3.76 16.9 16.9 0 0 0-3.95 5.85 21.1 21.1 0 0 0 0 15.12 16.7 16.7 0 0 0 3.95 5.86 18.2 18.2 0 0 0 6.12 3.8 23.4 23.4 0 0 0 15.78 0 18 18 0 0 0 6.11-3.8 16.8 16.8 0 0 0 3.93-5.86 21.1 21.1 0 0 0 0-15.12 16.9 16.9 0 0 0-3.93-5.85m-4.78 18a10.1 10.1 0 0 1-2 3.53 9.4 9.4 0 0 1-3.14 2.27 9.8 9.8 0 0 1-4 .82 9.9 9.9 0 0 1-4-.82 9.4 9.4 0 0 1-3.16-2.27 10.3 10.3 0 0 1-2-3.53 13.5 13.5 0 0 1-.74-4.53 13.2 13.2 0 0 1 .74-4.5 10.7 10.7 0 0 1 2-3.51 9.3 9.3 0 0 1 3.16-2.29 9.9 9.9 0 0 1 4-.81 9.8 9.8 0 0 1 4 .81 9.3 9.3 0 0 1 3.14 2.29 10.5 10.5 0 0 1 2 3.51 13.2 13.2 0 0 1 .74 4.5 13.5 13.5 0 0 1-.74 4.58Zm51.84-17.93a15.7 15.7 0 0 0-5.47-3.82 17.9 17.9 0 0 0-7-1.34 15.4 15.4 0 0 0-6.39 1.27 13.3 13.3 0 0 0-4.83 3.67 13 13 0 0 0-.82 1.1v-19.89h-9.34v50.6H141v-5.77c.27.41.56.79.86 1.16a13 13 0 0 0 4.85 3.67 16 16 0 0 0 6.53 1.28 17.6 17.6 0 0 0 7-1.35 15.9 15.9 0 0 0 5.4-3.75 16.5 16.5 0 0 0 3.46-5.81 23.94 23.94 0 0 0 0-15.12 17.3 17.3 0 0 0-3.54-5.9m-5.37 17.76a10.4 10.4 0 0 1-2.06 3.53 9.6 9.6 0 0 1-3.16 2.3 9.4 9.4 0 0 1-4 .84 9.8 9.8 0 0 1-4-.82 9.3 9.3 0 0 1-3.14-2.29 10.4 10.4 0 0 1-2-3.52A13.6 13.6 0 0 1 141 172a12.9 12.9 0 0 1 .74-4.44 10.6 10.6 0 0 1 2-3.52 9.3 9.3 0 0 1 3.14-2.3 10.38 10.38 0 0 1 8 0 9.5 9.5 0 0 1 3.16 2.3 10.7 10.7 0 0 1 2.06 3.52 12.9 12.9 0 0 1 .73 4.44 13.4 13.4 0 0 1-.64 4.48M207 161a10.56 10.56 0 0 0-3-4.05 13.5 13.5 0 0 0-4.75-2.54 21.4 21.4 0 0 0-6.43-.89 34 34 0 0 0-4.57.29 26 26 0 0 0-4 .87 32 32 0 0 0-3.77 1.4 42 42 0 0 0-3.82 1.94l3.24 6.07a26 26 0 0 1 2.8-1.5 24 24 0 0 1 2.76-1.09 18 18 0 0 1 2.69-.67 16.5 16.5 0 0 1 2.56-.22q4 0 6.07 1.81a6.38 6.38 0 0 1 2 5v1h-10.5a20.4 20.4 0 0 0-5.91.77 12.2 12.2 0 0 0-4.33 2.2 9.4 9.4 0 0 0-2.68 3.44 10.8 10.8 0 0 0-.92 4.53 11.5 11.5 0 0 0 .87 4.52 10.2 10.2 0 0 0 2.51 3.58 11.8 11.8 0 0 0 4 2.39 15.6 15.6 0 0 0 5.3.86 20.4 20.4 0 0 0 4.48-.46 13.7 13.7 0 0 0 3.75-1.38 11.3 11.3 0 0 0 2.95-2.28c.18-.2.35-.4.51-.61v4.33H208v-23.87a14.4 14.4 0 0 0-1-5.44m-9 18.92a7.7 7.7 0 0 1-2 2.14 9.9 9.9 0 0 1-2.88 1.39 12 12 0 0 1-3.53.51 9 9 0 0 1-2.66-.35 5.8 5.8 0 0 1-2-1 4.3 4.3 0 0 1-1.24-1.6 4.9 4.9 0 0 1-.43-2.09 3.89 3.89 0 0 1 1.62-3.5 9.24 9.24 0 0 1 5-1.07h8.94v3.09a5.7 5.7 0 0 1-.82 2.48m33.4 2.49a5.1 5.1 0 0 1-1.68.29 3.11 3.11 0 0 1-2.41-1 4.54 4.54 0 0 1-.9-3.13v-38.86h-9.27v39.65a13.9 13.9 0 0 0 .81 5 10.2 10.2 0 0 0 2.22 3.55 9.2 9.2 0 0 0 3.27 2.13 11 11 0 0 0 4 .71 13 13 0 0 0 3.41-.46 15.8 15.8 0 0 0 3.48-1.38l-1-7.29a13 13 0 0 1-1.93.79m61.08-10.7a14.5 14.5 0 0 0 3.8-5.42 19.4 19.4 0 0 0 1.31-7.31 17.5 17.5 0 0 0-1.31-6.94 13.85 13.85 0 0 0-3.8-5.15 17.15 17.15 0 0 0-6.11-3.2 28.1 28.1 0 0 0-8.25-1.11H258v47.73h9.61v-14.08h12l8.12 14.12h10.87l-10.48-15.9a16.1 16.1 0 0 0 4.36-2.74m-24.86-21.22h10.5a16.4 16.4 0 0 1 4.4.54 9.1 9.1 0 0 1 3.26 1.62 7.1 7.1 0 0 1 2 2.73 10 10 0 0 1 .7 3.87 10.6 10.6 0 0 1-.68 3.95 7.1 7.1 0 0 1-2 2.83 8.9 8.9 0 0 1-3.27 1.71 15.6 15.6 0 0 1-4.4.58h-10.5Zm68.9 8.9a14.2 14.2 0 0 0-5.66-4.32 22.4 22.4 0 0 0-15.83-.13 17.2 17.2 0 0 0-5.9 3.78 17 17 0 0 0-3.84 5.86 21.77 21.77 0 0 0 0 15.12 16.4 16.4 0 0 0 3.8 5.83 17 17 0 0 0 5.91 3.77 21.4 21.4 0 0 0 7.79 1.35 22.5 22.5 0 0 0 8.79-1.64 18.6 18.6 0 0 0 6.62-4.64l-5-4.91a13.1 13.1 0 0 1-4.41 3.06 13.5 13.5 0 0 1-5.27 1 10.8 10.8 0 0 1-4.31-.84 9.85 9.85 0 0 1-3.38-2.37 10.5 10.5 0 0 1-2.18-3.75 13 13 0 0 1-.4-1.43h26.8a30.5 30.5 0 0 0-.52-9 17 17 0 0 0-3.01-6.74m-23.39 9.88a13 13 0 0 1 .52-2.2 10.3 10.3 0 0 1 2-3.56 8.5 8.5 0 0 1 3.06-2.3 9.8 9.8 0 0 1 4-.8 10.1 10.1 0 0 1 3.58.61 7.84 7.84 0 0 1 4.62 4.54 10.7 10.7 0 0 1 .73 3.71Zm63.02-8.27a10.56 10.56 0 0 0-2.95-4 13.5 13.5 0 0 0-4.75-2.54 21.4 21.4 0 0 0-6.43-.89 34 34 0 0 0-4.57.29 26 26 0 0 0-4 .87 32 32 0 0 0-3.77 1.4 42 42 0 0 0-3.82 1.94l3.24 6.07a26 26 0 0 1 2.8-1.5 24 24 0 0 1 2.76-1.09 18 18 0 0 1 2.69-.67 16.5 16.5 0 0 1 2.56-.22q4 0 6.06 1.81a6.36 6.36 0 0 1 2 5v1h-10.5a20.4 20.4 0 0 0-5.91.77 12.2 12.2 0 0 0-4.33 2.2 9.4 9.4 0 0 0-2.68 3.44 10.8 10.8 0 0 0-.92 4.53 11.5 11.5 0 0 0 .87 4.52 10.3 10.3 0 0 0 2.5 3.58 11.9 11.9 0 0 0 4 2.39 15.6 15.6 0 0 0 5.3.86 20.4 20.4 0 0 0 4.48-.46 13.7 13.7 0 0 0 3.75-1.38 11.3 11.3 0 0 0 3-2.28 6 6 0 0 0 .5-.6v4.32h9.17v-23.87a14.4 14.4 0 0 0-1.05-5.49m-9 18.92a8 8 0 0 1-2 2.14 9.9 9.9 0 0 1-2.88 1.39 12 12 0 0 1-3.53.51 9 9 0 0 1-2.66-.35 5.8 5.8 0 0 1-2-1 4.3 4.3 0 0 1-1.24-1.6 4.9 4.9 0 0 1-.43-2.09 3.89 3.89 0 0 1 1.62-3.5 9.24 9.24 0 0 1 5-1.07H368v3.09a5.6 5.6 0 0 1-.83 2.48Zm33.44 2.49a5.1 5.1 0 0 1-1.68.29 3.11 3.11 0 0 1-2.41-1 4.54 4.54 0 0 1-.9-3.13v-38.86h-9.27v39.65a13.9 13.9 0 0 0 .81 5 10.2 10.2 0 0 0 2.22 3.55 9.2 9.2 0 0 0 3.27 2.13 11 11 0 0 0 4 .71 13.2 13.2 0 0 0 3.41-.46 15.8 15.8 0 0 0 3.48-1.38l-1-7.29a13 13 0 0 1-1.93.79m26.47.16a8.2 8.2 0 0 1-2.35.37 4.8 4.8 0 0 1-1.57-.24 2.9 2.9 0 0 1-1.17-.78 3.4 3.4 0 0 1-.74-1.43 8.7 8.7 0 0 1-.23-2.22v-18h10.29v-6.37H421v-8.56h-9.28v8.56h-5.11v6.41h5.11v19.53a12.9 12.9 0 0 0 .85 4.86 9 9 0 0 0 5.82 5.38 14.1 14.1 0 0 0 4.28.63 16 16 0 0 0 2.42-.17 17 17 0 0 0 2.37-.51 18 18 0 0 0 2.3-.83 19 19 0 0 0 2.18-1.14l-2.11-6.62a17.4 17.4 0 0 1-2.77 1.13m24.79-2.08-10.13-26.59h-9.64l15.1 35.79-1.09 2.46a6.63 6.63 0 0 1-2.15 2.81 5.2 5.2 0 0 1-3 .9 6.4 6.4 0 0 1-2.37-.44 10.4 10.4 0 0 1-2.37-1.4l-4 6.65a15.4 15.4 0 0 0 4.35 2.47 14.6 14.6 0 0 0 4.92.8 13.1 13.1 0 0 0 7.69-2.25 14.5 14.5 0 0 0 5-6.78l16.26-41h-9.31Zm53.92-169.74a15.3 15.3 0 0 0-2.25-4.32 15.76 15.76 0 0 0-7.76-5.64A15.91 15.91 0 0 0 481.42 3 16 16 0 0 0 478 6.43a15.34 15.34 0 0 0-3.05 9.27 15.4 15.4 0 0 0 .79 5A15.6 15.6 0 0 0 478 25a16.5 16.5 0 0 0 3.43 3.4 15.8 15.8 0 0 0 4.35 2.23 16.2 16.2 0 0 0 10 0 16 16 0 0 0 4.34-2.23 16.2 16.2 0 0 0 3.42-3.4 15.5 15.5 0 0 0 2.25-4.31 15.1 15.1 0 0 0 .8-5 15.1 15.1 0 0 0-.82-4.94m-2.32 9.13a13.3 13.3 0 0 1-1.9 3.65 13.5 13.5 0 0 1-6.55 4.76 13.6 13.6 0 0 1-8.43 0 13.6 13.6 0 0 1-3.68-1.89 13.3 13.3 0 0 1-2.89-2.87 13.24 13.24 0 0 1-2.57-7.83 12.9 12.9 0 0 1 .68-4.19A12.7 12.7 0 0 1 480 7.87 13.4 13.4 0 0 1 482.87 5 13.48 13.48 0 0 1 495 3.1a12.9 12.9 0 0 1 3.64 1.9 13.4 13.4 0 0 1 2.89 2.88 13.2 13.2 0 0 1 1.91 3.64 13 13 0 0 1 .68 4.19 13.2 13.2 0 0 1-.67 4.17"/><path d="M496.67 15.82a5.5 5.5 0 0 0 .75-2.93 5.6 5.6 0 0 0-.74-3A5 5 0 0 0 494.56 8a7.4 7.4 0 0 0-3.27-.68h-6.9v16.73h4V18.3h2.17l3.09 5.75H498l-3.5-6.38a4.84 4.84 0 0 0 2.17-1.85m-8.29-5.28h2.06a4 4 0 0 1 1.57.27 1.9 1.9 0 0 1 .95.78 2.34 2.34 0 0 1 .33 1.3 2.3 2.3 0 0 1-.33 1.28 2 2 0 0 1-.95.75 4.4 4.4 0 0 1-1.56.25h-2.07ZM35.55 78.39l-2.47-.14"/></g></svg>