<svg xmlns="http://www.w3.org/2000/svg" viewBox="0 0 485.48 201.04"><defs><style>.cls-1{fill:#fefbda;}</style></defs><g id="Layer_2" data-name="Layer 2"><g id="Layer_1-2" data-name="Layer 1"><path class="cls-1" d="M106.87,18.39h-33V69.92q16.88.93,33,1.23Z" transform="translate(0)"/><path class="cls-1" d="M106.87,77c-22,.32-46,0-71.32-1.48l4.9,6.36c23.49.86,45.77.8,66.42.14Z" transform="translate(0)"/><path class="cls-1" d="M52,96.74c19.33-.47,37.71-1.6,54.92-3.16V88.19c-18.66,1.28-38.71,2.06-59.94,2Z" transform="translate(0)"/><path class="cls-1" d="M30.41,18.39H0V63c24.17,3.24,47.52,5.41,69.93,6.72Z" transform="translate(0)"/><path class="cls-1" d="M33.08,75.35Q16.9,74.39,0,72.81v6.67q16.86,1.36,33.08,2.07Z" transform="translate(0)"/><path class="cls-1" d="M106.87,100c-15.37,2-31.69,3.61-48.8,4.7l3.94,5.1c15.67-1.3,30.67-3,44.86-5.1Z" transform="translate(0)"/><polygon class="cls-1" points="106.87 128.4 106.87 112.73 68.33 117.97 76.38 128.4 106.87 128.4"/><path class="cls-1" d="M33.08,105.84q-16.15.48-33.08.22v6.16c11.27.06,22.3-.17,33.08-.63Z" transform="translate(0)"/><path class="cls-1" d="M33.08,121.07c-17.57,1.15-28.44,1.26-28.44,1.26l-4.64,0v6.05H33.08Z" transform="translate(0)"/><path class="cls-1" d="M33.08,90.12Q16.94,89.85,0,88.9v7.47Q16.91,97,33.08,97Z" transform="translate(0)"/><path class="cls-1" d="M158.74,91.5c-11,2.18-22.82,4.28-35.37,6.18v4.42c12.54-2.1,24.37-4.42,35.37-6.82Z" transform="translate(0)"/><path class="cls-1" d="M158.74,83c-11,1.44-22.82,2.76-35.37,3.87v5c12.53-1.39,24.35-3,35.37-4.7Z" transform="translate(0)"/><path class="cls-1" d="M123.37,128.4h35.37V102c-11.83,3.05-23.73,5.65-35.37,7.85Z" transform="translate(0)"/><path class="cls-1" d="M158.74,42.43H123.37v28.9q18.23,0,35.37-.58Z" transform="translate(0)"/><path class="cls-1" d="M158.74,74.92c-11,.71-22.83,1.3-35.37,1.68v4.71c12.53-.62,24.35-1.45,35.37-2.4Z" transform="translate(0)"/><path class="cls-1" d="M127.78,30.8a16.63,16.63,0,0,0,5.65,3.69,20.17,20.17,0,0,0,14.46,0,16.39,16.39,0,0,0,9.35-9.35,19.11,19.11,0,0,0,1.34-7.23,19.14,19.14,0,0,0-1.34-7.23,16.46,16.46,0,0,0-9.35-9.35,20.32,20.32,0,0,0-14.46,0,16.54,16.54,0,0,0-9.35,9.35,19.14,19.14,0,0,0-1.33,7.23,19.1,19.1,0,0,0,1.33,7.23A16.7,16.7,0,0,0,127.78,30.8Z" transform="translate(0)"/><path class="cls-1" d="M176.81,73.58v3.58C222.33,72.31,250,65.76,250,65.09S222.39,69.82,176.81,73.58Z" transform="translate(0)"/><path class="cls-1" d="M250.15,65.65c-9.35,2.28-35.23,9-73.34,14.8V84.2c36.58-6.57,62-13.89,72.19-17.33Z" transform="translate(0)"/><path class="cls-1" d="M271.58,128.4l-30.8-52.81L246,70.06c-.41.18-.82.38-1.23.57,0,0-26.7,12.46-54.78,22q-6.53,2.23-13.18,4.23v31.5h35.36V105.85l4.25-4.56,13.2,27.11Z" transform="translate(0)"/><path class="cls-1" d="M272.05,42.43H232.13l-20,22.32v-53H176.81V69.94c28.07-1.52,53.57-4.15,76.1-7.21Z" transform="translate(0)"/><path class="cls-1" d="M248,68a737.61,737.61,0,0,1-71.15,19.7v3.41c36.25-8.92,61.11-18.12,70.05-22Z" transform="translate(0)"/><rect class="cls-1" x="279.12" y="42.43" width="35.37" height="85.97"/><path class="cls-1" d="M283.52,30.8a16.77,16.77,0,0,0,5.66,3.69,20.17,20.17,0,0,0,14.46,0A16.39,16.39,0,0,0,313,25.14a19.11,19.11,0,0,0,1.34-7.23A19.14,19.14,0,0,0,313,10.68a16.46,16.46,0,0,0-9.35-9.35,20.32,20.32,0,0,0-14.46,0,16.46,16.46,0,0,0-9.35,9.35,19.14,19.14,0,0,0-1.33,7.23,19.1,19.1,0,0,0,1.33,7.23A16.82,16.82,0,0,0,283.52,30.8Z" transform="translate(0)"/><path class="cls-1" d="M393.07,124.63l-6-24.2c-1.37.52-2.86,1-4.48,1.49a16.74,16.74,0,0,1-4.64.71,6.18,6.18,0,0,1-4.83-2,7.56,7.56,0,0,1-1.77-5.26V64.75H391.5V42.43H371.38V23.1H336.17V42.43H324.39V64.75h11.78v36a31.23,31.23,0,0,0,2.28,12.14,25.68,25.68,0,0,0,6.52,9.28A29.25,29.25,0,0,0,355.19,128a39.62,39.62,0,0,0,13.36,2,67,67,0,0,0,6.92-.35,59.39,59.39,0,0,0,6.64-1.06,53,53,0,0,0,6-1.69A27.13,27.13,0,0,0,393.07,124.63Z" transform="translate(0)"/><path class="cls-1" d="M482.77,59.21a27.19,27.19,0,0,0-7.78-10A35.17,35.17,0,0,0,462.57,43a60.4,60.4,0,0,0-16.7-2.12A106.07,106.07,0,0,0,425.36,43a147.88,147.88,0,0,0-21.92,6.17l7.86,23.58a92.64,92.64,0,0,1,14.3-4.13,61.77,61.77,0,0,1,11.79-1.38q6.53,0,9.86,2.48a8.56,8.56,0,0,1,3.5,7H431.1q-16.5,0-24.91,6.72t-8.41,19.53a30.53,30.53,0,0,0,1.93,11.12,23.06,23.06,0,0,0,5.62,8.53,25.26,25.26,0,0,0,9,5.46A35.91,35.91,0,0,0,426.54,130a33.32,33.32,0,0,0,14.34-2.83,25.63,25.63,0,0,0,9.87-8v9.27h34.73V72.77A32.25,32.25,0,0,0,482.77,59.21Zm-32,41.69a14.47,14.47,0,0,1-5.31,4.91,13.92,13.92,0,0,1-6.64,1.69,7.93,7.93,0,0,1-5.81-2,7.37,7.37,0,0,1-2.05-5.54,6.59,6.59,0,0,1,1.93-5.18A8.15,8.15,0,0,1,438.49,93h12.26Z" transform="translate(0)"/><path class="cls-1" d="M26.62,151.85A15.8,15.8,0,0,1,38,147.11a17.45,17.45,0,0,1,3.59.38,20.46,20.46,0,0,1,3.53,1.07,19.85,19.85,0,0,1,6.24,4L56.85,146a26.08,26.08,0,0,0-4-2.89,28.54,28.54,0,0,0-4.61-2.16,31.91,31.91,0,0,0-5-1.38,28.23,28.23,0,0,0-15.42,1.38,25.51,25.51,0,0,0-8.2,5.16,24.06,24.06,0,0,0-5.46,7.74,23.6,23.6,0,0,0-2,9.63A24.17,24.17,0,0,0,19.46,181a24.83,24.83,0,0,0,8,5.2,26.06,26.06,0,0,0,10,1.89,28.73,28.73,0,0,0,5.08-.46,35,35,0,0,0,5.06-1.28,34.28,34.28,0,0,0,4.76-2,28,28,0,0,0,4.12-2.56V159.93H34.18v7.63H47.74v9.66a22.18,22.18,0,0,1-3.05,1.42,19.42,19.42,0,0,1-3.36,1,16.18,16.18,0,0,1-9.56-.92,15.53,15.53,0,0,1-5.11-3.49A16.41,16.41,0,0,1,23.25,170a17.42,17.42,0,0,1,0-12.91A16.18,16.18,0,0,1,26.62,151.85Z" transform="translate(0)"/><path class="cls-1" d="M80.11,179.51a5.14,5.14,0,0,1-1.69.29,3.09,3.09,0,0,1-2.4-1,4.54,4.54,0,0,1-.9-3.13V136.81H65.84v39.65a13.9,13.9,0,0,0,.82,5A10.23,10.23,0,0,0,68.88,185a9.17,9.17,0,0,0,3.27,2.13,11,11,0,0,0,4,.71,13.18,13.18,0,0,0,3.41-.46A15.75,15.75,0,0,0,83,186l-1-7.29A12.28,12.28,0,0,1,80.11,179.51Z" transform="translate(0)"/><path class="cls-1" d="M118.5,155.75a17.57,17.57,0,0,0-6.11-3.76,24.07,24.07,0,0,0-15.78,0,17.8,17.8,0,0,0-6.12,3.76,16.86,16.86,0,0,0-3.95,5.85,21.11,21.11,0,0,0,0,15.12,16.71,16.71,0,0,0,3.95,5.86,18.2,18.2,0,0,0,6.12,3.8,23.4,23.4,0,0,0,15.78,0,18,18,0,0,0,6.11-3.8,16.8,16.8,0,0,0,3.93-5.86,21.11,21.11,0,0,0,0-15.12A16.94,16.94,0,0,0,118.5,155.75Zm-4.78,18.05a10.12,10.12,0,0,1-2,3.53,9.38,9.38,0,0,1-3.14,2.27,9.82,9.82,0,0,1-4,.82,9.93,9.93,0,0,1-4-.82,9.36,9.36,0,0,1-3.16-2.27,10.27,10.27,0,0,1-2-3.53,13.45,13.45,0,0,1-.74-4.53,13.19,13.19,0,0,1,.74-4.5,10.67,10.67,0,0,1,2-3.51,9.27,9.27,0,0,1,3.16-2.29,9.93,9.93,0,0,1,4-.81,9.82,9.82,0,0,1,4,.81,9.29,9.29,0,0,1,3.14,2.29,10.5,10.5,0,0,1,2,3.51,13.19,13.19,0,0,1,.74,4.5A13.45,13.45,0,0,1,113.72,173.8Z" transform="translate(0)"/><path class="cls-1" d="M165.56,155.82a15.66,15.66,0,0,0-5.47-3.82,17.88,17.88,0,0,0-7-1.34,15.41,15.41,0,0,0-6.39,1.27,13.33,13.33,0,0,0-4.83,3.67,13.09,13.09,0,0,0-.82,1.1V136.81h-9.34v50.6H141v-5.77c.27.41.56.79.86,1.16a13,13,0,0,0,4.85,3.67,16,16,0,0,0,6.53,1.28,17.63,17.63,0,0,0,7-1.35,15.88,15.88,0,0,0,5.4-3.75,16.46,16.46,0,0,0,3.46-5.81,23.94,23.94,0,0,0,0-15.12A17.28,17.28,0,0,0,165.56,155.82Zm-5.37,17.76a10.43,10.43,0,0,1-2.06,3.53,9.64,9.64,0,0,1-3.16,2.3,9.43,9.43,0,0,1-4,.84,9.82,9.82,0,0,1-4-.82,9.29,9.29,0,0,1-3.14-2.29,10.35,10.35,0,0,1-2-3.52,13.55,13.55,0,0,1-.74-4.56,12.93,12.93,0,0,1,.74-4.44,10.64,10.64,0,0,1,2-3.52,9.32,9.32,0,0,1,3.14-2.3,10.38,10.38,0,0,1,8,0,9.5,9.5,0,0,1,3.16,2.3,10.68,10.68,0,0,1,2.06,3.52,12.93,12.93,0,0,1,.73,4.44A13.35,13.35,0,0,1,160.19,173.58Z" transform="translate(0)"/><path class="cls-1" d="M207,158.1a10.56,10.56,0,0,0-3-4,13.49,13.49,0,0,0-4.75-2.54,21.44,21.44,0,0,0-6.43-.89,33.79,33.79,0,0,0-4.57.29,25.82,25.82,0,0,0-4,.87,31.58,31.58,0,0,0-3.77,1.4,41.76,41.76,0,0,0-3.82,1.94l3.24,6.07a26.27,26.27,0,0,1,2.8-1.5,23.91,23.91,0,0,1,2.76-1.09,18.23,18.23,0,0,1,2.69-.67,16.5,16.5,0,0,1,2.56-.22q4,0,6.07,1.81a6.38,6.38,0,0,1,2,5v1h-10.5a20.36,20.36,0,0,0-5.91.77,12.19,12.19,0,0,0-4.33,2.2,9.43,9.43,0,0,0-2.68,3.44,10.82,10.82,0,0,0-.92,4.53,11.52,11.52,0,0,0,.87,4.52,10.19,10.19,0,0,0,2.51,3.58,11.77,11.77,0,0,0,4,2.39,15.55,15.55,0,0,0,5.3.86,20.35,20.35,0,0,0,4.48-.46A13.71,13.71,0,0,0,195.4,186a11.25,11.25,0,0,0,2.95-2.28c.18-.2.35-.4.51-.61v4.33H208l0-23.87A14.41,14.41,0,0,0,207,158.1ZM198,177a7.71,7.71,0,0,1-2,2.14,9.88,9.88,0,0,1-2.88,1.39,12,12,0,0,1-3.53.51,9,9,0,0,1-2.66-.35,5.82,5.82,0,0,1-2-1,4.3,4.3,0,0,1-1.24-1.6,4.88,4.88,0,0,1-.43-2.09,3.89,3.89,0,0,1,1.62-3.5,9.24,9.24,0,0,1,5-1.07h8.94v3.09A5.71,5.71,0,0,1,198,177Z" transform="translate(0)"/><path class="cls-1" d="M231.4,179.51a5.12,5.12,0,0,1-1.68.29,3.11,3.11,0,0,1-2.41-1,4.54,4.54,0,0,1-.9-3.13V136.81h-9.27v39.65a13.9,13.9,0,0,0,.81,5,10.23,10.23,0,0,0,2.22,3.55,9.17,9.17,0,0,0,3.27,2.13,11,11,0,0,0,4,.71,13.13,13.13,0,0,0,3.41-.46,15.75,15.75,0,0,0,3.48-1.38l-1-7.29A12.8,12.8,0,0,1,231.4,179.51Z" transform="translate(0)"/><path class="cls-1" d="M292.48,168.81a14.5,14.5,0,0,0,3.8-5.42,19.36,19.36,0,0,0,1.31-7.31,17.49,17.49,0,0,0-1.31-6.94,13.85,13.85,0,0,0-3.8-5.15,17.15,17.15,0,0,0-6.11-3.2,28.11,28.11,0,0,0-8.25-1.11H258v47.73h9.61V173.33h10.5c.51,0,1,0,1.5,0l8.12,14.12h10.87l-10.48-15.9A16.14,16.14,0,0,0,292.48,168.81Zm-24.86-21.22h10.5a16.41,16.41,0,0,1,4.4.54,9.06,9.06,0,0,1,3.26,1.62,7.1,7.1,0,0,1,2,2.73,10,10,0,0,1,.7,3.87,10.64,10.64,0,0,1-.68,4,7.1,7.1,0,0,1-2,2.83,8.92,8.92,0,0,1-3.27,1.71,15.58,15.58,0,0,1-4.4.58h-10.5Z" transform="translate(0)"/><path class="cls-1" d="M336.52,156.49a14.17,14.17,0,0,0-5.66-4.32A22.4,22.4,0,0,0,315,152a17.23,17.23,0,0,0-5.9,3.78,17,17,0,0,0-3.84,5.86,21.77,21.77,0,0,0,0,15.12,16.42,16.42,0,0,0,3.8,5.83A17,17,0,0,0,315,186.4a21.44,21.44,0,0,0,7.79,1.35,22.47,22.47,0,0,0,8.79-1.64,18.57,18.57,0,0,0,6.62-4.64l-5-4.91a13.13,13.13,0,0,1-4.41,3.06,13.54,13.54,0,0,1-5.27,1,10.83,10.83,0,0,1-4.31-.84,9.85,9.85,0,0,1-3.38-2.37,10.5,10.5,0,0,1-2.18-3.75,13.08,13.08,0,0,1-.4-1.43h26.8a30.53,30.53,0,0,0-.52-9A17,17,0,0,0,336.52,156.49Zm-23.39,9.88a12.84,12.84,0,0,1,.52-2.2,10.34,10.34,0,0,1,2-3.56,8.53,8.53,0,0,1,3.06-2.3,9.8,9.8,0,0,1,4-.8,10.08,10.08,0,0,1,3.58.61,7.84,7.84,0,0,1,4.62,4.54,10.69,10.69,0,0,1,.73,3.71Z" transform="translate(0)"/><path class="cls-1" d="M376.15,158.1a10.56,10.56,0,0,0-2.95-4,13.49,13.49,0,0,0-4.75-2.54,21.44,21.44,0,0,0-6.43-.89,33.79,33.79,0,0,0-4.57.29,25.82,25.82,0,0,0-4,.87,31.58,31.58,0,0,0-3.77,1.4,41.76,41.76,0,0,0-3.82,1.94l3.24,6.07a26.27,26.27,0,0,1,2.8-1.5,23.91,23.91,0,0,1,2.76-1.09,18.23,18.23,0,0,1,2.69-.67,16.5,16.5,0,0,1,2.56-.22q4,0,6.06,1.81a6.36,6.36,0,0,1,2,5v1h-10.5a20.36,20.36,0,0,0-5.91.77,12.19,12.19,0,0,0-4.33,2.2,9.43,9.43,0,0,0-2.68,3.44,10.82,10.82,0,0,0-.92,4.53,11.52,11.52,0,0,0,.87,4.52,10.3,10.3,0,0,0,2.5,3.58,11.91,11.91,0,0,0,4,2.39,15.55,15.55,0,0,0,5.3.86,20.35,20.35,0,0,0,4.48-.46,13.71,13.71,0,0,0,3.75-1.38,11.25,11.25,0,0,0,3-2.28,5.68,5.68,0,0,0,.5-.6v4.32h9.17l0-23.87A14.41,14.41,0,0,0,376.15,158.1Zm-9,18.92a8,8,0,0,1-2,2.14,9.88,9.88,0,0,1-2.88,1.39,12,12,0,0,1-3.53.51,9,9,0,0,1-2.66-.35,5.82,5.82,0,0,1-2-1,4.3,4.3,0,0,1-1.24-1.6,4.88,4.88,0,0,1-.43-2.09,3.89,3.89,0,0,1,1.62-3.5,9.24,9.24,0,0,1,5-1.07H368v3.09A5.58,5.58,0,0,1,367.17,177Z" transform="translate(0)"/><path class="cls-1" d="M400.59,179.51a5.12,5.12,0,0,1-1.68.29,3.11,3.11,0,0,1-2.41-1,4.54,4.54,0,0,1-.9-3.13V136.81h-9.27v39.65a13.9,13.9,0,0,0,.81,5,10.23,10.23,0,0,0,2.22,3.55,9.17,9.17,0,0,0,3.27,2.13,11,11,0,0,0,4,.71,13.18,13.18,0,0,0,3.41-.46,15.75,15.75,0,0,0,3.48-1.38l-1-7.29A12.8,12.8,0,0,1,400.59,179.51Z" transform="translate(0)"/><path class="cls-1" d="M427.06,179.67a8.23,8.23,0,0,1-2.35.37,4.75,4.75,0,0,1-1.57-.24A2.87,2.87,0,0,1,422,179a3.4,3.4,0,0,1-.74-1.43,8.69,8.69,0,0,1-.23-2.22v-18h10.29V151H421v-8.56h-9.28V151h-5.11v6.41h5.11v19.53a12.87,12.87,0,0,0,.85,4.86,9,9,0,0,0,5.82,5.38,14.11,14.11,0,0,0,4.28.63,16.32,16.32,0,0,0,2.42-.17,16.72,16.72,0,0,0,2.37-.51,17.56,17.56,0,0,0,2.3-.83,18.85,18.85,0,0,0,2.18-1.14l-2.11-6.62A17.41,17.41,0,0,1,427.06,179.67Z" transform="translate(0)"/><path class="cls-1" d="M451.85,177.59,441.72,151h-9.64l15.1,35.79-1.09,2.46a6.63,6.63,0,0,1-2.15,2.81,5.21,5.21,0,0,1-3,.9,6.36,6.36,0,0,1-2.37-.44,10.44,10.44,0,0,1-2.37-1.4l-4,6.65a15.42,15.42,0,0,0,4.35,2.47,14.59,14.59,0,0,0,4.92.8,13.09,13.09,0,0,0,7.69-2.25,14.5,14.5,0,0,0,5-6.78l16.26-41h-9.31Z" transform="translate(0)"/><path class="cls-1" d="M35.55,75.49l-2.47-.14" transform="translate(0)"/></g></g></svg>