<svg xmlns="http://www.w3.org/2000/svg" xmlns:xlink="http://www.w3.org/1999/xlink" viewBox="0 0 1419.31 579.92"><defs><style>.cls-1{fill:url(#linear-gradient);}.cls-2,.cls-3,.cls-4,.cls-5,.cls-6,.cls-8,.cls-9{stroke:#fefbd9;}.cls-13,.cls-14,.cls-2,.cls-3,.cls-4,.cls-5,.cls-6,.cls-8,.cls-9{stroke-miterlimit:10;}.cls-14,.cls-2,.cls-3,.cls-4,.cls-5,.cls-6{stroke-width:0.75px;}.cls-2{fill:url(#linear-gradient-2);}.cls-3{fill:url(#linear-gradient-3);}.cls-4{fill:url(#linear-gradient-4);}.cls-5{fill:url(#linear-gradient-5);}.cls-6{fill:url(#linear-gradient-6);}.cls-7{fill:#fefbda;}.cls-14,.cls-8,.cls-9{fill:none;}.cls-8{stroke-width:0.25px;}.cls-9{stroke-width:0.5px;}.cls-10{fill:url(#linear-gradient-7);}.cls-11{fill:url(#linear-gradient-8);}.cls-12,.cls-13,.cls-14{font-size:157.17px;font-family:Poppins-Black, Poppins;font-weight:800;}.cls-12{fill:#bf1e2d;}.cls-13{fill:#0d5e4f;}.cls-13,.cls-14{stroke:#fff;}.cls-15{fill:#fff;}.cls-16{fill:url(#linear-gradient-9);}.cls-17{fill:#0a5e50;}</style><linearGradient id="linear-gradient" x1="32.11" y1="283" x2="600.79" y2="313.84" gradientUnits="userSpaceOnUse"><stop offset="0" stop-color="#fefbda"/><stop offset="0.04" stop-color="#faf6d5"/><stop offset="0.08" stop-color="#ede8c6"/><stop offset="0.13" stop-color="#d7d1ae"/><stop offset="0.17" stop-color="#c1b995"/><stop offset="0.77" stop-color="#fff8c0"/><stop offset="0.78" stop-color="#fefacf"/><stop offset="0.81" stop-color="#fefbd7"/><stop offset="0.84" stop-color="#fefbda"/><stop offset="0.87" stop-color="#f9f6d6"/><stop offset="0.91" stop-color="#ebe8ca"/><stop offset="0.95" stop-color="#d3d0b6"/><stop offset="0.99" stop-color="#b3b09a"/><stop offset="1" stop-color="#aaa793"/></linearGradient><linearGradient id="linear-gradient-2" x1="395.52" y1="79.64" x2="345.44" y2="201.53" gradientUnits="userSpaceOnUse"><stop offset="0" stop-color="#148f77"/><stop offset="0.02" stop-color="#148d76"/><stop offset="0.4" stop-color="#107360"/><stop offset="0.73" stop-color="#0e6454"/><stop offset="1" stop-color="#0d5e4f"/></linearGradient><linearGradient id="linear-gradient-3" x1="564.59" y1="446.24" x2="275.74" y2="125.31" gradientUnits="userSpaceOnUse"><stop offset="0.22" stop-color="#145044"/><stop offset="0.38" stop-color="#14574a"/><stop offset="0.53" stop-color="#136353"/><stop offset="0.6" stop-color="#136857"/><stop offset="0.69" stop-color="#147864"/><stop offset="0.78" stop-color="#159077"/><stop offset="0.86" stop-color="#19a080"/><stop offset="0.99" stop-color="#20b78d"/></linearGradient><linearGradient id="linear-gradient-4" x1="111" y1="488.24" x2="339.35" y2="72.25" gradientUnits="userSpaceOnUse"><stop offset="0.38" stop-color="#0c4a3e"/><stop offset="0.47" stop-color="#0e5043"/><stop offset="0.59" stop-color="#156051"/><stop offset="0.72" stop-color="#207a68"/><stop offset="0.73" stop-color="#217c6a"/><stop offset="0.77" stop-color="#228975"/><stop offset="0.84" stop-color="#239d86"/><stop offset="0.89" stop-color="#24a48c"/></linearGradient><linearGradient id="linear-gradient-5" x1="598.1" y1="422.38" x2="332.45" y2="127.23" xlink:href="#linear-gradient-3"/><linearGradient id="linear-gradient-6" x1="289.43" y1="403.77" x2="38.44" y2="124.92" xlink:href="#linear-gradient-3"/><linearGradient id="linear-gradient-7" x1="163.11" y1="467.8" x2="163.2" y2="467.28" gradientUnits="userSpaceOnUse"><stop offset="0.16" stop-color="#0d5e4f"/><stop offset="0.38" stop-color="#106253"/><stop offset="0.62" stop-color="#17705f"/><stop offset="0.87" stop-color="#248573"/><stop offset="1" stop-color="#2c9480"/></linearGradient><linearGradient id="linear-gradient-8" x1="13.55" y1="481.35" x2="583.18" y2="481.35" gradientUnits="userSpaceOnUse"><stop offset="0" stop-color="#afaf9e"/><stop offset="0.05" stop-color="#abaa99"/><stop offset="0.12" stop-color="#9e9b8a"/><stop offset="0.17" stop-color="#908c7b"/><stop offset="0.53" stop-color="#ceccc5"/><stop offset="0.81" stop-color="#fff"/><stop offset="0.87" stop-color="#d5d4cb"/><stop offset="0.94" stop-color="#b0ae9d"/><stop offset="0.97" stop-color="#aeac9b"/><stop offset="0.98" stop-color="#a7a696"/><stop offset="0.99" stop-color="#9c9a8c"/><stop offset="1" stop-color="#8b8a7e"/><stop offset="1" stop-color="#8a897d"/></linearGradient><linearGradient id="linear-gradient-9" x1="33.35" y1="498.67" x2="582.93" y2="498.67" gradientUnits="userSpaceOnUse"><stop offset="0" stop-color="#0b3d34"/><stop offset="0.44" stop-color="#22ad87"/><stop offset="0.92" stop-color="#0a5e50"/><stop offset="0.98" stop-color="#0e4b3f"/><stop offset="0.99" stop-color="#0f4e42"/><stop offset="1" stop-color="#14594d"/><stop offset="1" stop-color="#176154"/></linearGradient></defs><g id="Layer_2" data-name="Layer 2"><g id="Layer_1-2" data-name="Layer 1"><path class="cls-1" d="M629.29,118.5c-127.91,19.55-220.67,31.79-291.71,40.23,0,0-114.72,13.63-204.7,53A342.48,342.48,0,0,0,68.43,249a308.18,308.18,0,0,0-44.49,40.62C9.16,306,6,313,4.89,315.52c-9.29,21.86-3.21,44,.79,55l13.26,24.43A262,262,0,0,0,51.05,419.2a268,268,0,0,0,92.29,36.92L427.5,487.2l135.71,21.49,7.72-42.54a1157.34,1157.34,0,0,0-449.47-18.53l-10.06-4.57c10.68-3.58,26.23-8.38,45.25-12.8,47.34-11,99.58-15.76,192.36-7.58a1449.94,1449.94,0,0,1,222.48,37.48q3.19-19.2,6.4-38.4a1415.07,1415.07,0,0,0-234-32.37c-91.06-4.81-141,1.68-189.76,19.46A370.68,370.68,0,0,0,94,437.11l-9.6-2.29a370.31,370.31,0,0,1,74.77-36.56c43.61-15.51,91.07-23,184.68-18.29a1386.5,1386.5,0,0,1,235.7,32.56L587,370.3C483.2,353.22,397.78,348.68,336.76,348c-62.8-.71-97,2.71-133,11.86-62.31,15.84-108.93,43.49-138.07,64l-5.94-4.11a339,339,0,0,1,82.75-53.92c37.9-17.36,86.85-31.06,212.54-28.36A1639.79,1639.79,0,0,1,588.62,359.4q3.43-24.45,6.86-48.91a1165.08,1165.08,0,0,0-237.7-16.91c-77.81,2.53-133.59,4.9-198.58,34.74-54.14,24.85-91.79,58.24-114.54,81.82l-6.85-5c20.74-25,56-61,108.79-87.31,23.53-11.73,72.17-32.32,204.52-34.24A1352.15,1352.15,0,0,1,598.26,302.9l5.25-40.53c-95.77-12.33-212.77-18-334.86-1.25C202.53,270.17,151,283.57,99.82,317a342.42,342.42,0,0,0-80.76,74l-5.48-8.83c17.94-24.3,50.16-61.58,100.87-90.82,31.21-18,64.46-30.07,109.4-39,143.43-28.5,337.4-11.26,384-6.78q4.35-28.6,8.68-57.22c-246.13,4.48-427,37.66-485.1,66.23-54.88,27-89.83,64.7-89.84,64.7A276.13,276.13,0,0,0,6.87,365.8l-4-13.1a309.83,309.83,0,0,1,71-79.54C137.5,223.27,204.7,213.08,398.3,194c89.39-8.8,164.79-15.45,220.64-20.16Z"/><g id="building"><rect class="cls-2" x="254.18" y="0.38" width="131.78" height="525.75"/><path class="cls-3" d="M440.38,520.72l65.05-10.35L505,60.05,494.24,49.71a28.58,28.58,0,0,0-11.57-4.23l-42.05-2.2L343.88,81.45V521Z"/><path class="cls-4" d="M201.59,524.38l-64.65-21.09V63.7l10.79-10.33a28.44,28.44,0,0,1,11.57-4.23l42-2.2,96.74,38.17V524.69Z"/></g><path class="cls-5" d="M439.51,46.94h61.25a4.67,4.67,0,0,1,4.67,4.67V515.79a0,0,0,0,1,0,0H439.51a0,0,0,0,1,0,0V46.94A0,0,0,0,1,439.51,46.94Z"/><path class="cls-6" d="M143.19,48h58.26a0,0,0,0,1,0,0V492.41a0,0,0,0,1,0,0H136.94a0,0,0,0,1,0,0V54.23A6.25,6.25,0,0,1,143.19,48Z"/><g id="whites"><rect class="cls-7" x="349.93" y="26.69" width="15.72" height="15.72"/><rect class="cls-7" x="280.78" y="26.69" width="15.72" height="15.72"/><rect class="cls-7" x="307.19" y="113.28" width="31.43" height="15.72"/><rect class="cls-7" x="306.14" y="158.33" width="31.43" height="15.72"/><rect class="cls-7" x="306.14" y="199.2" width="31.43" height="15.72"/><rect class="cls-7" x="307.19" y="243.2" width="31.43" height="15.72"/><rect class="cls-7" x="307.19" y="328.07" width="31.43" height="15.72"/><rect class="cls-7" x="307.19" y="380.46" width="31.43" height="15.72"/><rect class="cls-7" x="307.19" y="287.21" width="31.43" height="15.72"/><rect class="cls-7" x="307.19" y="425.52" width="31.43" height="15.72"/><rect class="cls-7" x="307.19" y="466.38" width="31.43" height="15.72"/><line class="cls-8" x1="439.51" y1="46.29" x2="439.51" y2="522.56"/><path class="cls-7" d="M473.83,88.1a59.87,59.87,0,0,1,6.18.62v9.81l-29,.73.15-12.4Z"/><path class="cls-7" d="M504,99.86l-.31,5.44a183.2,183.2,0,0,0-18.41-6.12V89.85a31.8,31.8,0,0,1,11.3,5.4Z"/><path class="cls-7" d="M473.83,107.12a59.87,59.87,0,0,1,6.18.62v9.8l-29,.73.15-12.39Z"/><path class="cls-7" d="M504,118.87l-.31,5.44a183.2,183.2,0,0,0-18.41-6.12v-9.33a32,32,0,0,1,11.3,5.41Z"/><path class="cls-7" d="M473.83,128.51a54.8,54.8,0,0,1,6.18.62v9.8l-29,.73.15-12.39Z"/><path class="cls-7" d="M504,140.26l-.31,5.44a183.2,183.2,0,0,0-18.41-6.12v-9.33a32,32,0,0,1,11.3,5.41Z"/><path class="cls-7" d="M473.83,147.54a59.87,59.87,0,0,1,6.18.62V158l-29,.73.15-12.4Z"/><path class="cls-7" d="M504,159.29l-.31,5.45a183.2,183.2,0,0,0-18.41-6.12v-9.34a32,32,0,0,1,11.3,5.41Z"/><path class="cls-7" d="M473.83,165.42A59.87,59.87,0,0,1,480,166v9.81l-29,.72.15-12.39Z"/><path class="cls-7" d="M504,177.17l-.31,5.45a183.2,183.2,0,0,0-18.41-6.12v-9.34a32,32,0,0,1,11.3,5.41Z"/><path class="cls-7" d="M473.83,181.39A54.8,54.8,0,0,1,480,182v9.8l-29,.73.15-12.39Z"/><path class="cls-7" d="M504,193.14l-.31,5.44a183.2,183.2,0,0,0-18.41-6.12v-9.33a32,32,0,0,1,11.3,5.41Z"/><path class="cls-7" d="M473.83,202.46a59.87,59.87,0,0,1,6.18.62v9.8l-29,.73.15-12.39Z"/><path class="cls-7" d="M504,214.21l-.31,5.45a185,185,0,0,0-18.41-6.13V204.2a32,32,0,0,1,11.3,5.41Z"/><path class="cls-7" d="M473.83,221.49a59.87,59.87,0,0,1,6.18.62v9.81l-29,.73.15-12.4Z"/><path class="cls-7" d="M504,233.24l-.31,5.45a183.2,183.2,0,0,0-18.41-6.12v-9.33a31.8,31.8,0,0,1,11.3,5.4Z"/><path class="cls-7" d="M473.83,241.33A54.8,54.8,0,0,1,480,242v9.81l-29,.72.15-12.39Z"/><path class="cls-7" d="M504,253.08l-.31,5.45a184,184,0,0,0-18.41-6.13v-9.33a32,32,0,0,1,11.3,5.41Z"/><path class="cls-7" d="M473.83,264.05a54.8,54.8,0,0,1,6.18.62v9.81l-29,.73.15-12.4Z"/><path class="cls-7" d="M504,275.8l-.31,5.45a183.2,183.2,0,0,0-18.41-6.12v-9.34a32,32,0,0,1,11.3,5.41Z"/><path class="cls-7" d="M473.83,283.07a54.8,54.8,0,0,1,6.18.62v9.8l-29,.73.15-12.39Z"/><path class="cls-7" d="M504,294.82l-.31,5.44a183.2,183.2,0,0,0-18.41-6.12v-9.33a32,32,0,0,1,11.3,5.41Z"/><path class="cls-7" d="M473.83,304.46a59.87,59.87,0,0,1,6.18.62v9.8l-29,.73.15-12.39Z"/><path class="cls-7" d="M504,316.21l-.31,5.44a183.2,183.2,0,0,0-18.41-6.12V306.2a32,32,0,0,1,11.3,5.41Z"/><path class="cls-7" d="M473.83,323.49a54.8,54.8,0,0,1,6.18.62v9.81l-29,.72.15-12.39Z"/><path class="cls-7" d="M504,335.24l-.31,5.45a183.2,183.2,0,0,0-18.41-6.12v-9.34a32,32,0,0,1,11.3,5.41Z"/><path class="cls-7" d="M473.83,341.37A54.8,54.8,0,0,1,480,342v9.81l-29,.72.15-12.39Z"/><path class="cls-7" d="M504,353.12l-.31,5.45a183.2,183.2,0,0,0-18.41-6.12v-9.34a32,32,0,0,1,11.3,5.41Z"/><path class="cls-7" d="M473.83,359.43a54.8,54.8,0,0,1,6.18.62v9.81l-29,.72.15-12.39Z"/><path class="cls-7" d="M504,371.18l-.31,5.45a183.2,183.2,0,0,0-18.41-6.12v-9.34a32,32,0,0,1,11.3,5.41Z"/><path class="cls-7" d="M473.83,378.41A54.8,54.8,0,0,1,480,379v9.8l-29,.73.15-12.39Z"/><path class="cls-7" d="M504,390.16l-.31,5.44a183.2,183.2,0,0,0-18.41-6.12v-9.33a32,32,0,0,1,11.3,5.41Z"/><path class="cls-7" d="M473.83,397.44a59.87,59.87,0,0,1,6.18.62v9.81l-29,.73.15-12.4Z"/><path class="cls-7" d="M504,409.19l-.31,5.45a183.2,183.2,0,0,0-18.41-6.12v-9.34a32,32,0,0,1,11.3,5.41Z"/><path class="cls-7" d="M473.83,417.28a59.87,59.87,0,0,1,6.18.62v9.8l-29,.73.15-12.39Z"/><path class="cls-7" d="M504,429l-.31,5.44a183.2,183.2,0,0,0-18.41-6.12V419a32,32,0,0,1,11.3,5.41Z"/><path class="cls-7" d="M473.83,439.65a54.8,54.8,0,0,1,6.18.62v9.81l-29,.72.15-12.39Z"/><path class="cls-7" d="M504,451.4l-.31,5.45a183.2,183.2,0,0,0-18.41-6.12v-9.34a32,32,0,0,1,11.3,5.41Z"/><path class="cls-7" d="M473.83,458.66a59.87,59.87,0,0,1,6.18.62v9.81l-29,.73.15-12.4Z"/><path class="cls-7" d="M504,470.42l-.31,5.44a183.2,183.2,0,0,0-18.41-6.12v-9.33a32.15,32.15,0,0,1,11.3,5.4Z"/><path class="cls-7" d="M473.83,70.18a59.87,59.87,0,0,1,6.18.62v9.81l-29,.73L451.19,69Z"/><path class="cls-7" d="M504,81.94l-.31,5.44a183.2,183.2,0,0,0-18.41-6.12V71.93a32.15,32.15,0,0,1,11.3,5.4Z"/><polygon class="cls-7" points="347.76 103.86 366.86 99.3 366.86 113.16 347.51 117.06 347.76 103.86"/><polygon class="cls-7" points="396.03 92.33 396.03 107.27 373.91 111.73 373.91 97.62 396.03 92.33"/><polygon class="cls-7" points="347.76 124.86 366.86 120.3 366.86 134.16 347.51 138.06 347.76 124.86"/><polygon class="cls-7" points="396.03 113.33 396.03 128.26 373.91 132.74 373.91 118.62 396.03 113.33"/><polygon class="cls-7" points="347.76 145.1 366.86 140.54 366.86 154.4 347.51 158.31 347.76 145.1"/><polygon class="cls-7" points="396.03 133.57 396.03 148.5 373.91 152.98 373.91 138.86 396.03 133.57"/><polygon class="cls-7" points="347.76 167.69 366.86 163.13 366.86 177 347.51 180.91 347.76 167.69"/><polygon class="cls-7" points="396.03 156.18 396.03 171.11 373.91 175.57 373.91 161.46 396.03 156.18"/><polygon class="cls-7" points="347.76 188.71 366.86 184.15 366.86 198 347.51 201.91 347.76 188.71"/><polygon class="cls-7" points="396.03 177.18 396.03 192.12 373.91 196.57 373.91 182.46 396.03 177.18"/><polygon class="cls-7" points="347.76 209.06 366.86 204.5 366.86 218.37 347.51 222.26 347.76 209.06"/><polygon class="cls-7" points="396.03 197.54 396.03 212.48 373.91 216.94 373.91 202.81 396.03 197.54"/><polygon class="cls-7" points="347.76 231.67 366.86 227.11 366.86 240.97 347.51 244.87 347.76 231.67"/><polygon class="cls-7" points="396.03 220.13 396.03 235.07 373.91 239.54 373.91 225.42 396.03 220.13"/><polygon class="cls-7" points="347.76 252.67 366.86 248.11 366.86 261.96 347.51 265.87 347.76 252.67"/><polygon class="cls-7" points="396.03 241.15 396.03 256.07 373.91 260.54 373.91 246.43 396.03 241.15"/><polygon class="cls-7" points="347.76 272.91 366.86 268.35 366.86 282.2 347.51 286.11 347.76 272.91"/><polygon class="cls-7" points="396.03 261.38 396.03 276.31 373.91 280.77 373.91 266.67 396.03 261.38"/><polygon class="cls-7" points="347.76 295.5 366.86 290.94 366.86 304.81 347.51 308.7 347.76 295.5"/><polygon class="cls-7" points="396.03 283.99 396.03 298.92 373.91 303.38 373.91 289.26 396.03 283.99"/><polygon class="cls-7" points="347.76 316.5 366.86 311.94 366.86 325.81 347.51 329.7 347.76 316.5"/><polygon class="cls-7" points="396.03 304.99 396.03 319.92 373.91 324.38 373.91 310.26 396.03 304.99"/><polygon class="cls-7" points="347.76 339.08 366.86 334.52 366.86 348.38 347.51 352.29 347.76 339.08"/><polygon class="cls-7" points="396.03 327.56 396.03 342.5 373.91 346.95 373.91 332.85 396.03 327.56"/><polygon class="cls-7" points="347.76 361.69 366.86 357.13 366.86 370.99 347.51 374.88 347.76 361.69"/><polygon class="cls-7" points="396.03 350.17 396.03 365.1 373.91 369.56 373.91 355.44 396.03 350.17"/><polygon class="cls-7" points="347.76 382.69 366.86 378.13 366.86 391.99 347.51 395.88 347.76 382.69"/><polygon class="cls-7" points="396.03 371.17 396.03 386.1 373.91 390.56 373.91 376.44 396.03 371.17"/><polygon class="cls-7" points="347.76 402.19 366.86 397.63 366.86 411.5 347.51 415.39 347.76 402.19"/><polygon class="cls-7" points="396.03 390.67 396.03 405.61 373.91 410.06 373.91 395.94 396.03 390.67"/><polygon class="cls-7" points="347.76 424.8 366.86 420.24 366.86 434.1 347.51 438 347.76 424.8"/><polygon class="cls-7" points="396.03 413.26 396.03 428.2 373.91 432.67 373.91 418.55 396.03 413.26"/><polygon class="cls-7" points="347.76 445.8 366.86 441.24 366.86 455.1 347.51 459 347.76 445.8"/><polygon class="cls-7" points="396.03 434.26 396.03 449.2 373.91 453.67 373.91 439.55 396.03 434.26"/><polygon class="cls-7" points="347.76 466.16 366.86 461.6 366.86 475.45 347.51 479.36 347.76 466.16"/><polygon class="cls-7" points="396.03 454.63 396.03 469.56 373.91 474.02 373.91 459.92 396.03 454.63"/><g id="whites_2" data-name="whites 2"><line class="cls-9" x1="201.45" y1="49.8" x2="201.45" y2="521.3"/><path class="cls-7" d="M147.74,92.94a32.15,32.15,0,0,1,11.46-5.45v9.34C152,98.54,140.63,103,140.63,103l-.3-5.45Z"/><path class="cls-7" d="M193.29,97l-26.48-.66V86.07c1.24-.13,2.47-.23,3.69-.28l22.64-1.24Z"/><path class="cls-7" d="M146.7,112a32.87,32.87,0,0,1,12.5-5.72v9.37c-7.09,1.49-19.61,6.39-19.61,6.39l-.31-5.44Z"/><path class="cls-7" d="M192.24,116l-25.43-.64V105q1.33-.12,2.64-.18l22.64-1.24Z"/><path class="cls-7" d="M146.7,133.35a32.87,32.87,0,0,1,12.5-5.72V137c-7.09,1.49-19.61,6.39-19.61,6.39l-.31-5.44Z"/><path class="cls-7" d="M192.24,137.35l-25.43-.64V126.39c.89-.09,1.77-.15,2.64-.19L192.09,125Z"/><path class="cls-7" d="M146.7,152.38a32.87,32.87,0,0,1,12.5-5.72V156c-7.09,1.49-19.61,6.39-19.61,6.39l-.31-5.45Z"/><path class="cls-7" d="M192.24,156.38l-25.43-.63V145.41q1.33-.12,2.64-.18L192.09,144Z"/><path class="cls-7" d="M146.7,170.26a32.87,32.87,0,0,1,12.5-5.72v9.38c-7.09,1.49-19.61,6.39-19.61,6.39l-.31-5.45Z"/><path class="cls-7" d="M192.24,174.26l-25.43-.63V163.29q1.33-.12,2.64-.18l22.64-1.24Z"/><path class="cls-7" d="M146.7,186.23a32.87,32.87,0,0,1,12.5-5.72v9.37c-7.09,1.49-19.61,6.39-19.61,6.39l-.31-5.44Z"/><path class="cls-7" d="M192.24,190.23l-25.43-.64V179.27c.89-.09,1.77-.15,2.64-.19l22.64-1.24Z"/><path class="cls-7" d="M146.7,207.3a32.87,32.87,0,0,1,12.5-5.72V211c-7.09,1.49-19.61,6.39-19.61,6.39l-.31-5.44Z"/><path class="cls-7" d="M192.24,211.3l-25.43-.64V200.33q1.33-.12,2.64-.18l22.64-1.24Z"/><path class="cls-7" d="M146.7,226.33a32.87,32.87,0,0,1,12.5-5.72V230c-7.09,1.49-19.61,6.39-19.61,6.39l-.31-5.45Z"/><path class="cls-7" d="M192.24,230.34l-25.43-.64V219.37c.89-.09,1.77-.15,2.64-.19l22.64-1.24Z"/><path class="cls-7" d="M146.7,246.17a32.87,32.87,0,0,1,12.5-5.72v9.37c-7.09,1.49-19.61,6.39-19.61,6.39l-.31-5.44Z"/><path class="cls-7" d="M192.24,250.17l-25.43-.64V239.21c.89-.09,1.77-.15,2.64-.19l22.64-1.24Z"/><path class="cls-7" d="M147.74,268.89a32.15,32.15,0,0,1,11.46-5.45v9.34c-7.21,1.71-18.57,6.16-18.57,6.16l-.3-5.45Z"/><path class="cls-7" d="M193.29,272.9l-26.48-.66V262c1.24-.14,2.47-.23,3.69-.29l22.64-1.24Z"/><path class="cls-7" d="M146.7,287.9a33,33,0,0,1,12.5-5.71v9.37c-7.09,1.49-19.61,6.39-19.61,6.39l-.31-5.44Z"/><path class="cls-7" d="M192.24,291.91l-25.43-.64V280.94c.89-.09,1.77-.15,2.64-.19l22.64-1.23Z"/><path class="cls-7" d="M146.7,309.3a32.87,32.87,0,0,1,12.5-5.72V313c-7.09,1.49-19.61,6.39-19.61,6.39l-.31-5.44Z"/><path class="cls-7" d="M192.24,313.3l-25.43-.64V302.33q1.33-.12,2.64-.18l22.64-1.24Z"/><path class="cls-7" d="M146.7,328.33a32.87,32.87,0,0,1,12.5-5.72V332c-7.09,1.49-19.61,6.39-19.61,6.39l-.31-5.45Z"/><path class="cls-7" d="M192.24,332.33l-25.43-.63V321.37c.89-.09,1.77-.15,2.64-.19l22.64-1.24Z"/><path class="cls-7" d="M147.74,346.21a32.15,32.15,0,0,1,11.46-5.45v9.34c-7.21,1.71-18.57,6.16-18.57,6.16l-.3-5.45Z"/><path class="cls-7" d="M193.29,350.21l-26.48-.65V339.35c1.24-.14,2.47-.23,3.69-.29l22.64-1.24Z"/><path class="cls-7" d="M146.7,364.27a32.87,32.87,0,0,1,12.5-5.72v9.38c-7.09,1.49-19.61,6.39-19.61,6.39l-.31-5.45Z"/><path class="cls-7" d="M192.24,368.27l-25.43-.63V357.31c.89-.09,1.77-.15,2.64-.19l22.64-1.24Z"/><path class="cls-7" d="M146.7,383.25a32.87,32.87,0,0,1,12.5-5.72v9.37c-7.09,1.49-19.61,6.39-19.61,6.39l-.31-5.44Z"/><path class="cls-7" d="M192.24,387.25l-25.43-.64V376.29c.89-.09,1.77-.15,2.64-.19l22.64-1.24Z"/><path class="cls-7" d="M146.7,402.28a32.87,32.87,0,0,1,12.5-5.72v9.38c-7.09,1.49-19.61,6.39-19.61,6.39l-.31-5.45Z"/><path class="cls-7" d="M192.24,406.28l-25.43-.63V395.31q1.33-.12,2.64-.18l22.64-1.24Z"/><path class="cls-7" d="M146.7,422.12a32.87,32.87,0,0,1,12.5-5.72v9.37c-7.09,1.49-19.61,6.39-19.61,6.39l-.31-5.44Z"/><path class="cls-7" d="M192.24,426.12l-25.43-.64V415.15q1.33-.12,2.64-.18l22.64-1.24Z"/><path class="cls-7" d="M146.7,444.49a32.87,32.87,0,0,1,12.5-5.72v9.38c-7.09,1.49-19.61,6.39-19.61,6.39l-.31-5.45Z"/><path class="cls-7" d="M192.24,448.49l-25.43-.63V437.53c.89-.09,1.77-.15,2.64-.19l22.64-1.24Z"/><path class="cls-7" d="M146.7,463.5a32.85,32.85,0,0,1,12.5-5.71v9.37c-7.09,1.49-19.61,6.39-19.61,6.39l-.31-5.45Z"/><path class="cls-7" d="M192.24,467.51l-25.43-.64V456.54c.89-.09,1.77-.15,2.64-.19l22.64-1.24Z"/><path class="cls-7" d="M146.7,75a32.85,32.85,0,0,1,12.5-5.71v9.37c-7.09,1.49-19.61,6.39-19.61,6.39l-.31-5.44Z"/><path class="cls-7" d="M192.24,79l-25.43-.64V68.06c.89-.09,1.77-.15,2.64-.19l22.64-1.24Z"/><polygon class="cls-7" points="246.2 90.03 264.69 94.44 264.69 108.69 246.2 104.95 246.2 90.03"/><polygon class="cls-7" points="294.73 114.75 269.86 109.73 269.86 95.68 294.47 101.55 294.73 114.75"/><polygon class="cls-7" points="247.25 111.03 264.69 115.19 264.69 129.48 247.25 125.95 247.25 111.03"/><polygon class="cls-7" points="295.77 135.75 269.86 130.53 269.86 116.43 295.52 122.55 295.77 135.75"/><polygon class="cls-7" points="247.25 131.26 264.69 135.43 264.69 149.72 247.25 146.19 247.25 131.26"/><polygon class="cls-7" points="295.77 156 269.86 150.76 269.86 136.67 295.52 142.79 295.77 156"/><polygon class="cls-7" points="247.25 153.87 264.69 158.03 264.69 172.31 247.25 168.8 247.25 153.87"/><polygon class="cls-7" points="295.77 178.6 269.86 173.37 269.86 159.26 295.52 165.38 295.77 178.6"/><polygon class="cls-7" points="247.25 174.87 264.69 179.04 264.69 193.32 247.25 189.81 247.25 174.87"/><polygon class="cls-7" points="295.77 199.6 269.86 194.37 269.86 180.26 295.52 186.4 295.77 199.6"/><polygon class="cls-7" points="247.25 195.23 264.69 199.4 264.69 213.69 247.25 210.17 247.25 195.23"/><polygon class="cls-7" points="295.77 219.96 269.86 214.73 269.86 200.63 295.52 206.75 295.77 219.96"/><polygon class="cls-7" points="247.25 217.82 264.69 222 264.69 236.29 247.25 232.76 247.25 217.82"/><polygon class="cls-7" points="295.77 242.56 269.86 237.32 269.86 223.23 295.52 229.36 295.77 242.56"/><polygon class="cls-7" points="248.3 238.82 264.69 242.74 264.69 257.07 248.3 253.76 248.3 238.82"/><polygon class="cls-7" points="296.82 263.56 269.86 258.12 269.86 243.98 296.57 250.36 296.82 263.56"/><polygon class="cls-7" points="247.25 259.06 264.69 263.24 264.69 277.52 247.25 274 247.25 259.06"/><polygon class="cls-7" points="295.77 283.8 269.86 278.56 269.86 264.46 295.52 270.6 295.77 283.8"/><polygon class="cls-7" points="247.25 281.68 264.69 285.83 264.69 300.13 247.25 296.61 247.25 281.68"/><polygon class="cls-7" points="295.77 306.39 269.86 301.17 269.86 287.07 295.52 293.19 295.77 306.39"/><polygon class="cls-7" points="248.3 302.68 264.69 306.58 264.69 320.92 248.3 317.61 248.3 302.68"/><polygon class="cls-7" points="296.82 327.39 269.86 321.95 269.86 307.82 296.57 314.19 296.82 327.39"/><polygon class="cls-7" points="247.25 325.25 264.69 329.42 264.69 343.7 247.25 340.19 247.25 325.25"/><polygon class="cls-7" points="295.77 349.98 269.86 344.75 269.86 330.66 295.52 336.77 295.77 349.98"/><polygon class="cls-7" points="247.25 347.86 264.69 352.01 264.69 366.31 247.25 362.79 247.25 347.86"/><polygon class="cls-7" points="295.77 372.57 269.86 367.35 269.86 353.25 295.52 359.38 295.77 372.57"/><polygon class="cls-7" points="248.3 368.86 264.69 372.76 264.69 387.1 248.3 383.79 248.3 368.86"/><polygon class="cls-7" points="296.82 393.57 269.86 388.13 269.86 374 296.57 380.38 296.82 393.57"/><polygon class="cls-7" points="247.25 388.36 264.69 392.51 264.69 406.81 247.25 403.3 247.25 388.36"/><polygon class="cls-7" points="295.77 413.08 269.86 407.86 269.86 393.75 270.42 393.88 280.45 396.29 295.52 399.88 295.77 413.08"/><polygon class="cls-7" points="247.25 410.95 264.69 415.12 264.69 429.42 247.25 425.89 247.25 410.95"/><polygon class="cls-7" points="295.77 435.69 269.86 430.45 269.86 416.36 295.52 422.48 295.77 435.69"/><polygon class="cls-7" points="248.3 431.95 264.69 435.87 264.69 450.2 248.3 446.89 248.3 431.95"/><polygon class="cls-7" points="296.82 456.69 269.86 451.25 269.86 437.11 296.57 443.49 296.82 456.69"/><polygon class="cls-7" points="247.25 452.31 264.69 456.49 264.69 470.77 247.25 467.25 247.25 452.31"/><polygon class="cls-7" points="295.77 477.05 269.86 471.81 269.86 457.71 295.52 463.85 295.77 477.05"/></g></g><path class="cls-10" d="M166.81,466.87v3H159.2v-2.7a12.07,12.07,0,0,1,3.9-.38Z"/><path class="cls-11" d="M18.94,394.93S80.55,459,250.12,490c220.75,40.35,323.64,22.44,323.64,22.44S457,533.41,252.92,496.6C61.38,462,24.37,409,24.37,409l4,8.88L31.53,425,38,439.3l6,13.41,5.59,12.49,30.54,65.32a513.54,513.54,0,0,0,86,31.67c111.11,29.88,204,14.4,243.11,7.88,19.88-3.31,41.36-8.91,84.32-20.13,24-6.27,41.07-11.19,61.14-22.71a191.65,191.65,0,0,0,28.49-20l-119.91.69c-171.85,1-283.12-42-310.66-51.2-6.68-2.22-12.16-4.13-15.77-5.41,0-2.88-.05-5.76-.08-8.65-2.33.47-4.75,1-7.26,1.65-3.51.89-6.8,1.87-9.87,2.89l-9-3.19-18-7.26-6.74-3.05L65.74,423.47l-7.09-4L43.9,410.3l-7.5-5.07L19.57,391.87l-6-9.1Q16.25,388.86,18.94,394.93Z"/><text class="cls-12" transform="translate(259.69 225.34)">N<tspan x="0" y="122.59">G</tspan></text><text class="cls-13" transform="translate(259.69 225.34)">N<tspan x="0" y="122.59">G</tspan></text><text class="cls-14" transform="translate(259.69 225.34)">N<tspan x="0" y="122.59">G</tspan></text><text class="cls-13"><tspan x="267.65" y="473.13">R</tspan></text><rect class="cls-15" x="136.24" y="137.56" width="1.36" height="313.94"/><path class="cls-16" d="M582.93,507.45c-.77.62-1.93,1.53-3.33,2.63-2.8,2.2-4.25,3.33-5.46,4.21A608,608,0,0,1,480.24,548c-16.69,4.48-87.92,22.83-183.76,20.47-88.6-2.19-154.16-21-175.9-27.65C103,535.37,88.44,530.05,78,526q-3.18-7-6.38-13.91a717.19,717.19,0,0,0,96.57,29.6c8.84,2,64.82,14.62,128.4,17.2,119.18,4.82,224.3-27.22,272.79-44.23,2.33-.75,2.66-1,2.64-1.09-.44-1.92-141.54,49.3-294.83,39.11-46.92-3.12-92.89-12.25-92.89-12.25A721,721,0,0,1,69.54,507.6q-4.49-9.78-9-19.57c13.2,4.58,49,18.1,53.05,19.63,46.59,17.44,120.25,29.95,176.81,34.28,125,9.54,232.21-15.76,286.25-31.29a863.93,863.93,0,0,1-270.59,25.46A863,863,0,0,1,58.16,482.79q-4.92-10.73-9.84-21.46c14.39,4.85,54.64,19.53,70.44,25,79.7,27.65,153.51,35,188.32,38.3a914.12,914.12,0,0,0,122.31,3.16,922,922,0,0,0,139.86-16.42c-110.3,16.42-201.84,12.93-265.2,6.35-48.94-5.09-128.16-13.9-223.7-50.94-14.54-5.63-26.92-10.95-36.52-15.25q-5.25-11.42-10.48-22.84c9.24,5.53,21.08,12.19,35.15,19.05,51.57,25.17,95.83,35,136.83,43.83,37.83,8.16,66.12,11.72,99.68,16,30.91,3.89,63.57,7.93,107.43,9.68,0,0,72.73,3,129.65-3.77,11.92-1.41,23.85-3.22,23.85-3.22C572.47,509.24,578.2,508.28,582.93,507.45Z"/><path class="cls-17" d="M583.18,507.24q-42.64,4.29-85.54,5T412,509.81q-42.74-3.18-85.11-10c-28.23-4.48-56.27-10-84.26-15.74h0c-5.84-1.22-11.83-2.59-17.71-4s-11.8-2.85-17.68-4.34q-17.64-4.49-35.13-9.53c-11.66-3.37-23.28-6.87-34.83-10.61-2.89-.9-5.76-1.89-8.64-2.83s-5.78-1.86-8.62-3c-5.69-2.14-11.29-4.48-16.85-6.93Q86.46,435.47,70.35,427q-8.05-4.26-16-8.73c-5.26-3-10.58-6-15.65-9.3a86.64,86.64,0,0,1-14.15-11.46,83.44,83.44,0,0,1-11.29-14.25A93.45,93.45,0,0,1,.55,349.34a93.36,93.36,0,0,0,12.92,33.75,84.32,84.32,0,0,0,11.34,14.14A86.25,86.25,0,0,0,39,408.54c5.07,3.3,10.4,6.22,15.66,9.23s10.61,5.86,16,8.68q16.1,8.46,32.74,15.82c5.55,2.44,11.15,4.75,16.82,6.88,2.83,1.07,5.73,2,8.6,2.92s5.76,1.91,8.65,2.81c11.55,3.71,23.17,7.18,34.82,10.53s23.37,6.48,35.13,9.45c5.88,1.47,11.77,2.92,17.67,4.3s11.77,2.7,17.81,4h-.06c28,5.61,56,11.29,84.21,15.8s56.55,8,85,10.21,57.05,3,85.61,2.61S554.74,509.93,583.18,507.24Z"/><path class="cls-7" d="M863.67,291.36c-32.35.47-67.48-.07-104.67-2.17l7.19,9.33c34.48,1.26,67.17,1.17,97.48.21Z"/><path class="cls-7" d="M751.46,205.39H706.83v65.44c35.47,4.75,69.74,7.94,102.63,9.86Z"/><path class="cls-7" d="M783.07,320.37c28.37-.69,55.34-2.35,80.6-4.64v-7.91c-27.39,1.88-56.81,3-88,3Z"/><path class="cls-7" d="M755.38,310.66q-23.7-.41-48.55-1.79v11q24.81,1,48.55.91Z"/><path class="cls-7" d="M863.67,205.39H815.24V281q24.76,1.37,48.43,1.81Z"/><path class="cls-7" d="M863.67,325.13c-22.56,2.92-46.51,5.3-71.62,6.9l5.78,7.48c23-1.91,45-4.48,65.84-7.48Z"/><polygon class="cls-7" points="863.67 366.84 863.67 343.84 807.11 351.53 818.92 366.84 863.67 366.84"/><path class="cls-7" d="M755.38,356.08c-25.79,1.69-41.74,1.85-41.74,1.85l-6.81,0v8.88h48.55Z"/><path class="cls-7" d="M755.38,289q-23.76-1.41-48.55-3.73V295q24.74,2,48.55,3Z"/><path class="cls-7" d="M755.38,333.73q-23.71.7-48.55.32v9c16.54.09,32.73-.25,48.55-.92Z"/><path class="cls-7" d="M939.79,312.68c-16.14,3.2-33.49,6.28-51.91,9.07v6.49c18.41-3.08,35.77-6.49,51.91-10Z"/><path class="cls-7" d="M939.79,300.24c-16.16,2.11-33.49,4.05-51.91,5.68v7.38c18.39-2,35.74-4.39,51.91-6.9Z"/><path class="cls-7" d="M887.88,366.84h51.91V328c-17.36,4.48-34.82,8.3-51.91,11.52Z"/><path class="cls-7" d="M939.79,240.67H887.88v42.41q26.75.07,51.91-.85Z"/><path class="cls-7" d="M894.36,223.6a24.54,24.54,0,0,0,8.29,5.42,29.7,29.7,0,0,0,21.22,0,24.11,24.11,0,0,0,13.72-13.73,29.56,29.56,0,0,0,0-21.22,24.2,24.2,0,0,0-13.72-13.72,29.84,29.84,0,0,0-21.22,0,24.28,24.28,0,0,0-13.72,13.72,29.7,29.7,0,0,0,0,21.22A24.36,24.36,0,0,0,894.36,223.6Z"/><path class="cls-7" d="M939.79,288.35c-16.16,1-33.5,1.91-51.91,2.47v6.91c18.39-.91,35.74-2.13,51.91-3.52Z"/><path class="cls-7" d="M1070.73,278.17c-11.74,3.71-49,16.49-104.42,28.91v5c53.2-13.09,89.68-26.59,102.8-32.21Z"/><path class="cls-7" d="M1105.39,366.84l-45.2-77.51,7.66-8.11c-.6.26-1.2.56-1.8.83,0,0-39.19,18.29-80.4,32.35q-9.57,3.28-19.34,6.21v46.23h51.89v-33.1l6.24-6.69,19.37,39.79Z"/><path class="cls-7" d="M1073.94,274.75c-13.72,3.34-51.7,13.16-107.63,21.72V302c53.68-9.64,91-20.39,105.94-25.43Z"/><path class="cls-7" d="M1073.78,273.92c-.09-1-40.58,6.95-107.47,12.46v5.26C1033.11,284.52,1073.78,274.91,1073.78,273.92Z"/><path class="cls-7" d="M1106.08,240.67H1047.5l-29.3,32.75V195.7H966.31V281c41.19-2.23,78.62-6.09,111.68-10.58Z"/><rect class="cls-7" x="1116.46" y="240.67" width="51.91" height="126.17"/><path class="cls-7" d="M1122.92,223.6a24.68,24.68,0,0,0,8.3,5.42,29.7,29.7,0,0,0,21.22,0,24,24,0,0,0,13.72-13.73,29.56,29.56,0,0,0,0-21.22,24.13,24.13,0,0,0-13.72-13.72,29.84,29.84,0,0,0-21.22,0,24.2,24.2,0,0,0-13.72,13.72,29.84,29.84,0,0,0,0,21.22A24.63,24.63,0,0,0,1122.92,223.6Z"/><path class="cls-7" d="M1283.69,361.3l-8.76-35.51q-3,1.14-6.58,2.18a24.55,24.55,0,0,1-6.81,1,9.09,9.09,0,0,1-7.09-2.89,11.13,11.13,0,0,1-2.59-7.72v-45h29.52V240.67h-29.52V212.3h-51.68v28.37h-17.29v32.75h17.29v52.82a45.85,45.85,0,0,0,3.35,17.82,37.67,37.67,0,0,0,9.57,13.62,42.69,42.69,0,0,0,15,8.58,58,58,0,0,0,19.6,2.88,98.89,98.89,0,0,0,10.16-.51,88.82,88.82,0,0,0,9.74-1.56,77.42,77.42,0,0,0,8.82-2.48A39.29,39.29,0,0,0,1283.69,361.3Z"/><path class="cls-7" d="M1415.33,265.29a39.93,39.93,0,0,0-11.42-14.7,51.59,51.59,0,0,0-18.23-9.11,88.57,88.57,0,0,0-24.5-3.12,155.84,155.84,0,0,0-30.1,3.17,217.22,217.22,0,0,0-32.17,9.06l11.53,34.6a135.84,135.84,0,0,1,21-6.06,90.54,90.54,0,0,1,17.3-2q9.57,0,14.47,3.64a12.56,12.56,0,0,1,5.14,10.2H1339.5q-24.21,0-36.56,9.86t-12.34,28.66a44.9,44.9,0,0,0,2.83,16.32,33.87,33.87,0,0,0,8.25,12.52,37.1,37.1,0,0,0,13.25,8,52.71,52.71,0,0,0,17.88,2.82q12.24,0,21-4.15a37.59,37.59,0,0,0,14.49-11.76v13.61h51V285.19A47.3,47.3,0,0,0,1415.33,265.29Zm-47,61.19a21.19,21.19,0,0,1-7.8,7.2,20.38,20.38,0,0,1-9.74,2.48c-3.68,0-6.53-1-8.53-3s-3-4.66-3-8.13.94-5.91,2.84-7.6,4.62-2.54,8.24-2.54h18Z"/><path class="cls-7" d="M745.9,401.25a23.16,23.16,0,0,1,16.74-7,25.44,25.44,0,0,1,5.27.56,30.23,30.23,0,0,1,5.18,1.57,29.36,29.36,0,0,1,9.16,5.87l8-9.64a38.3,38.3,0,0,0-5.86-4.24,41.75,41.75,0,0,0-6.76-3.17,46.87,46.87,0,0,0-7.35-2,41,41,0,0,0-7.65-.73,40,40,0,0,0-15,2.76,37.42,37.42,0,0,0-12,7.57,35.48,35.48,0,0,0-8,11.36,34.67,34.67,0,0,0-2.89,14.13A35.48,35.48,0,0,0,735.39,444a36.49,36.49,0,0,0,11.77,7.63,38.23,38.23,0,0,0,14.63,2.78,41.54,41.54,0,0,0,7.45-.68,52.84,52.84,0,0,0,14.42-4.77,40,40,0,0,0,6-3.76V413.11H757v11.2h19.9v14.17a32.54,32.54,0,0,1-4.48,2.09,28.47,28.47,0,0,1-4.93,1.45,23.16,23.16,0,0,1-4.74.5,23.49,23.49,0,0,1-9.29-1.85,23,23,0,0,1-7.5-5.12,24.3,24.3,0,0,1-5-7.71,25.61,25.61,0,0,1,0-18.94A23.54,23.54,0,0,1,745.9,401.25Z"/><path class="cls-7" d="M824.4,441.84a7.45,7.45,0,0,1-2.48.43,4.57,4.57,0,0,1-3.53-1.45,6.69,6.69,0,0,1-1.32-4.6v-57H803.45v58.19a20.27,20.27,0,0,0,1.21,7.28,14.88,14.88,0,0,0,3.26,5.21,13.34,13.34,0,0,0,4.79,3.12,16.11,16.11,0,0,0,5.86,1,19.5,19.5,0,0,0,5-.67,23,23,0,0,0,5.11-2l-1.51-10.69A19,19,0,0,1,824.4,441.84Z"/><path class="cls-7" d="M880.74,407a25.94,25.94,0,0,0-9-5.51,35.19,35.19,0,0,0-23.16,0,26.17,26.17,0,0,0-9,5.51,24.85,24.85,0,0,0-5.8,8.59,31,31,0,0,0,0,22.19,24.52,24.52,0,0,0,5.8,8.6,26.8,26.8,0,0,0,9,5.58,34.36,34.36,0,0,0,23.16,0,26.55,26.55,0,0,0,9-5.58,24.56,24.56,0,0,0,5.76-8.6,30.91,30.91,0,0,0,0-22.19A24.89,24.89,0,0,0,880.74,407Zm-7,26.49a14.79,14.79,0,0,1-3,5.18,13.73,13.73,0,0,1-4.61,3.34,15.28,15.28,0,0,1-11.87,0,13.65,13.65,0,0,1-4.64-3.34,14.79,14.79,0,0,1-3-5.18,19.68,19.68,0,0,1-1.09-6.64,19.38,19.38,0,0,1,1.09-6.61,15.51,15.51,0,0,1,3-5.15,13.57,13.57,0,0,1,4.64-3.36,15.4,15.4,0,0,1,11.87,0,13.65,13.65,0,0,1,4.61,3.36,15.51,15.51,0,0,1,3,5.15,19.38,19.38,0,0,1,1.09,6.61A19.68,19.68,0,0,1,873.72,433.46Z"/><path class="cls-7" d="M949.8,407.08a23,23,0,0,0-8-5.61,26.24,26.24,0,0,0-10.33-2,22.61,22.61,0,0,0-9.38,1.87,19.58,19.58,0,0,0-7.09,5.38c-.42.52-.82,1.05-1.2,1.62V379.18H900.06v74.26h13.71V445c.4.6.82,1.16,1.26,1.7a19.17,19.17,0,0,0,7.12,5.39,23.43,23.43,0,0,0,9.58,1.88A25.87,25.87,0,0,0,942,452a23.45,23.45,0,0,0,7.93-5.51,24,24,0,0,0,5.07-8.52,35.1,35.1,0,0,0,0-22.19A25.3,25.3,0,0,0,949.8,407.08Zm-7.88,26.06a15.31,15.31,0,0,1-3,5.18,14.31,14.31,0,0,1-4.64,3.38,13.87,13.87,0,0,1-5.87,1.23,14.44,14.44,0,0,1-5.93-1.2,13.78,13.78,0,0,1-4.61-3.36,15.14,15.14,0,0,1-3-5.17,19.89,19.89,0,0,1-1.09-6.69,18.94,18.94,0,0,1,1.09-6.52,15.48,15.48,0,0,1,3-5.16,13.7,13.7,0,0,1,4.61-3.38,15.22,15.22,0,0,1,11.8,0,14,14,0,0,1,4.64,3.38,15.72,15.72,0,0,1,3,5.16,18.94,18.94,0,0,1,1.07,6.52A19.58,19.58,0,0,1,941.92,433.14Z"/><path class="cls-7" d="M1010.56,410.42a15.49,15.49,0,0,0-4.33-5.94,19.87,19.87,0,0,0-7-3.73,31.68,31.68,0,0,0-9.44-1.3,49.46,49.46,0,0,0-6.71.42,38.47,38.47,0,0,0-5.87,1.28,47.67,47.67,0,0,0-5.53,2.05,62,62,0,0,0-5.61,2.85l4.76,8.91a37.26,37.26,0,0,1,4.11-2.2,33.65,33.65,0,0,1,4-1.6,26.54,26.54,0,0,1,4-1,24.77,24.77,0,0,1,3.75-.32c3.94,0,6.9.88,8.91,2.66a9.35,9.35,0,0,1,3,7.39v1.41H983.22a30,30,0,0,0-8.68,1.13,17.94,17.94,0,0,0-6.35,3.23,13.77,13.77,0,0,0-3.93,5.05,15.8,15.8,0,0,0-1.35,6.65,16.92,16.92,0,0,0,1.27,6.63,14.86,14.86,0,0,0,3.69,5.25,17.13,17.13,0,0,0,5.87,3.51,22.66,22.66,0,0,0,7.77,1.26,30.17,30.17,0,0,0,6.58-.67,20.11,20.11,0,0,0,5.5-2,16.43,16.43,0,0,0,4.33-3.34c.27-.3.52-.59.75-.9l0,6.36h13.45l-.06-35A21.26,21.26,0,0,0,1010.56,410.42Zm-13.18,27.77a11.28,11.28,0,0,1-3,3.14,14.33,14.33,0,0,1-4.23,2,17.49,17.49,0,0,1-5.18.75,12.88,12.88,0,0,1-3.9-.52,8.55,8.55,0,0,1-2.91-1.51,6.25,6.25,0,0,1-1.82-2.35,7.19,7.19,0,0,1-.63-3.06c0-2.38.79-4.08,2.38-5.14s4.05-1.57,7.38-1.57h13.12l0,4.54A8.58,8.58,0,0,1,997.38,438.19Z"/><path class="cls-7" d="M1046.42,441.84a7.33,7.33,0,0,1-2.46.43,4.59,4.59,0,0,1-3.54-1.45,6.69,6.69,0,0,1-1.32-4.6v-57h-13.6v58.19a20.28,20.28,0,0,0,1.19,7.28,15,15,0,0,0,3.25,5.21,13.46,13.46,0,0,0,4.8,3.12,16.11,16.11,0,0,0,5.86,1,19.44,19.44,0,0,0,5-.67,23,23,0,0,0,5.11-2l-1.5-10.69A19.17,19.17,0,0,1,1046.42,441.84Z"/><path class="cls-7" d="M1136.06,426.14a21.22,21.22,0,0,0,5.58-7.95,28.38,28.38,0,0,0,1.92-10.73,25.65,25.65,0,0,0-1.92-10.19,20.19,20.19,0,0,0-5.58-7.55,25.13,25.13,0,0,0-9-4.7,41.17,41.17,0,0,0-12.11-1.63h-29.51v70.05h14.1V432.77H1115c.75,0,1.48,0,2.2,0l11.92,20.72h16l-15.38-23.34A23.55,23.55,0,0,0,1136.06,426.14ZM1099.58,395H1115a24.06,24.06,0,0,1,6.46.79,13.32,13.32,0,0,1,4.78,2.38,10.38,10.38,0,0,1,3,4,14.49,14.49,0,0,1,1,5.67,15.62,15.62,0,0,1-1,5.8,10.42,10.42,0,0,1-3,4.15,13,13,0,0,1-4.8,2.51,22.81,22.81,0,0,1-6.46.86h-15.41Z"/><path class="cls-7" d="M1200.7,408.06a20.88,20.88,0,0,0-8.31-6.34,32.8,32.8,0,0,0-23.23-.19,25.3,25.3,0,0,0-8.66,5.55,24.92,24.92,0,0,0-5.64,8.6,32,32,0,0,0,0,22.19,24.12,24.12,0,0,0,5.58,8.55,25,25,0,0,0,8.73,5.54,31.48,31.48,0,0,0,11.43,2,33,33,0,0,0,12.9-2.41,27.31,27.31,0,0,0,9.72-6.81l-7.27-7.21a19,19,0,0,1-6.47,4.49,19.74,19.74,0,0,1-7.73,1.53,15.92,15.92,0,0,1-6.33-1.23,14.37,14.37,0,0,1-5-3.48,15.46,15.46,0,0,1-3.2-5.5,20.29,20.29,0,0,1-.59-2.1H1206a44.73,44.73,0,0,0-.76-13.18A24.83,24.83,0,0,0,1200.7,408.06Zm-34.33,14.5a19.51,19.51,0,0,1,.76-3.23,15.12,15.12,0,0,1,2.88-5.22,12.52,12.52,0,0,1,4.49-3.38,14.32,14.32,0,0,1,5.88-1.17,14.86,14.86,0,0,1,5.26.89,11.43,11.43,0,0,1,4.09,2.59,11.58,11.58,0,0,1,2.69,4.07,15.87,15.87,0,0,1,1.07,5.45Z"/><path class="cls-7" d="M1258.86,410.42a15.6,15.6,0,0,0-4.33-5.94,19.87,19.87,0,0,0-7-3.73,31.68,31.68,0,0,0-9.44-1.3,49.46,49.46,0,0,0-6.71.42,38.47,38.47,0,0,0-5.87,1.28,47,47,0,0,0-5.53,2.05,60.67,60.67,0,0,0-5.61,2.85l4.76,8.91a37.26,37.26,0,0,1,4.11-2.2,33.65,33.65,0,0,1,4-1.6,26.54,26.54,0,0,1,4-1,24.77,24.77,0,0,1,3.75-.32c3.94,0,6.9.88,8.9,2.66a9.32,9.32,0,0,1,3,7.39v1.41h-15.4a30,30,0,0,0-8.68,1.13,17.85,17.85,0,0,0-6.35,3.23,13.9,13.9,0,0,0-3.94,5.05,16,16,0,0,0-1.35,6.65,16.92,16.92,0,0,0,1.28,6.63,15.07,15.07,0,0,0,3.67,5.25,17.36,17.36,0,0,0,5.88,3.51,22.76,22.76,0,0,0,7.78,1.26,30.17,30.17,0,0,0,6.58-.67,20.11,20.11,0,0,0,5.5-2,16.43,16.43,0,0,0,4.33-3.34,8.74,8.74,0,0,0,.73-.88l0,6.34h13.46l0-35A21.26,21.26,0,0,0,1258.86,410.42Zm-13.18,27.77a11.74,11.74,0,0,1-3,3.14,14.46,14.46,0,0,1-4.23,2,17.54,17.54,0,0,1-5.18.75,12.88,12.88,0,0,1-3.9-.52,8.55,8.55,0,0,1-2.91-1.51,6.25,6.25,0,0,1-1.82-2.35,7.19,7.19,0,0,1-.63-3.06c0-2.38.79-4.08,2.38-5.14s4-1.57,7.38-1.57h13.12v4.54A8.29,8.29,0,0,1,1245.68,438.19Z"/><path class="cls-7" d="M1294.72,441.84a7.33,7.33,0,0,1-2.46.43,4.59,4.59,0,0,1-3.54-1.45,6.69,6.69,0,0,1-1.32-4.6v-57h-13.6v58.19a20.51,20.51,0,0,0,1.18,7.28,15.17,15.17,0,0,0,3.26,5.21A13.46,13.46,0,0,0,1283,453a16.11,16.11,0,0,0,5.86,1,19.5,19.5,0,0,0,5-.67,23.14,23.14,0,0,0,5.11-2l-1.5-10.69A19.65,19.65,0,0,1,1294.72,441.84Z"/><path class="cls-7" d="M1333.57,442.08a12,12,0,0,1-3.45.54,7.08,7.08,0,0,1-2.3-.35,4.25,4.25,0,0,1-1.72-1.15A5.06,5.06,0,0,1,1325,439a13.09,13.09,0,0,1-.33-3.26V409.41h15.1V400h-15.1V387.44h-13.62V400h-7.5v9.41h7.5v28.66a18.69,18.69,0,0,0,1.25,7.13,13.22,13.22,0,0,0,8.54,7.9,20.55,20.55,0,0,0,6.28.92,23.36,23.36,0,0,0,3.55-.25,25.4,25.4,0,0,0,3.48-.74,27.71,27.71,0,0,0,3.37-1.22,28.62,28.62,0,0,0,3.2-1.67l-3.09-9.72A26.48,26.48,0,0,1,1333.57,442.08Z"/><path class="cls-7" d="M1370,439l-14.87-39h-14.14l22.16,52.53-1.6,3.61a9.79,9.79,0,0,1-3.16,4.12,7.62,7.62,0,0,1-4.44,1.32,9.44,9.44,0,0,1-3.48-.64,15.18,15.18,0,0,1-3.48-2.06l-5.81,9.76a22.77,22.77,0,0,0,6.38,3.63,21.65,21.65,0,0,0,7.22,1.17,19.23,19.23,0,0,0,11.29-3.3,21.31,21.31,0,0,0,7.38-9.95L1397.26,400H1383.6Z"/><path class="cls-7" d="M759,289.19c-1.2-.08-2.42-.14-3.62-.21"/></g></g></svg>