<svg xmlns="http://www.w3.org/2000/svg" xml:space="preserve" viewBox="0 0 652 652"><circle cx="322" cy="321" r="250" fill="#0738cd"/><path fill="#fff" d="M222.3 445.2q-8.55 0-15.9-3.3c-4.7-2.1-9-5.1-12.6-8.8s-6.4-8.1-8.3-13c-2-5-3-10.3-3-15.6v-.3c0-5.5 1-10.8 3-15.8 1.9-4.8 4.8-9.3 8.3-13 3.6-3.8 7.9-6.8 12.6-8.9 5-2.2 10.4-3.3 15.9-3.3 3.7 0 7.1.4 10.1 1.1s5.8 1.7 8.3 3 4.8 2.7 6.9 4.5c2.1 1.7 4.1 3.5 5.9 5.5l-7.7 8.2c-3-3.2-6.4-6-10.2-8.3-3.7-2.3-8.1-3.5-13.5-3.5-3.9 0-7.6.8-11 2.3-3.4 1.6-6.4 3.7-8.9 6.5-2.5 2.7-4.5 5.9-5.9 9.6s-2.1 7.7-2.1 11.9v.3c0 4.2.7 8.2 2.2 11.9s3.5 6.9 6 9.7c5.2 5.7 12.6 8.9 20.4 8.9 5 0 9.5-1.1 13.3-3.3 3.9-2.2 7.4-5.1 10.5-8.3l7.4 7c-3.8 4.4-8.3 8-13.3 10.9-5 2.7-11.1 4.1-18.4 4.1m76.5 0c-5.8 0-11.2-1.1-16.1-3.3-4.8-2.1-9.1-5.1-12.8-8.8-3.6-3.7-6.5-8.1-8.4-12.9-2-5-3-10.3-3-15.7v-.3c0-5.5 1-10.8 3-15.8 1.9-4.8 4.8-9.3 8.4-13 7.6-7.9 18.2-12.3 29.2-12.1q8.7 0 16.2 3.3c4.8 2.1 9.2 5.1 12.9 8.8 3.6 3.7 6.5 8.1 8.4 12.9 2 4.9 3 10.1 3 15.7v.3c0 10.7-4.1 21.1-11.6 28.8-3.7 3.8-8.1 6.8-12.9 8.9-5.2 2.2-10.8 3.3-16.3 3.2m162.2-53v51.9h-11.6v-49.4c0-10.8-8.7-19.5-19.4-19.5s-19.4 8.8-19.3 19.5c0 .2-.1 3-.1 3.5v46h-11.7v-46c0-1.2-.1-3.6-.1-3.7 0-10.7-8.6-19.4-19.3-19.4s-19.3 8.7-19.3 19.4c0 .2-.1 2.8-.1 4v45.7h-11.6v-51.8c0-16.3 13.4-29.6 29.6-29.6 11.8 0 22 4 26.7 14.2 4.6-10.2 14.8-14.2 26.6-14.2 16.2-.1 29.6 13.1 29.6 29.4m24.9-129.4q-5.55 7.95-15.3 12.6l24.6 35.9h-40.3l-20.2-30.2h-7.2v30.2h-35.7V206h52c9.5 0 17.2 1.1 23.3 3.2 6.1 2.2 11 5.1 14.7 8.8q4.8 4.8 7.2 10.8c1.6 4 2.4 8.7 2.4 14.4.1 7.8-1.8 14.3-5.5 19.6m-146.2-54.1L384.6 311h-28.9c-6.8-11.8-19.4-19.1-33.1-19.1-13.6 0-26.3 7.3-33.1 19.1h-28.7l42.3-97 2.3-5.4c11.2-3.3 23-3.4 34.2 0 .1-.1.1.1.1.1m-122-2.7h35.4v105.1h-35.4v-29.7h-32.3v29.8H150V206h35.4v45.1h32.3z"/><path fill="#0738cd" d="M299.1 434.8c-3.9 0-7.8-.8-11.4-2.4-3.4-1.6-6.5-3.8-9.1-6.5-2.6-2.8-4.6-6.1-6-9.6-1.5-3.8-2.2-7.8-2.2-11.9v-.4c0-4.1.7-8.1 2.1-11.7 1.4-3.7 3.3-6.9 5.8-9.6 5.2-5.8 12.7-9.1 20.5-8.9q6.15 0 11.4 2.4c3.5 1.6 6.6 3.8 9.2 6.6s4.6 6 6.1 9.7c1.4 3.7 2.2 7.7 2.2 11.9v.3q0 6.15-2.1 11.7c-1.4 3.6-3.4 6.8-5.9 9.6-2.5 2.7-5.5 4.9-9 6.5-3.6 1.5-7.4 2.3-11.6 2.3m157.2-189v-.3c0-3.4-1.2-5.9-3.6-7.6s-5.7-2.5-9.8-2.5h-15.4V256h15.3c4.2 0 7.6-.9 10-2.7 2.3-1.7 3.5-4.2 3.5-7.5m-133.6-2.7s-8.4 19.6-10.3 24.2c6.8-1.1 13.8-1.1 20.7 0-1.9-4.3-10.4-24.2-10.4-24.2"/><circle cx="322.5" cy="331.5" r="23.5" fill="#fd4b78"/></svg>