<?xml version="1.0" encoding="utf-8"?>
<!-- Generator: Adobe Illustrator 19.2.1, SVG Export Plug-In . SVG Version: 6.00 Build 0)  -->
<svg version="1.1" id="layer" xmlns="http://www.w3.org/2000/svg" xmlns:xlink="http://www.w3.org/1999/xlink" x="0px" y="0px"
	 viewBox="0 0 652 652" style="enable-background:new 0 0 652 652;" xml:space="preserve">
<style type="text/css">
	.st0{fill:#0738CD;}
	.st1{fill:#FFFFFF;}
	.st2{fill:#FD4B78;}
</style>
<circle class="st0" cx="322" cy="321" r="250"/>
<path class="st1" d="M222.3,445.2c-5.7,0-11-1.1-15.9-3.3c-4.7-2.1-9-5.1-12.6-8.8c-3.6-3.7-6.4-8.1-8.3-13c-2-5-3-10.3-3-15.6v-0.3
	c0-5.5,1-10.8,3-15.8c1.9-4.8,4.8-9.3,8.3-13c3.6-3.8,7.9-6.8,12.6-8.9c5-2.2,10.4-3.3,15.9-3.3c3.7,0,7.1,0.4,10.1,1.1
	c3,0.7,5.8,1.7,8.3,3c2.5,1.3,4.8,2.7,6.9,4.5c2.1,1.7,4.1,3.5,5.9,5.5l-7.7,8.2c-3-3.2-6.4-6-10.2-8.3c-3.7-2.3-8.1-3.5-13.5-3.5
	c-3.9,0-7.6,0.8-11,2.3c-3.4,1.6-6.4,3.7-8.9,6.5c-2.5,2.7-4.5,5.9-5.9,9.6c-1.4,3.7-2.1,7.7-2.1,11.9v0.3c0,4.2,0.7,8.2,2.2,11.9
	c1.5,3.7,3.5,6.9,6,9.7c5.2,5.7,12.6,8.9,20.4,8.9c5,0,9.5-1.1,13.3-3.3c3.9-2.2,7.4-5.1,10.5-8.3l7.4,7c-3.8,4.4-8.3,8-13.3,10.9
	C235.7,443.8,229.6,445.2,222.3,445.2z M298.8,445.2c-5.8,0-11.2-1.1-16.1-3.3c-4.8-2.1-9.1-5.1-12.8-8.8c-3.6-3.7-6.5-8.1-8.4-12.9
	c-2-5-3-10.3-3-15.7v-0.3c0-5.5,1-10.8,3-15.8c1.9-4.8,4.8-9.3,8.4-13c7.6-7.9,18.2-12.3,29.2-12.1c5.8,0,11.2,1.1,16.2,3.3
	c4.8,2.1,9.2,5.1,12.9,8.8c3.6,3.7,6.5,8.1,8.4,12.9c2,4.9,3,10.1,3,15.7v0.3c0,10.7-4.1,21.1-11.6,28.8c-3.7,3.8-8.1,6.8-12.9,8.9
	C309.9,444.2,304.3,445.3,298.8,445.2z M461,392.2v51.9h-11.6v-45.7l0-3.7c0-10.8-8.7-19.5-19.4-19.5c-10.7,0-19.4,8.8-19.3,19.5
	c0,0.2-0.1,3-0.1,3.5v46h-11.7v-46c0-1.2-0.1-3.6-0.1-3.7c0-10.7-8.6-19.4-19.3-19.4c0,0,0,0,0,0c-10.7,0-19.3,8.7-19.3,19.4
	c0,0.2-0.1,2.8-0.1,4v45.7h-11.6l0-51.8c0-16.3,13.4-29.6,29.6-29.6c11.8,0,22,4,26.7,14.2c4.6-10.2,14.8-14.2,26.6-14.2
	C447.6,362.7,461,375.9,461,392.2z M485.9,262.8c-3.7,5.3-8.8,9.5-15.3,12.6l24.6,35.9h-40.3l-20.2-30.2h-7.2v30.2h-35.7V206h52
	c9.5,0,17.2,1.1,23.3,3.2c6.1,2.2,11,5.1,14.7,8.8c3.2,3.2,5.6,6.8,7.2,10.8c1.6,4,2.4,8.7,2.4,14.4
	C491.5,251,489.6,257.5,485.9,262.8L485.9,262.8z M339.7,208.7L384.6,311h-28.9c-6.8-11.8-19.4-19.1-33.1-19.1
	c-13.6,0-26.3,7.3-33.1,19.1h-28.7l42.3-97h0l2.3-5.4c11.2-3.3,23-3.4,34.2,0C339.7,208.5,339.7,208.7,339.7,208.7z M217.7,206h35.4
	v105.1h-35.4v-29.7h-32.3v29.8H150V206h35.4v45.1h32.3L217.7,206L217.7,206z"/>
<path class="st0" d="M299.1,434.8c-3.9,0-7.8-0.8-11.4-2.4c-3.4-1.6-6.5-3.8-9.1-6.5c-2.6-2.8-4.6-6.1-6-9.6
	c-1.5-3.8-2.2-7.8-2.2-11.9V404c0-4.1,0.7-8.1,2.1-11.7c1.4-3.7,3.3-6.9,5.8-9.6c5.2-5.8,12.7-9.1,20.5-8.9c4.1,0,7.9,0.8,11.4,2.4
	c3.5,1.6,6.6,3.8,9.2,6.6c2.6,2.8,4.6,6,6.1,9.7c1.4,3.7,2.2,7.7,2.2,11.9v0.3c0,4.1-0.7,8-2.1,11.7c-1.4,3.6-3.4,6.8-5.9,9.6
	c-2.5,2.7-5.5,4.9-9,6.5C307.1,434,303.3,434.8,299.1,434.8z M456.3,245.8v-0.3c0-3.4-1.2-5.9-3.6-7.6c-2.4-1.7-5.7-2.5-9.8-2.5
	h-15.4V256h15.3c4.2,0,7.6-0.9,10-2.7C455.1,251.6,456.3,249.1,456.3,245.8z M322.7,243.1c0,0-8.4,19.6-10.3,24.2
	c6.8-1.1,13.8-1.1,20.7,0C331.2,263,322.7,243.1,322.7,243.1L322.7,243.1z"/>
<circle class="st2" cx="322.5" cy="331.5" r="23.5"/>
</svg>
