<svg xmlns="http://www.w3.org/2000/svg" xmlns:xlink="http://www.w3.org/1999/xlink" viewBox="0 0 1438.28 579.92"><defs><style>.cls-1{fill:url(#linear-gradient);}.cls-2,.cls-3,.cls-4,.cls-5,.cls-6,.cls-8,.cls-9{stroke:#fefbd9;}.cls-13,.cls-14,.cls-2,.cls-3,.cls-4,.cls-5,.cls-6,.cls-8,.cls-9{stroke-miterlimit:10;}.cls-14,.cls-2,.cls-3,.cls-4,.cls-5,.cls-6{stroke-width:0.75px;}.cls-2{fill:url(#linear-gradient-2);}.cls-3{fill:url(#linear-gradient-3);}.cls-4{fill:url(#linear-gradient-4);}.cls-5{fill:url(#linear-gradient-5);}.cls-6{fill:url(#linear-gradient-6);}.cls-7{fill:#fefbda;}.cls-14,.cls-18,.cls-8,.cls-9{fill:none;}.cls-8{stroke-width:0.25px;}.cls-9{stroke-width:0.5px;}.cls-10{fill:url(#linear-gradient-7);}.cls-11{fill:url(#linear-gradient-8);}.cls-12,.cls-13,.cls-14{font-size:157.17px;font-family:Poppins-Black, Poppins;font-weight:800;}.cls-12{fill:#bf1e2d;}.cls-13{fill:#0d5e4f;}.cls-13,.cls-14{stroke:#fff;}.cls-15{fill:#fff;}.cls-16{fill:url(#linear-gradient-9);}.cls-17{fill:#0a5e50;}</style><linearGradient id="linear-gradient" x1="32.11" y1="283" x2="600.79" y2="313.84" gradientUnits="userSpaceOnUse"><stop offset="0" stop-color="#0d4036"/><stop offset="0.03" stop-color="#0f453a"/><stop offset="0.07" stop-color="#145447"/><stop offset="0.12" stop-color="#1c6c5d"/><stop offset="0.16" stop-color="#278e7a"/><stop offset="0.17" stop-color="#29937f"/><stop offset="0.77" stop-color="#1e564c"/><stop offset="0.77" stop-color="#216559"/><stop offset="0.78" stop-color="#24796a"/><stop offset="0.8" stop-color="#278876"/><stop offset="0.81" stop-color="#29907d"/><stop offset="0.84" stop-color="#29937f"/><stop offset="0.87" stop-color="#278e7b"/><stop offset="0.91" stop-color="#23806e"/><stop offset="0.95" stop-color="#1b6859"/><stop offset="0.99" stop-color="#10483d"/><stop offset="1" stop-color="#0d4036"/></linearGradient><linearGradient id="linear-gradient-2" x1="395.52" y1="79.64" x2="345.44" y2="201.53" gradientUnits="userSpaceOnUse"><stop offset="0" stop-color="#148f77"/><stop offset="0.02" stop-color="#148d76"/><stop offset="0.4" stop-color="#107360"/><stop offset="0.73" stop-color="#0e6454"/><stop offset="1" stop-color="#0d5e4f"/></linearGradient><linearGradient id="linear-gradient-3" x1="564.59" y1="446.24" x2="275.74" y2="125.31" gradientUnits="userSpaceOnUse"><stop offset="0.22" stop-color="#145044"/><stop offset="0.38" stop-color="#14574a"/><stop offset="0.53" stop-color="#136353"/><stop offset="0.6" stop-color="#136857"/><stop offset="0.69" stop-color="#147864"/><stop offset="0.78" stop-color="#159077"/><stop offset="0.86" stop-color="#19a080"/><stop offset="0.99" stop-color="#20b78d"/></linearGradient><linearGradient id="linear-gradient-4" x1="111" y1="488.24" x2="339.35" y2="72.25" gradientUnits="userSpaceOnUse"><stop offset="0.38" stop-color="#0c4a3e"/><stop offset="0.47" stop-color="#0e5043"/><stop offset="0.59" stop-color="#156051"/><stop offset="0.72" stop-color="#207a68"/><stop offset="0.73" stop-color="#217c6a"/><stop offset="0.77" stop-color="#228975"/><stop offset="0.84" stop-color="#239d86"/><stop offset="0.89" stop-color="#24a48c"/></linearGradient><linearGradient id="linear-gradient-5" x1="598.1" y1="422.38" x2="332.45" y2="127.23" xlink:href="#linear-gradient-3"/><linearGradient id="linear-gradient-6" x1="289.43" y1="403.77" x2="38.44" y2="124.92" xlink:href="#linear-gradient-3"/><linearGradient id="linear-gradient-7" x1="163.11" y1="467.8" x2="163.2" y2="467.28" gradientUnits="userSpaceOnUse"><stop offset="0.16" stop-color="#0d5e4f"/><stop offset="0.38" stop-color="#106253"/><stop offset="0.62" stop-color="#17705f"/><stop offset="0.87" stop-color="#248573"/><stop offset="1" stop-color="#2c9480"/></linearGradient><linearGradient id="linear-gradient-8" x1="13.55" y1="481.35" x2="583.18" y2="481.35" gradientUnits="userSpaceOnUse"><stop offset="0" stop-color="#0d4036"/><stop offset="0.03" stop-color="#0f453a"/><stop offset="0.07" stop-color="#145447"/><stop offset="0.12" stop-color="#1c6c5d"/><stop offset="0.16" stop-color="#278e7a"/><stop offset="0.17" stop-color="#29937f"/><stop offset="0.81" stop-color="#1e564c"/><stop offset="0.84" stop-color="#216559"/><stop offset="0.94" stop-color="#29937f"/><stop offset="0.96" stop-color="#29927e" stop-opacity="0.99"/><stop offset="0.97" stop-color="#278e7b" stop-opacity="0.94"/><stop offset="0.98" stop-color="#258774" stop-opacity="0.87"/><stop offset="0.99" stop-color="#227d6c" stop-opacity="0.76"/><stop offset="0.99" stop-color="#1d7060" stop-opacity="0.62"/><stop offset="0.99" stop-color="#186052" stop-opacity="0.45"/><stop offset="1" stop-color="#114d42" stop-opacity="0.24"/><stop offset="1" stop-color="#0d4036" stop-opacity="0.1"/></linearGradient><linearGradient id="linear-gradient-9" x1="31.86" y1="495.51" x2="583.18" y2="495.51" gradientUnits="userSpaceOnUse"><stop offset="0" stop-color="#0b3d34"/><stop offset="0.46" stop-color="#fff"/><stop offset="0.92" stop-color="#0a5e50"/><stop offset="0.98" stop-color="#343637"/><stop offset="0.99" stop-color="#323939"/><stop offset="0.99" stop-color="#2a4441"/><stop offset="1" stop-color="#1e564d"/><stop offset="1" stop-color="#176154"/></linearGradient></defs><g id="Layer_2" data-name="Layer 2"><g id="Layer_1-2" data-name="Layer 1"><path class="cls-1" d="M629.29,118.5c-127.91,19.55-220.67,31.79-291.71,40.23,0,0-114.72,13.63-204.7,53A342.48,342.48,0,0,0,68.43,249a308.18,308.18,0,0,0-44.49,40.62C9.16,306,6,313,4.89,315.52c-9.29,21.86-3.21,44,.79,55l13.26,24.43A262,262,0,0,0,51.05,419.2a268,268,0,0,0,92.29,36.92L427.5,487.2l135.71,21.49,7.72-42.54a1157.34,1157.34,0,0,0-449.47-18.53l-10.06-4.57c10.68-3.58,26.23-8.38,45.25-12.8,47.34-11,99.58-15.76,192.36-7.58a1449.94,1449.94,0,0,1,222.48,37.48q3.19-19.2,6.4-38.4a1415.07,1415.07,0,0,0-234-32.37c-91.06-4.81-141,1.68-189.76,19.46A370.68,370.68,0,0,0,94,437.11l-9.6-2.29a370.31,370.31,0,0,1,74.77-36.56c43.61-15.51,91.07-23,184.68-18.29a1386.5,1386.5,0,0,1,235.7,32.56L587,370.3C483.2,353.22,397.78,348.68,336.76,348c-62.8-.71-97,2.71-133,11.86-62.31,15.84-108.93,43.49-138.07,64l-5.94-4.11a339,339,0,0,1,82.75-53.92c37.9-17.36,86.85-31.06,212.54-28.36A1639.79,1639.79,0,0,1,588.62,359.4q3.43-24.45,6.86-48.91a1165.08,1165.08,0,0,0-237.7-16.91c-77.81,2.53-133.59,4.9-198.58,34.74-54.14,24.85-91.79,58.24-114.54,81.82l-6.85-5c20.74-25,56-61,108.79-87.31,23.53-11.73,72.17-32.32,204.52-34.24A1352.15,1352.15,0,0,1,598.26,302.9l5.25-40.53c-95.77-12.33-212.77-18-334.86-1.25C202.53,270.17,151,283.57,99.82,317a342.42,342.42,0,0,0-80.76,74l-5.48-8.83c17.94-24.3,50.16-61.58,100.87-90.82,31.21-18,64.46-30.07,109.4-39,143.43-28.5,337.4-11.26,384-6.78q4.35-28.6,8.68-57.22c-246.13,4.48-427,37.66-485.1,66.23-54.88,27-89.83,64.7-89.84,64.7A276.13,276.13,0,0,0,6.87,365.8l-4-13.1a309.83,309.83,0,0,1,71-79.54C137.5,223.27,204.7,213.08,398.3,194c89.39-8.8,164.79-15.45,220.64-20.16Z"/><g id="building"><rect class="cls-2" x="254.18" y="0.38" width="131.78" height="525.75"/><path class="cls-3" d="M440.38,520.72l65.05-10.35L505,60.05,494.24,49.71a28.58,28.58,0,0,0-11.57-4.23l-42.05-2.2L343.88,81.45V521Z"/><path class="cls-4" d="M201.59,524.38l-64.65-21.09V63.7l10.79-10.33a28.44,28.44,0,0,1,11.57-4.23l42-2.2,96.74,38.17V524.69Z"/></g><path class="cls-5" d="M439.51,46.94h61.25a4.67,4.67,0,0,1,4.67,4.67V515.79a0,0,0,0,1,0,0H439.51a0,0,0,0,1,0,0V46.94A0,0,0,0,1,439.51,46.94Z"/><path class="cls-6" d="M143.19,48h58.26a0,0,0,0,1,0,0V492.41a0,0,0,0,1,0,0H136.94a0,0,0,0,1,0,0V54.23A6.25,6.25,0,0,1,143.19,48Z"/><g id="whites"><rect class="cls-7" x="349.93" y="26.69" width="15.72" height="15.72"/><rect class="cls-7" x="280.78" y="26.69" width="15.72" height="15.72"/><rect class="cls-7" x="307.19" y="113.28" width="31.43" height="15.72"/><rect class="cls-7" x="306.14" y="158.33" width="31.43" height="15.72"/><rect class="cls-7" x="306.14" y="199.2" width="31.43" height="15.72"/><rect class="cls-7" x="307.19" y="243.2" width="31.43" height="15.72"/><rect class="cls-7" x="307.19" y="328.07" width="31.43" height="15.72"/><rect class="cls-7" x="307.19" y="380.46" width="31.43" height="15.72"/><rect class="cls-7" x="307.19" y="287.21" width="31.43" height="15.72"/><rect class="cls-7" x="307.19" y="425.52" width="31.43" height="15.72"/><rect class="cls-7" x="307.19" y="466.38" width="31.43" height="15.72"/><line class="cls-8" x1="439.51" y1="46.29" x2="439.51" y2="522.56"/><path class="cls-7" d="M473.83,88.1a59.87,59.87,0,0,1,6.18.62v9.81l-29,.73.15-12.4Z"/><path class="cls-7" d="M504,99.86l-.31,5.44a183.2,183.2,0,0,0-18.41-6.12V89.85a31.8,31.8,0,0,1,11.3,5.4Z"/><path class="cls-7" d="M473.83,107.12a59.87,59.87,0,0,1,6.18.62v9.8l-29,.73.15-12.39Z"/><path class="cls-7" d="M504,118.87l-.31,5.44a183.2,183.2,0,0,0-18.41-6.12v-9.33a32,32,0,0,1,11.3,5.41Z"/><path class="cls-7" d="M473.83,128.51a54.8,54.8,0,0,1,6.18.62v9.8l-29,.73.15-12.39Z"/><path class="cls-7" d="M504,140.26l-.31,5.44a183.2,183.2,0,0,0-18.41-6.12v-9.33a32,32,0,0,1,11.3,5.41Z"/><path class="cls-7" d="M473.83,147.54a59.87,59.87,0,0,1,6.18.62V158l-29,.73.15-12.4Z"/><path class="cls-7" d="M504,159.29l-.31,5.45a183.2,183.2,0,0,0-18.41-6.12v-9.34a32,32,0,0,1,11.3,5.41Z"/><path class="cls-7" d="M473.83,165.42A59.87,59.87,0,0,1,480,166v9.81l-29,.72.15-12.39Z"/><path class="cls-7" d="M504,177.17l-.31,5.45a183.2,183.2,0,0,0-18.41-6.12v-9.34a32,32,0,0,1,11.3,5.41Z"/><path class="cls-7" d="M473.83,181.39A54.8,54.8,0,0,1,480,182v9.8l-29,.73.15-12.39Z"/><path class="cls-7" d="M504,193.14l-.31,5.44a183.2,183.2,0,0,0-18.41-6.12v-9.33a32,32,0,0,1,11.3,5.41Z"/><path class="cls-7" d="M473.83,202.46a59.87,59.87,0,0,1,6.18.62v9.8l-29,.73.15-12.39Z"/><path class="cls-7" d="M504,214.21l-.31,5.45a185,185,0,0,0-18.41-6.13V204.2a32,32,0,0,1,11.3,5.41Z"/><path class="cls-7" d="M473.83,221.49a59.87,59.87,0,0,1,6.18.62v9.81l-29,.73.15-12.4Z"/><path class="cls-7" d="M504,233.24l-.31,5.45a183.2,183.2,0,0,0-18.41-6.12v-9.33a31.8,31.8,0,0,1,11.3,5.4Z"/><path class="cls-7" d="M473.83,241.33A54.8,54.8,0,0,1,480,242v9.81l-29,.72.15-12.39Z"/><path class="cls-7" d="M504,253.08l-.31,5.45a184,184,0,0,0-18.41-6.13v-9.33a32,32,0,0,1,11.3,5.41Z"/><path class="cls-7" d="M473.83,264.05a54.8,54.8,0,0,1,6.18.62v9.81l-29,.73.15-12.4Z"/><path class="cls-7" d="M504,275.8l-.31,5.45a183.2,183.2,0,0,0-18.41-6.12v-9.34a32,32,0,0,1,11.3,5.41Z"/><path class="cls-7" d="M473.83,283.07a54.8,54.8,0,0,1,6.18.62v9.8l-29,.73.15-12.39Z"/><path class="cls-7" d="M504,294.82l-.31,5.44a183.2,183.2,0,0,0-18.41-6.12v-9.33a32,32,0,0,1,11.3,5.41Z"/><path class="cls-7" d="M473.83,304.46a59.87,59.87,0,0,1,6.18.62v9.8l-29,.73.15-12.39Z"/><path class="cls-7" d="M504,316.21l-.31,5.44a183.2,183.2,0,0,0-18.41-6.12V306.2a32,32,0,0,1,11.3,5.41Z"/><path class="cls-7" d="M473.83,323.49a54.8,54.8,0,0,1,6.18.62v9.81l-29,.72.15-12.39Z"/><path class="cls-7" d="M504,335.24l-.31,5.45a183.2,183.2,0,0,0-18.41-6.12v-9.34a32,32,0,0,1,11.3,5.41Z"/><path class="cls-7" d="M473.83,341.37A54.8,54.8,0,0,1,480,342v9.81l-29,.72.15-12.39Z"/><path class="cls-7" d="M504,353.12l-.31,5.45a183.2,183.2,0,0,0-18.41-6.12v-9.34a32,32,0,0,1,11.3,5.41Z"/><path class="cls-7" d="M473.83,359.43a54.8,54.8,0,0,1,6.18.62v9.81l-29,.72.15-12.39Z"/><path class="cls-7" d="M504,371.18l-.31,5.45a183.2,183.2,0,0,0-18.41-6.12v-9.34a32,32,0,0,1,11.3,5.41Z"/><path class="cls-7" d="M473.83,378.41A54.8,54.8,0,0,1,480,379v9.8l-29,.73.15-12.39Z"/><path class="cls-7" d="M504,390.16l-.31,5.44a183.2,183.2,0,0,0-18.41-6.12v-9.33a32,32,0,0,1,11.3,5.41Z"/><path class="cls-7" d="M473.83,397.44a59.87,59.87,0,0,1,6.18.62v9.81l-29,.73.15-12.4Z"/><path class="cls-7" d="M504,409.19l-.31,5.45a183.2,183.2,0,0,0-18.41-6.12v-9.34a32,32,0,0,1,11.3,5.41Z"/><path class="cls-7" d="M473.83,417.28a59.87,59.87,0,0,1,6.18.62v9.8l-29,.73.15-12.39Z"/><path class="cls-7" d="M504,429l-.31,5.44a183.2,183.2,0,0,0-18.41-6.12V419a32,32,0,0,1,11.3,5.41Z"/><path class="cls-7" d="M473.83,439.65a54.8,54.8,0,0,1,6.18.62v9.81l-29,.72.15-12.39Z"/><path class="cls-7" d="M504,451.4l-.31,5.45a183.2,183.2,0,0,0-18.41-6.12v-9.34a32,32,0,0,1,11.3,5.41Z"/><path class="cls-7" d="M473.83,458.66a59.87,59.87,0,0,1,6.18.62v9.81l-29,.73.15-12.4Z"/><path class="cls-7" d="M504,470.42l-.31,5.44a183.2,183.2,0,0,0-18.41-6.12v-9.33a32.15,32.15,0,0,1,11.3,5.4Z"/><path class="cls-7" d="M473.83,70.18a59.87,59.87,0,0,1,6.18.62v9.81l-29,.73L451.19,69Z"/><path class="cls-7" d="M504,81.94l-.31,5.44a183.2,183.2,0,0,0-18.41-6.12V71.93a32.15,32.15,0,0,1,11.3,5.4Z"/><polygon class="cls-7" points="347.76 103.86 366.86 99.3 366.86 113.16 347.51 117.06 347.76 103.86"/><polygon class="cls-7" points="396.03 92.33 396.03 107.27 373.91 111.73 373.91 97.62 396.03 92.33"/><polygon class="cls-7" points="347.76 124.86 366.86 120.3 366.86 134.16 347.51 138.06 347.76 124.86"/><polygon class="cls-7" points="396.03 113.33 396.03 128.26 373.91 132.74 373.91 118.62 396.03 113.33"/><polygon class="cls-7" points="347.76 145.1 366.86 140.54 366.86 154.4 347.51 158.31 347.76 145.1"/><polygon class="cls-7" points="396.03 133.57 396.03 148.5 373.91 152.98 373.91 138.86 396.03 133.57"/><polygon class="cls-7" points="347.76 167.69 366.86 163.13 366.86 177 347.51 180.91 347.76 167.69"/><polygon class="cls-7" points="396.03 156.18 396.03 171.11 373.91 175.57 373.91 161.46 396.03 156.18"/><polygon class="cls-7" points="347.76 188.71 366.86 184.15 366.86 198 347.51 201.91 347.76 188.71"/><polygon class="cls-7" points="396.03 177.18 396.03 192.12 373.91 196.57 373.91 182.46 396.03 177.18"/><polygon class="cls-7" points="347.76 209.06 366.86 204.5 366.86 218.37 347.51 222.26 347.76 209.06"/><polygon class="cls-7" points="396.03 197.54 396.03 212.48 373.91 216.94 373.91 202.81 396.03 197.54"/><polygon class="cls-7" points="347.76 231.67 366.86 227.11 366.86 240.97 347.51 244.87 347.76 231.67"/><polygon class="cls-7" points="396.03 220.13 396.03 235.07 373.91 239.54 373.91 225.42 396.03 220.13"/><polygon class="cls-7" points="347.76 252.67 366.86 248.11 366.86 261.96 347.51 265.87 347.76 252.67"/><polygon class="cls-7" points="396.03 241.15 396.03 256.07 373.91 260.54 373.91 246.43 396.03 241.15"/><polygon class="cls-7" points="347.76 272.91 366.86 268.35 366.86 282.2 347.51 286.11 347.76 272.91"/><polygon class="cls-7" points="396.03 261.38 396.03 276.31 373.91 280.77 373.91 266.67 396.03 261.38"/><polygon class="cls-7" points="347.76 295.5 366.86 290.94 366.86 304.81 347.51 308.7 347.76 295.5"/><polygon class="cls-7" points="396.03 283.99 396.03 298.92 373.91 303.38 373.91 289.26 396.03 283.99"/><polygon class="cls-7" points="347.76 316.5 366.86 311.94 366.86 325.81 347.51 329.7 347.76 316.5"/><polygon class="cls-7" points="396.03 304.99 396.03 319.92 373.91 324.38 373.91 310.26 396.03 304.99"/><polygon class="cls-7" points="347.76 339.08 366.86 334.52 366.86 348.38 347.51 352.29 347.76 339.08"/><polygon class="cls-7" points="396.03 327.56 396.03 342.5 373.91 346.95 373.91 332.85 396.03 327.56"/><polygon class="cls-7" points="347.76 361.69 366.86 357.13 366.86 370.99 347.51 374.88 347.76 361.69"/><polygon class="cls-7" points="396.03 350.17 396.03 365.1 373.91 369.56 373.91 355.44 396.03 350.17"/><polygon class="cls-7" points="347.76 382.69 366.86 378.13 366.86 391.99 347.51 395.88 347.76 382.69"/><polygon class="cls-7" points="396.03 371.17 396.03 386.1 373.91 390.56 373.91 376.44 396.03 371.17"/><polygon class="cls-7" points="347.76 402.19 366.86 397.63 366.86 411.5 347.51 415.39 347.76 402.19"/><polygon class="cls-7" points="396.03 390.67 396.03 405.61 373.91 410.06 373.91 395.94 396.03 390.67"/><polygon class="cls-7" points="347.76 424.8 366.86 420.24 366.86 434.1 347.51 438 347.76 424.8"/><polygon class="cls-7" points="396.03 413.26 396.03 428.2 373.91 432.67 373.91 418.55 396.03 413.26"/><polygon class="cls-7" points="347.76 445.8 366.86 441.24 366.86 455.1 347.51 459 347.76 445.8"/><polygon class="cls-7" points="396.03 434.26 396.03 449.2 373.91 453.67 373.91 439.55 396.03 434.26"/><polygon class="cls-7" points="347.76 466.16 366.86 461.6 366.86 475.45 347.51 479.36 347.76 466.16"/><polygon class="cls-7" points="396.03 454.63 396.03 469.56 373.91 474.02 373.91 459.92 396.03 454.63"/><g id="whites_2" data-name="whites 2"><line class="cls-9" x1="201.45" y1="49.8" x2="201.45" y2="521.3"/><path class="cls-7" d="M147.74,92.94a32.15,32.15,0,0,1,11.46-5.45v9.34C152,98.54,140.63,103,140.63,103l-.3-5.45Z"/><path class="cls-7" d="M193.29,97l-26.48-.66V86.07c1.24-.13,2.47-.23,3.69-.28l22.64-1.24Z"/><path class="cls-7" d="M146.7,112a32.87,32.87,0,0,1,12.5-5.72v9.37c-7.09,1.49-19.61,6.39-19.61,6.39l-.31-5.44Z"/><path class="cls-7" d="M192.24,116l-25.43-.64V105q1.33-.12,2.64-.18l22.64-1.24Z"/><path class="cls-7" d="M146.7,133.35a32.87,32.87,0,0,1,12.5-5.72V137c-7.09,1.49-19.61,6.39-19.61,6.39l-.31-5.44Z"/><path class="cls-7" d="M192.24,137.35l-25.43-.64V126.39c.89-.09,1.77-.15,2.64-.19L192.09,125Z"/><path class="cls-7" d="M146.7,152.38a32.87,32.87,0,0,1,12.5-5.72V156c-7.09,1.49-19.61,6.39-19.61,6.39l-.31-5.45Z"/><path class="cls-7" d="M192.24,156.38l-25.43-.63V145.41q1.33-.12,2.64-.18L192.09,144Z"/><path class="cls-7" d="M146.7,170.26a32.87,32.87,0,0,1,12.5-5.72v9.38c-7.09,1.49-19.61,6.39-19.61,6.39l-.31-5.45Z"/><path class="cls-7" d="M192.24,174.26l-25.43-.63V163.29q1.33-.12,2.64-.18l22.64-1.24Z"/><path class="cls-7" d="M146.7,186.23a32.87,32.87,0,0,1,12.5-5.72v9.37c-7.09,1.49-19.61,6.39-19.61,6.39l-.31-5.44Z"/><path class="cls-7" d="M192.24,190.23l-25.43-.64V179.27c.89-.09,1.77-.15,2.64-.19l22.64-1.24Z"/><path class="cls-7" d="M146.7,207.3a32.87,32.87,0,0,1,12.5-5.72V211c-7.09,1.49-19.61,6.39-19.61,6.39l-.31-5.44Z"/><path class="cls-7" d="M192.24,211.3l-25.43-.64V200.33q1.33-.12,2.64-.18l22.64-1.24Z"/><path class="cls-7" d="M146.7,226.33a32.87,32.87,0,0,1,12.5-5.72V230c-7.09,1.49-19.61,6.39-19.61,6.39l-.31-5.45Z"/><path class="cls-7" d="M192.24,230.34l-25.43-.64V219.37c.89-.09,1.77-.15,2.64-.19l22.64-1.24Z"/><path class="cls-7" d="M146.7,246.17a32.87,32.87,0,0,1,12.5-5.72v9.37c-7.09,1.49-19.61,6.39-19.61,6.39l-.31-5.44Z"/><path class="cls-7" d="M192.24,250.17l-25.43-.64V239.21c.89-.09,1.77-.15,2.64-.19l22.64-1.24Z"/><path class="cls-7" d="M147.74,268.89a32.15,32.15,0,0,1,11.46-5.45v9.34c-7.21,1.71-18.57,6.16-18.57,6.16l-.3-5.45Z"/><path class="cls-7" d="M193.29,272.9l-26.48-.66V262c1.24-.14,2.47-.23,3.69-.29l22.64-1.24Z"/><path class="cls-7" d="M146.7,287.9a33,33,0,0,1,12.5-5.71v9.37c-7.09,1.49-19.61,6.39-19.61,6.39l-.31-5.44Z"/><path class="cls-7" d="M192.24,291.91l-25.43-.64V280.94c.89-.09,1.77-.15,2.64-.19l22.64-1.23Z"/><path class="cls-7" d="M146.7,309.3a32.87,32.87,0,0,1,12.5-5.72V313c-7.09,1.49-19.61,6.39-19.61,6.39l-.31-5.44Z"/><path class="cls-7" d="M192.24,313.3l-25.43-.64V302.33q1.33-.12,2.64-.18l22.64-1.24Z"/><path class="cls-7" d="M146.7,328.33a32.87,32.87,0,0,1,12.5-5.72V332c-7.09,1.49-19.61,6.39-19.61,6.39l-.31-5.45Z"/><path class="cls-7" d="M192.24,332.33l-25.43-.63V321.37c.89-.09,1.77-.15,2.64-.19l22.64-1.24Z"/><path class="cls-7" d="M147.74,346.21a32.15,32.15,0,0,1,11.46-5.45v9.34c-7.21,1.71-18.57,6.16-18.57,6.16l-.3-5.45Z"/><path class="cls-7" d="M193.29,350.21l-26.48-.65V339.35c1.24-.14,2.47-.23,3.69-.29l22.64-1.24Z"/><path class="cls-7" d="M146.7,364.27a32.87,32.87,0,0,1,12.5-5.72v9.38c-7.09,1.49-19.61,6.39-19.61,6.39l-.31-5.45Z"/><path class="cls-7" d="M192.24,368.27l-25.43-.63V357.31c.89-.09,1.77-.15,2.64-.19l22.64-1.24Z"/><path class="cls-7" d="M146.7,383.25a32.87,32.87,0,0,1,12.5-5.72v9.37c-7.09,1.49-19.61,6.39-19.61,6.39l-.31-5.44Z"/><path class="cls-7" d="M192.24,387.25l-25.43-.64V376.29c.89-.09,1.77-.15,2.64-.19l22.64-1.24Z"/><path class="cls-7" d="M146.7,402.28a32.87,32.87,0,0,1,12.5-5.72v9.38c-7.09,1.49-19.61,6.39-19.61,6.39l-.31-5.45Z"/><path class="cls-7" d="M192.24,406.28l-25.43-.63V395.31q1.33-.12,2.64-.18l22.64-1.24Z"/><path class="cls-7" d="M146.7,422.12a32.87,32.87,0,0,1,12.5-5.72v9.37c-7.09,1.49-19.61,6.39-19.61,6.39l-.31-5.44Z"/><path class="cls-7" d="M192.24,426.12l-25.43-.64V415.15q1.33-.12,2.64-.18l22.64-1.24Z"/><path class="cls-7" d="M146.7,444.49a32.87,32.87,0,0,1,12.5-5.72v9.38c-7.09,1.49-19.61,6.39-19.61,6.39l-.31-5.45Z"/><path class="cls-7" d="M192.24,448.49l-25.43-.63V437.53c.89-.09,1.77-.15,2.64-.19l22.64-1.24Z"/><path class="cls-7" d="M146.7,463.5a32.85,32.85,0,0,1,12.5-5.71v9.37c-7.09,1.49-19.61,6.39-19.61,6.39l-.31-5.45Z"/><path class="cls-7" d="M192.24,467.51l-25.43-.64V456.54c.89-.09,1.77-.15,2.64-.19l22.64-1.24Z"/><path class="cls-7" d="M146.7,75a32.85,32.85,0,0,1,12.5-5.71v9.37c-7.09,1.49-19.61,6.39-19.61,6.39l-.31-5.44Z"/><path class="cls-7" d="M192.24,79l-25.43-.64V68.06c.89-.09,1.77-.15,2.64-.19l22.64-1.24Z"/><polygon class="cls-7" points="246.2 90.03 264.69 94.44 264.69 108.69 246.2 104.95 246.2 90.03"/><polygon class="cls-7" points="294.73 114.75 269.86 109.73 269.86 95.68 294.47 101.55 294.73 114.75"/><polygon class="cls-7" points="247.25 111.03 264.69 115.19 264.69 129.48 247.25 125.95 247.25 111.03"/><polygon class="cls-7" points="295.77 135.75 269.86 130.53 269.86 116.43 295.52 122.55 295.77 135.75"/><polygon class="cls-7" points="247.25 131.26 264.69 135.43 264.69 149.72 247.25 146.19 247.25 131.26"/><polygon class="cls-7" points="295.77 156 269.86 150.76 269.86 136.67 295.52 142.79 295.77 156"/><polygon class="cls-7" points="247.25 153.87 264.69 158.03 264.69 172.31 247.25 168.8 247.25 153.87"/><polygon class="cls-7" points="295.77 178.6 269.86 173.37 269.86 159.26 295.52 165.38 295.77 178.6"/><polygon class="cls-7" points="247.25 174.87 264.69 179.04 264.69 193.32 247.25 189.81 247.25 174.87"/><polygon class="cls-7" points="295.77 199.6 269.86 194.37 269.86 180.26 295.52 186.4 295.77 199.6"/><polygon class="cls-7" points="247.25 195.23 264.69 199.4 264.69 213.69 247.25 210.17 247.25 195.23"/><polygon class="cls-7" points="295.77 219.96 269.86 214.73 269.86 200.63 295.52 206.75 295.77 219.96"/><polygon class="cls-7" points="247.25 217.82 264.69 222 264.69 236.29 247.25 232.76 247.25 217.82"/><polygon class="cls-7" points="295.77 242.56 269.86 237.32 269.86 223.23 295.52 229.36 295.77 242.56"/><polygon class="cls-7" points="248.3 238.82 264.69 242.74 264.69 257.07 248.3 253.76 248.3 238.82"/><polygon class="cls-7" points="296.82 263.56 269.86 258.12 269.86 243.98 296.57 250.36 296.82 263.56"/><polygon class="cls-7" points="247.25 259.06 264.69 263.24 264.69 277.52 247.25 274 247.25 259.06"/><polygon class="cls-7" points="295.77 283.8 269.86 278.56 269.86 264.46 295.52 270.6 295.77 283.8"/><polygon class="cls-7" points="247.25 281.68 264.69 285.83 264.69 300.13 247.25 296.61 247.25 281.68"/><polygon class="cls-7" points="295.77 306.39 269.86 301.17 269.86 287.07 295.52 293.19 295.77 306.39"/><polygon class="cls-7" points="248.3 302.68 264.69 306.58 264.69 320.92 248.3 317.61 248.3 302.68"/><polygon class="cls-7" points="296.82 327.39 269.86 321.95 269.86 307.82 296.57 314.19 296.82 327.39"/><polygon class="cls-7" points="247.25 325.25 264.69 329.42 264.69 343.7 247.25 340.19 247.25 325.25"/><polygon class="cls-7" points="295.77 349.98 269.86 344.75 269.86 330.66 295.52 336.77 295.77 349.98"/><polygon class="cls-7" points="247.25 347.86 264.69 352.01 264.69 366.31 247.25 362.79 247.25 347.86"/><polygon class="cls-7" points="295.77 372.57 269.86 367.35 269.86 353.25 295.52 359.38 295.77 372.57"/><polygon class="cls-7" points="248.3 368.86 264.69 372.76 264.69 387.1 248.3 383.79 248.3 368.86"/><polygon class="cls-7" points="296.82 393.57 269.86 388.13 269.86 374 296.57 380.38 296.82 393.57"/><polygon class="cls-7" points="247.25 388.36 264.69 392.51 264.69 406.81 247.25 403.3 247.25 388.36"/><polygon class="cls-7" points="295.77 413.08 269.86 407.86 269.86 393.75 270.42 393.88 280.45 396.29 295.52 399.88 295.77 413.08"/><polygon class="cls-7" points="247.25 410.95 264.69 415.12 264.69 429.42 247.25 425.89 247.25 410.95"/><polygon class="cls-7" points="295.77 435.69 269.86 430.45 269.86 416.36 295.52 422.48 295.77 435.69"/><polygon class="cls-7" points="248.3 431.95 264.69 435.87 264.69 450.2 248.3 446.89 248.3 431.95"/><polygon class="cls-7" points="296.82 456.69 269.86 451.25 269.86 437.11 296.57 443.49 296.82 456.69"/><polygon class="cls-7" points="247.25 452.31 264.69 456.49 264.69 470.77 247.25 467.25 247.25 452.31"/><polygon class="cls-7" points="295.77 477.05 269.86 471.81 269.86 457.71 295.52 463.85 295.77 477.05"/></g></g><path class="cls-10" d="M166.81,466.87v3H159.2v-2.7a12.07,12.07,0,0,1,3.9-.38Z"/><path class="cls-11" d="M18.94,394.93S80.55,459,250.12,490c220.75,40.35,323.64,22.44,323.64,22.44S457,533.41,252.92,496.6C61.38,462,24.37,409,24.37,409l4,8.88L31.53,425,38,439.3l6,13.41,5.59,12.49,30.54,65.32a513.54,513.54,0,0,0,86,31.67c111.11,29.88,204,14.4,243.11,7.88,19.88-3.31,41.36-8.91,84.32-20.13,24-6.27,41.07-11.19,61.14-22.71a191.65,191.65,0,0,0,28.49-20l-119.91.69c-171.85,1-283.12-42-310.66-51.2-6.68-2.22-12.16-4.13-15.77-5.41,0-2.88-.05-5.76-.08-8.65-2.33.47-4.75,1-7.26,1.65-3.51.89-6.8,1.87-9.87,2.89l-9-3.19-18-7.26-6.74-3.05L65.74,423.47l-7.09-4L43.9,410.3l-7.5-5.07L19.57,391.87l-6-9.1Q16.25,388.86,18.94,394.93Z"/><text class="cls-12" transform="translate(259.69 225.34)">N<tspan x="0" y="122.59">G</tspan></text><text class="cls-13" transform="translate(259.69 225.34)">N<tspan x="0" y="122.59">G</tspan></text><text class="cls-14" transform="translate(259.69 225.34)">N<tspan x="0" y="122.59">G</tspan></text><text class="cls-13"><tspan x="267.65" y="473.13">R</tspan></text><rect class="cls-15" x="136.24" y="137.56" width="1.36" height="313.94"/><path class="cls-16" d="M31.86,423.43a463.1,463.1,0,0,0,41.72,23.33c51.07,25.17,94.89,35,135.49,43.83,37.45,8.15,65.46,11.72,98.68,15.94,30.61,3.9,62.95,7.94,106.37,9.69,72.64,2.93,120.5-2.79,131-4.1,15.92-2,29-4.18,38.06-5.82a63.09,63.09,0,0,1-10,7.95,64.05,64.05,0,0,1-6.33,3.59c-45.86,18-146.58,52.44-267.54,49.57-89.13-2.11-161.79-23.31-174.17-27.64L78.58,523.46l-6.09-14c16.59,6.31,38.79,14.05,65.46,21.39a735,735,0,0,0,150.26,24.89c47.07,2.84,138.78,7.52,245.14-27.69,14.85-4.91,26.92-9.59,35.08-12.9a741.76,741.76,0,0,1-288.24,36.53A734.59,734.59,0,0,1,69,504.42c-2.1-4.82-7.75-17.85-8-18.87,0,0,0,0,0,0,.27-.63,52.41,19.26,57.34,21.12,45.67,17.28,117.73,29.79,175.06,34.28,152.18,11.91,277.12-26.74,276.84-28.23S455.38,548,302.81,537c-104.2-7.5-188.45-34.53-245.46-57.51-2.54-5.78-8.56-19.57-8.9-20.69v0c.27-.66,55.75,19.86,74.91,26.57,78.91,27.66,152,35,186.45,38.3a933.27,933.27,0,0,0,121.11,3.17A962.49,962.49,0,0,0,570.05,511.5c-109.76,15.73-200.67,11.9-263.25,5.23-49.09-5.23-127.51-14.14-221.48-50.94-18-7-32.61-13.56-42.71-18.25Z"/><path class="cls-17" d="M583.18,507.24q-42.64,4.29-85.54,5T412,509.81q-42.74-3.18-85.11-10c-28.23-4.48-56.27-10-84.26-15.74h0c-5.84-1.22-11.83-2.59-17.71-4s-11.8-2.85-17.68-4.34q-17.64-4.49-35.13-9.53c-11.66-3.37-23.28-6.87-34.83-10.61-2.89-.9-5.76-1.89-8.64-2.83s-5.78-1.86-8.62-3c-5.69-2.14-11.29-4.48-16.85-6.93Q86.46,435.47,70.35,427q-8.05-4.26-16-8.73c-5.26-3-10.58-6-15.65-9.3a86.64,86.64,0,0,1-14.15-11.46,83.44,83.44,0,0,1-11.29-14.25A93.45,93.45,0,0,1,.55,349.34a93.36,93.36,0,0,0,12.92,33.75,84.32,84.32,0,0,0,11.34,14.14A86.25,86.25,0,0,0,39,408.54c5.07,3.3,10.4,6.22,15.66,9.23s10.61,5.86,16,8.68q16.1,8.46,32.74,15.82c5.55,2.44,11.15,4.75,16.82,6.88,2.83,1.07,5.73,2,8.6,2.92s5.76,1.91,8.65,2.81c11.55,3.71,23.17,7.18,34.82,10.53s23.37,6.48,35.13,9.45c5.88,1.47,11.77,2.92,17.67,4.3s11.77,2.7,17.81,4h-.06c28,5.61,56,11.29,84.21,15.8s56.55,8,85,10.21,57.05,3,85.61,2.61S554.74,509.93,583.18,507.24Z"/><polygon class="cls-17" points="882.48 344.76 882.48 321.76 825.9 329.45 837.72 344.76 882.48 344.76"/><path class="cls-17" d="M882.48,303c-22.56,2.92-46.52,5.3-71.64,6.9l5.78,7.49c23-1.91,45-4.48,65.86-7.49Z"/><path class="cls-17" d="M882.48,269.26c-32.36.47-67.5-.07-104.7-2.17l7.19,9.34c34.49,1.26,67.2,1.17,97.51.2Z"/><path class="cls-17" d="M801.86,298.29c28.37-.69,55.35-2.35,80.62-4.64v-7.91c-27.39,1.87-56.83,3-88,3Z"/><path class="cls-17" d="M774.16,334c-25.8,1.69-41.75,1.85-41.75,1.85l-6.82,0v8.88h48.57Z"/><path class="cls-17" d="M770.24,183.27H725.59v65.46c35.49,4.75,69.76,7.94,102.66,9.86Z"/><path class="cls-17" d="M882.48,183.27H834v75.64q24.76,1.38,48.44,1.81Z"/><path class="cls-17" d="M774.16,266.89q-23.76-1.41-48.57-3.73V273q24.75,2,48.57,3Z"/><path class="cls-17" d="M774.16,288.57q-23.7-.4-48.57-1.79v11q24.82,1,48.57.91Z"/><path class="cls-17" d="M774.16,311.65q-23.71.71-48.57.32v9c16.55.09,32.74-.25,48.57-.92Z"/><path class="cls-17" d="M913.18,201.49a24.37,24.37,0,0,0,8.29,5.41,29.58,29.58,0,0,0,21.23,0,24,24,0,0,0,13.72-13.72,29.58,29.58,0,0,0,0-21.23,24.18,24.18,0,0,0-13.72-13.73,29.87,29.87,0,0,0-21.23,0A24.39,24.39,0,0,0,907.74,172a29.87,29.87,0,0,0,0,21.23A24.62,24.62,0,0,0,913.18,201.49Z"/><path class="cls-17" d="M958.62,290.59c-16.14,3.2-33.5,6.29-51.92,9.08v6.49c18.41-3.09,35.78-6.49,51.92-10Z"/><path class="cls-17" d="M958.62,266.25c-16.16,1.05-33.51,1.91-51.92,2.47v6.92c18.4-.91,35.75-2.13,51.92-3.53Z"/><path class="cls-17" d="M958.62,278.15c-16.16,2.11-33.5,4.05-51.92,5.68v7.38c18.4-2,35.75-4.39,51.92-6.9Z"/><path class="cls-17" d="M906.7,344.76h51.92V306c-17.36,4.48-34.83,8.29-51.92,11.52Z"/><path class="cls-17" d="M958.62,218.56H906.7V261q26.76.07,51.92-.85Z"/><path class="cls-17" d="M1092.65,251.82c-.09-1-40.59,6.95-107.5,12.47v5.25C1052,262.42,1092.65,252.81,1092.65,251.82Z"/><path class="cls-17" d="M1125,218.56h-58.6l-29.3,32.77V173.58H985.15v85.36c41.21-2.23,78.64-6.09,111.72-10.58Z"/><path class="cls-17" d="M1092.81,252.65c-13.72,3.34-51.71,13.16-107.66,21.72v5.51c53.7-9.65,91.08-20.39,106-25.44Z"/><path class="cls-17" d="M1089.6,256.07c-11.74,3.71-49,16.5-104.45,28.92v5c53.22-13.09,89.71-26.6,102.83-32.22Z"/><path class="cls-17" d="M1124.27,344.76l-45.21-77.52,7.66-8.12c-.6.26-1.2.56-1.8.84,0,0-39.2,18.29-80.42,32.35q-9.59,3.29-19.35,6.21v46.24h51.91v-33.1l6.24-6.69,19.38,39.79Z"/><path class="cls-17" d="M1141.8,201.49a24.65,24.65,0,0,0,8.31,5.41,29.58,29.58,0,0,0,21.23,0,24,24,0,0,0,13.72-13.72,29.58,29.58,0,0,0,0-21.23,24.18,24.18,0,0,0-13.72-13.73,29.87,29.87,0,0,0-21.23,0A24.24,24.24,0,0,0,1136.38,172a29.87,29.87,0,0,0,0,21.23A24.88,24.88,0,0,0,1141.8,201.49Z"/><rect class="cls-17" x="1135.34" y="218.56" width="51.92" height="126.2"/><path class="cls-17" d="M1302.62,339.23l-8.76-35.53q-3,1.16-6.58,2.19a24.53,24.53,0,0,1-6.81,1,9.06,9.06,0,0,1-7.09-2.89,11.1,11.1,0,0,1-2.6-7.72v-45h29.54V218.56h-29.54V190.18h-51.69v28.38H1201.8v32.77h17.29v52.83a45.85,45.85,0,0,0,3.35,17.82A37.67,37.67,0,0,0,1232,335.6a43,43,0,0,0,15,8.59,58.08,58.08,0,0,0,19.62,2.88,96.11,96.11,0,0,0,10.15-.52,86.68,86.68,0,0,0,9.75-1.55,77.42,77.42,0,0,0,8.82-2.48A40.33,40.33,0,0,0,1302.62,339.23Z"/><path class="cls-17" d="M1434.3,243.19a40,40,0,0,0-11.42-14.71,51.59,51.59,0,0,0-18.23-9.11,88.72,88.72,0,0,0-24.52-3.12,155.29,155.29,0,0,0-30.11,3.18,216.75,216.75,0,0,0-32.18,9l11.54,34.62a136.27,136.27,0,0,1,21-6.06,90.65,90.65,0,0,1,17.3-2c6.39,0,11.2,1.22,14.48,3.64a12.61,12.61,0,0,1,5.14,10.2h-28.85q-24.23,0-36.57,9.87t-12.34,28.67a44.69,44.69,0,0,0,2.83,16.32,33.75,33.75,0,0,0,8.25,12.52,37.11,37.11,0,0,0,13.25,8,52.77,52.77,0,0,0,17.89,2.82q12.24,0,21-4.16a37.8,37.8,0,0,0,14.49-11.75v13.6h51V263.1A47.35,47.35,0,0,0,1434.3,243.19Zm-47,61.2a21.29,21.29,0,0,1-7.8,7.21,20.42,20.42,0,0,1-9.75,2.48c-3.68,0-6.53-1-8.53-2.95s-3-4.67-3-8.13.94-5.92,2.84-7.61,4.62-2.53,8.25-2.53h18Z"/><path class="cls-17" d="M764.67,379.19a23.21,23.21,0,0,1,16.75-7,25.37,25.37,0,0,1,5.27.56,29.37,29.37,0,0,1,5.18,1.57,28.89,28.89,0,0,1,9.16,5.87l8-9.64a38.35,38.35,0,0,0-5.86-4.25,43,43,0,0,0-6.76-3.17,47.27,47.27,0,0,0-7.36-2,41.34,41.34,0,0,0-22.64,2,37.4,37.4,0,0,0-12,7.58,35.25,35.25,0,0,0-8,11.36,34.69,34.69,0,0,0-2.89,14.14,35.48,35.48,0,0,0,10.67,25.67,36.36,36.36,0,0,0,11.77,7.64,38.5,38.5,0,0,0,14.64,2.77,41.73,41.73,0,0,0,7.46-.68,52.8,52.8,0,0,0,7.43-1.87,51,51,0,0,0,7-2.9,40.37,40.37,0,0,0,6-3.75V391.05H775.77v11.2h19.91v14.18a33.67,33.67,0,0,1-4.48,2.09,29,29,0,0,1-4.93,1.45,23.75,23.75,0,0,1-14-1.35,22.89,22.89,0,0,1-7.5-5.12,24,24,0,0,1-5-7.71,24.76,24.76,0,0,1-1.84-9.54,24.42,24.42,0,0,1,1.81-9.41A23.68,23.68,0,0,1,764.67,379.19Z"/><path class="cls-17" d="M843.2,419.79a7.46,7.46,0,0,1-2.49.43,4.56,4.56,0,0,1-3.52-1.45,6.69,6.69,0,0,1-1.32-4.6V357.11H822.25v58.21a20.49,20.49,0,0,0,1.2,7.28,15,15,0,0,0,3.26,5.21,13.62,13.62,0,0,0,4.8,3.13,16.32,16.32,0,0,0,5.86,1,19.09,19.09,0,0,0,5-.68,22.9,22.9,0,0,0,5.11-2L846,418.57A18.11,18.11,0,0,1,843.2,419.79Z"/><path class="cls-17" d="M899.55,384.91a25.93,25.93,0,0,0-9-5.52,35.36,35.36,0,0,0-23.16,0,26.39,26.39,0,0,0-9,5.52,24.82,24.82,0,0,0-5.79,8.59,30.94,30.94,0,0,0,0,22.2,24.59,24.59,0,0,0,5.79,8.6,26.84,26.84,0,0,0,9,5.58,34.36,34.36,0,0,0,23.16,0,26.36,26.36,0,0,0,9-5.58,24.68,24.68,0,0,0,5.77-8.6,30.94,30.94,0,0,0,0-22.2A24.91,24.91,0,0,0,899.55,384.91Zm-7,26.5a14.9,14.9,0,0,1-3,5.18,13.73,13.73,0,0,1-4.61,3.34,14.48,14.48,0,0,1-5.93,1.2,14.67,14.67,0,0,1-6-1.2,13.71,13.71,0,0,1-4.63-3.34,15.06,15.06,0,0,1-3-5.18,19.74,19.74,0,0,1-1.09-6.65,19.38,19.38,0,0,1,1.09-6.61,15.7,15.7,0,0,1,3-5.15,13.63,13.63,0,0,1,4.63-3.36,14.67,14.67,0,0,1,6-1.19,14.47,14.47,0,0,1,5.93,1.19,13.65,13.65,0,0,1,4.61,3.36,15.53,15.53,0,0,1,3,5.15,19.62,19.62,0,0,1,1.08,6.61A20,20,0,0,1,892.54,411.41Z"/><path class="cls-17" d="M968.64,385a22.89,22.89,0,0,0-8-5.61,26.32,26.32,0,0,0-10.34-2,22.61,22.61,0,0,0-9.38,1.87,19.58,19.58,0,0,0-7.09,5.38c-.42.52-.82,1.05-1.2,1.62v-29.2H918.89v74.28H932.6v-8.47a19.68,19.68,0,0,0,1.26,1.7A19.09,19.09,0,0,0,941,430a23.44,23.44,0,0,0,9.59,1.88,25.94,25.94,0,0,0,10.29-2,23.27,23.27,0,0,0,7.92-5.51,24.15,24.15,0,0,0,5.08-8.53,35.1,35.1,0,0,0,0-22.19A25.4,25.4,0,0,0,968.64,385Zm-7.89,26.07a15.41,15.41,0,0,1-3,5.18,14.31,14.31,0,0,1-4.64,3.38,13.87,13.87,0,0,1-5.87,1.23,14.44,14.44,0,0,1-5.93-1.2,13.68,13.68,0,0,1-4.61-3.37,15.18,15.18,0,0,1-3-5.16,19.91,19.91,0,0,1-1.08-6.7,19,19,0,0,1,1.08-6.52,15.68,15.68,0,0,1,3-5.16,13.7,13.7,0,0,1,4.61-3.38,15.22,15.22,0,0,1,11.8,0,14,14,0,0,1,4.64,3.38,15.72,15.72,0,0,1,3,5.16,19,19,0,0,1,1.07,6.52A19.6,19.6,0,0,1,960.75,411.09Z"/><path class="cls-17" d="M1029.41,388.36a15.39,15.39,0,0,0-4.33-5.94,19.78,19.78,0,0,0-7-3.73,31.35,31.35,0,0,0-9.44-1.31,49.38,49.38,0,0,0-6.71.43,37.07,37.07,0,0,0-5.87,1.28,45.43,45.43,0,0,0-5.54,2.05A60.55,60.55,0,0,0,985,384l4.75,8.91a38.18,38.18,0,0,1,4.11-2.2,35,35,0,0,1,4.05-1.6,27.17,27.17,0,0,1,3.95-1,25,25,0,0,1,3.76-.32c3.94,0,6.9.88,8.91,2.66a9.36,9.36,0,0,1,3,7.4v1.41h-15.42a29.64,29.64,0,0,0-8.67,1.13,17.74,17.74,0,0,0-6.36,3.23,13.69,13.69,0,0,0-3.93,5.05,15.77,15.77,0,0,0-1.35,6.65A16.92,16.92,0,0,0,983,422a15,15,0,0,0,3.69,5.26,17.26,17.26,0,0,0,5.87,3.5,22.75,22.75,0,0,0,7.78,1.27,29.61,29.61,0,0,0,6.58-.68,20.09,20.09,0,0,0,5.5-2,16.46,16.46,0,0,0,4.33-3.35,10.52,10.52,0,0,0,.75-.9l0,6.36H1031l-.06-35A21.26,21.26,0,0,0,1029.41,388.36Zm-13.18,27.78a11.28,11.28,0,0,1-3,3.14,14.46,14.46,0,0,1-4.23,2,17.54,17.54,0,0,1-5.18.75,13,13,0,0,1-3.91-.52,8.41,8.41,0,0,1-2.9-1.51,6.15,6.15,0,0,1-1.82-2.35,7.07,7.07,0,0,1-.63-3.06q0-3.57,2.37-5.14c1.59-1.06,4-1.57,7.39-1.57h13.12l0,4.53A8.57,8.57,0,0,1,1016.23,416.14Z"/><path class="cls-17" d="M1065.29,419.79a7.35,7.35,0,0,1-2.47.43,4.58,4.58,0,0,1-3.53-1.45,6.64,6.64,0,0,1-1.33-4.6V357.11h-13.6v58.21a20.51,20.51,0,0,0,1.18,7.28,15.17,15.17,0,0,0,3.26,5.21,13.62,13.62,0,0,0,4.8,3.13,16.32,16.32,0,0,0,5.86,1,19.11,19.11,0,0,0,5-.68,23.29,23.29,0,0,0,5.11-2l-1.5-10.71A18.7,18.7,0,0,1,1065.29,419.79Z"/><path class="cls-17" d="M1155,404.09a21.17,21.17,0,0,0,5.58-8,28.38,28.38,0,0,0,1.93-10.73,25.65,25.65,0,0,0-1.93-10.19,20.22,20.22,0,0,0-5.58-7.56,25.13,25.13,0,0,0-9-4.7,41.53,41.53,0,0,0-12.12-1.63h-29.52v70.07h14.11V410.72h15.41c.75,0,1.49,0,2.21-.06L1148,431.39h16l-15.38-23.34A23.55,23.55,0,0,0,1155,404.09Zm-36.49-31.16h15.41a24,24,0,0,1,6.46.8,13.13,13.13,0,0,1,4.79,2.38,10.35,10.35,0,0,1,3,4,14.58,14.58,0,0,1,1,5.68,15.62,15.62,0,0,1-1,5.8,10.41,10.41,0,0,1-3,4.16,13.19,13.19,0,0,1-4.8,2.51,22.77,22.77,0,0,1-6.46.85h-15.41Z"/><path class="cls-17" d="M1219.61,386a20.79,20.79,0,0,0-8.31-6.34,32.83,32.83,0,0,0-23.24-.19,25.16,25.16,0,0,0-8.66,5.55,24.78,24.78,0,0,0-5.64,8.6,31.85,31.85,0,0,0,0,22.19,24,24,0,0,0,5.57,8.56,25,25,0,0,0,8.74,5.54,31.48,31.48,0,0,0,11.43,2,33,33,0,0,0,12.91-2.41,27.31,27.31,0,0,0,9.72-6.81l-7.27-7.21a19.15,19.15,0,0,1-6.47,4.49,19.79,19.79,0,0,1-7.74,1.53,16,16,0,0,1-6.33-1.23,14.37,14.37,0,0,1-5-3.48,15.42,15.42,0,0,1-3.2-5.51,17.53,17.53,0,0,1-.59-2.1h39.34a44.73,44.73,0,0,0-.76-13.18A24.83,24.83,0,0,0,1219.61,386Zm-34.34,14.5a18.56,18.56,0,0,1,.76-3.23,15.21,15.21,0,0,1,2.88-5.22,12.52,12.52,0,0,1,4.49-3.38,14.37,14.37,0,0,1,5.89-1.17,14.8,14.8,0,0,1,5.25.89,11.48,11.48,0,0,1,4.1,2.59,11.66,11.66,0,0,1,2.69,4.08,15.86,15.86,0,0,1,1.07,5.44Z"/><path class="cls-17" d="M1277.78,388.36a15.39,15.39,0,0,0-4.33-5.94,19.78,19.78,0,0,0-7-3.73,31.35,31.35,0,0,0-9.44-1.31,49.38,49.38,0,0,0-6.71.43,37.07,37.07,0,0,0-5.87,1.28,46,46,0,0,0-5.54,2.05,60.55,60.55,0,0,0-5.6,2.85l4.75,8.91a38.18,38.18,0,0,1,4.11-2.2,34.45,34.45,0,0,1,4.06-1.6,26.73,26.73,0,0,1,3.94-1,25,25,0,0,1,3.76-.32c3.94,0,6.9.88,8.9,2.66a9.33,9.33,0,0,1,3,7.4v1.41h-15.42a29.64,29.64,0,0,0-8.67,1.13,17.74,17.74,0,0,0-6.36,3.23,13.69,13.69,0,0,0-3.93,5.05,15.77,15.77,0,0,0-1.35,6.65,16.92,16.92,0,0,0,1.27,6.63,15.2,15.2,0,0,0,3.67,5.26,17.55,17.55,0,0,0,5.89,3.5,22.75,22.75,0,0,0,7.78,1.27,29.61,29.61,0,0,0,6.58-.68,20.09,20.09,0,0,0,5.5-2,16.46,16.46,0,0,0,4.33-3.35,7.66,7.66,0,0,0,.74-.88v6.34h13.46l0-35A21.06,21.06,0,0,0,1277.78,388.36Zm-13.18,27.78a11.74,11.74,0,0,1-2.95,3.14,14.33,14.33,0,0,1-4.23,2,17.54,17.54,0,0,1-5.18.75,13,13,0,0,1-3.91-.52,8.5,8.5,0,0,1-2.9-1.51,6.15,6.15,0,0,1-1.82-2.35,7.07,7.07,0,0,1-.63-3.06q0-3.57,2.37-5.14c1.59-1.06,4.06-1.57,7.39-1.57h13.12v4.53A8.29,8.29,0,0,1,1264.6,416.14Z"/><path class="cls-17" d="M1313.66,419.79a7.35,7.35,0,0,1-2.47.43,4.58,4.58,0,0,1-3.53-1.45,6.69,6.69,0,0,1-1.32-4.6V357.11h-13.61v58.21a20.28,20.28,0,0,0,1.19,7.28,15,15,0,0,0,3.25,5.21,13.62,13.62,0,0,0,4.8,3.13,16.32,16.32,0,0,0,5.86,1,19.16,19.16,0,0,0,5-.68,23.29,23.29,0,0,0,5.11-2l-1.5-10.71A18.7,18.7,0,0,1,1313.66,419.79Z"/><path class="cls-17" d="M1352.52,420a12.32,12.32,0,0,1-3.45.54,7.14,7.14,0,0,1-2.31-.35,4.21,4.21,0,0,1-1.71-1.15A4.82,4.82,0,0,1,1344,417a12.45,12.45,0,0,1-.34-3.25V387.35h15.11v-9.41h-15.11V365.37H1330v12.57h-7.5v9.41h7.5V416a18.69,18.69,0,0,0,1.25,7.13,13.22,13.22,0,0,0,8.54,7.9,20.6,20.6,0,0,0,6.28.93,25,25,0,0,0,3.56-.25,24,24,0,0,0,3.48-.75,24.72,24.72,0,0,0,3.37-1.22,27,27,0,0,0,3.2-1.67l-3.1-9.72A26,26,0,0,1,1352.52,420Z"/><path class="cls-17" d="M1388.91,417l-14.87-39h-14.15l22.16,52.54-1.6,3.61a9.67,9.67,0,0,1-3.15,4.13,7.66,7.66,0,0,1-4.45,1.32,9.25,9.25,0,0,1-3.48-.65,15.11,15.11,0,0,1-3.48-2.05l-5.81,9.76a22.48,22.48,0,0,0,6.38,3.62,21.42,21.42,0,0,0,7.23,1.18,19.25,19.25,0,0,0,11.29-3.3,21.34,21.34,0,0,0,7.38-10l23.87-60.2h-13.67Z"/><path class="cls-18" d="M777.78,267.09l-3.62-.2"/></g></g></svg>