<svg xmlns="http://www.w3.org/2000/svg" viewBox="0 0 1418.01 579.92"><defs><linearGradient id="b" x1="32.11" x2="600.79" y1="283" y2="313.84" gradientUnits="userSpaceOnUse"><stop offset="0" stop-color="#0d4036"/><stop offset=".03" stop-color="#0f453a"/><stop offset=".07" stop-color="#145447"/><stop offset=".12" stop-color="#1c6c5d"/><stop offset=".16" stop-color="#278e7a"/><stop offset=".17" stop-color="#29937f"/><stop offset=".77" stop-color="#1e564c"/><stop offset=".77" stop-color="#216559"/><stop offset=".78" stop-color="#24796a"/><stop offset=".8" stop-color="#278876"/><stop offset=".81" stop-color="#29907d"/><stop offset=".84" stop-color="#29937f"/><stop offset=".87" stop-color="#278e7b"/><stop offset=".91" stop-color="#23806e"/><stop offset=".95" stop-color="#1b6859"/><stop offset=".99" stop-color="#10483d"/><stop offset="1" stop-color="#0d4036"/></linearGradient><linearGradient id="c" x1="395.52" x2="345.44" y1="79.64" y2="201.53" gradientUnits="userSpaceOnUse"><stop offset="0" stop-color="#148f77"/><stop offset=".02" stop-color="#148d76"/><stop offset=".4" stop-color="#107360"/><stop offset=".73" stop-color="#0e6454"/><stop offset="1" stop-color="#0d5e4f"/></linearGradient><linearGradient id="a" x1="564.59" x2="275.74" y1="446.24" y2="125.31" gradientUnits="userSpaceOnUse"><stop offset=".22" stop-color="#145044"/><stop offset=".38" stop-color="#14574a"/><stop offset=".53" stop-color="#136353"/><stop offset=".6" stop-color="#136857"/><stop offset=".69" stop-color="#147864"/><stop offset=".78" stop-color="#159077"/><stop offset=".86" stop-color="#19a080"/><stop offset=".99" stop-color="#20b78d"/></linearGradient><linearGradient id="d" x1="111" x2="339.35" y1="488.24" y2="72.25" gradientUnits="userSpaceOnUse"><stop offset=".38" stop-color="#0c4a3e"/><stop offset=".47" stop-color="#0e5043"/><stop offset=".59" stop-color="#156051"/><stop offset=".72" stop-color="#207a68"/><stop offset=".73" stop-color="#217c6a"/><stop offset=".77" stop-color="#228975"/><stop offset=".84" stop-color="#239d86"/><stop offset=".89" stop-color="#24a48c"/></linearGradient><linearGradient id="e" x1="598.1" x2="332.45" y1="422.38" y2="127.23" href="#a"/><linearGradient id="f" x1="289.43" x2="38.44" y1="403.77" y2="124.92" href="#a"/><linearGradient id="g" x1="163.11" x2="163.2" y1="467.8" y2="467.28" gradientUnits="userSpaceOnUse"><stop offset=".16" stop-color="#0d5e4f"/><stop offset=".38" stop-color="#106253"/><stop offset=".62" stop-color="#17705f"/><stop offset=".87" stop-color="#248573"/><stop offset="1" stop-color="#2c9480"/></linearGradient><linearGradient id="h" x1="13.55" x2="583.18" y1="481.35" y2="481.35" gradientUnits="userSpaceOnUse"><stop offset="0" stop-color="#0d4036"/><stop offset=".03" stop-color="#0f453a"/><stop offset=".07" stop-color="#145447"/><stop offset=".12" stop-color="#1c6c5d"/><stop offset=".16" stop-color="#278e7a"/><stop offset=".17" stop-color="#29937f"/><stop offset=".81" stop-color="#1e564c"/><stop offset=".84" stop-color="#216559"/><stop offset=".94" stop-color="#29937f"/><stop offset=".96" stop-color="#29927e" stop-opacity=".99"/><stop offset=".97" stop-color="#278e7b" stop-opacity=".94"/><stop offset=".98" stop-color="#258774" stop-opacity=".87"/><stop offset=".99" stop-color="#227d6c" stop-opacity=".76"/><stop offset=".99" stop-color="#1d7060" stop-opacity=".62"/><stop offset=".99" stop-color="#186052" stop-opacity=".45"/><stop offset="1" stop-color="#114d42" stop-opacity=".24"/><stop offset="1" stop-color="#0d4036" stop-opacity=".1"/></linearGradient><linearGradient id="i" x1="31.86" x2="583.18" y1="495.51" y2="495.51" gradientUnits="userSpaceOnUse"><stop offset="0" stop-color="#0b3d34"/><stop offset=".46" stop-color="#fff"/><stop offset=".92" stop-color="#0a5e50"/><stop offset=".98" stop-color="#343637"/><stop offset=".99" stop-color="#323939"/><stop offset=".99" stop-color="#2a4441"/><stop offset="1" stop-color="#1e564d"/><stop offset="1" stop-color="#176154"/></linearGradient></defs><path fill="url(#b)" d="M629.29 118.5c-127.91 19.55-220.67 31.79-291.71 40.23 0 0-114.72 13.63-204.7 53A342.5 342.5 0 0 0 68.43 249a308 308 0 0 0-44.49 40.62C9.16 306 6 313 4.89 315.52c-9.29 21.86-3.21 44 .79 55l13.26 24.43a262 262 0 0 0 32.11 24.25 268 268 0 0 0 92.29 36.92L427.5 487.2l135.71 21.49 7.72-42.54a1157.3 1157.3 0 0 0-449.47-18.53l-10.06-4.57a496 496 0 0 1 45.25-12.8c47.34-11 99.58-15.76 192.36-7.58a1450 1450 0 0 1 222.48 37.48q3.19-19.2 6.4-38.4a1415 1415 0 0 0-234-32.37c-91.06-4.81-141 1.68-189.76 19.46A370.7 370.7 0 0 0 94 437.11l-9.6-2.29a370.3 370.3 0 0 1 74.77-36.56c43.61-15.51 91.07-23 184.68-18.29a1386.5 1386.5 0 0 1 235.7 32.56L587 370.3c-103.8-17.08-189.22-21.62-250.24-22.3-62.8-.71-97 2.71-133 11.86-62.31 15.84-108.93 43.49-138.07 64l-5.94-4.11a339 339 0 0 1 82.75-53.92c37.9-17.36 86.85-31.06 212.54-28.36a1640 1640 0 0 1 233.58 21.93l6.86-48.91a1165 1165 0 0 0-237.7-16.91c-77.81 2.53-133.59 4.9-198.58 34.74-54.14 24.85-91.79 58.24-114.54 81.82l-6.85-5c20.74-25 56-61 108.79-87.31 23.53-11.73 72.17-32.32 204.52-34.24a1352 1352 0 0 1 247.14 19.31l5.25-40.53c-95.77-12.33-212.77-18-334.86-1.25C202.53 270.17 151 283.57 99.82 317a342.4 342.4 0 0 0-80.76 74l-5.48-8.83c17.94-24.3 50.16-61.58 100.87-90.82 31.21-18 64.46-30.07 109.4-39 143.43-28.5 337.4-11.26 384-6.78q4.35-28.6 8.68-57.22c-246.13 4.48-427 37.66-485.1 66.23-54.88 27-89.83 64.7-89.84 64.7A276 276 0 0 0 6.87 365.8l-4-13.1a309.8 309.8 0 0 1 71-79.54C137.5 223.27 204.7 213.08 398.3 194c89.39-8.8 164.79-15.45 220.64-20.16Z"/><g stroke="#fefbd9" stroke-miterlimit="10" stroke-width=".75"><path fill="url(#c)" d="M254.18.38h131.78v525.75H254.18z"/><path fill="url(#a)" d="m440.38 520.72 65.05-10.35L505 60.05l-10.76-10.34a28.6 28.6 0 0 0-11.57-4.23l-42.05-2.2-96.74 38.17V521Z"/><path fill="url(#d)" d="m201.59 524.38-64.65-21.09V63.7l10.79-10.33a28.4 28.4 0 0 1 11.57-4.23l42-2.2 96.74 38.17v439.58Z"/></g><path fill="url(#e)" stroke="#fefbd9" stroke-miterlimit="10" stroke-width=".75" d="M439.51 46.94h61.25a4.67 4.67 0 0 1 4.67 4.67v464.18h-65.92z"/><path fill="url(#f)" stroke="#fefbd9" stroke-miterlimit="10" stroke-width=".75" d="M143.19 48h58.26v444.41h-64.51V54.23a6.25 6.25 0 0 1 6.25-6.23Z"/><path fill="#fefbda" d="M349.93 26.69h15.72v15.72h-15.72zm-69.15 0h15.72v15.72h-15.72zm26.41 86.59h31.43V129h-31.43zm-1.05 45.05h31.43v15.72h-31.43zm0 40.87h31.43v15.72h-31.43zm1.05 44h31.43v15.72h-31.43zm0 84.87h31.43v15.72h-31.43zm0 52.39h31.43v15.72h-31.43zm0-93.25h31.43v15.72h-31.43zm0 138.31h31.43v15.72h-31.43zm0 40.86h31.43v15.72h-31.43z"/><path fill="none" stroke="#fefbd9" stroke-miterlimit="10" stroke-width=".25" d="M439.51 46.29v476.27"/><path fill="#fefbda" d="M473.83 88.1a60 60 0 0 1 6.18.62v9.81l-29 .73.15-12.4ZM504 99.86l-.31 5.44a183 183 0 0 0-18.41-6.12v-9.33a31.8 31.8 0 0 1 11.3 5.4Zm-30.17 7.26a60 60 0 0 1 6.18.62v9.8l-29 .73.15-12.39ZM504 118.87l-.31 5.44a183 183 0 0 0-18.41-6.12v-9.33a32 32 0 0 1 11.3 5.41Zm-30.17 9.64a55 55 0 0 1 6.18.62v9.8l-29 .73.15-12.39ZM504 140.26l-.31 5.44a183 183 0 0 0-18.41-6.12v-9.33a32 32 0 0 1 11.3 5.41Zm-30.17 7.28a60 60 0 0 1 6.18.62V158l-29 .73.15-12.4ZM504 159.29l-.31 5.45a183 183 0 0 0-18.41-6.12v-9.34a32 32 0 0 1 11.3 5.41Zm-30.17 6.13a60 60 0 0 1 6.17.58v9.81l-29 .72.15-12.39ZM504 177.17l-.31 5.45a183 183 0 0 0-18.41-6.12v-9.34a32 32 0 0 1 11.3 5.41Zm-30.17 4.22a55 55 0 0 1 6.17.61v9.8l-29 .73.15-12.39ZM504 193.14l-.31 5.44a183 183 0 0 0-18.41-6.12v-9.33a32 32 0 0 1 11.3 5.41Zm-30.17 9.32a60 60 0 0 1 6.18.62v9.8l-29 .73.15-12.39ZM504 214.21l-.31 5.45a185 185 0 0 0-18.41-6.13v-9.33a32 32 0 0 1 11.3 5.41Zm-30.17 7.28a60 60 0 0 1 6.18.62v9.81l-29 .73.15-12.4ZM504 233.24l-.31 5.45a183 183 0 0 0-18.41-6.12v-9.33a31.8 31.8 0 0 1 11.3 5.4Zm-30.17 8.09a55 55 0 0 1 6.17.67v9.81l-29 .72.15-12.39ZM504 253.08l-.31 5.45a184 184 0 0 0-18.41-6.13v-9.33a32 32 0 0 1 11.3 5.41Zm-30.17 10.97a55 55 0 0 1 6.18.62v9.81l-29 .73.15-12.4ZM504 275.8l-.31 5.45a183 183 0 0 0-18.41-6.12v-9.34a32 32 0 0 1 11.3 5.41Zm-30.17 7.27a55 55 0 0 1 6.18.62v9.8l-29 .73.15-12.39ZM504 294.82l-.31 5.44a183 183 0 0 0-18.41-6.12v-9.33a32 32 0 0 1 11.3 5.41Zm-30.17 9.64a60 60 0 0 1 6.18.62v9.8l-29 .73.15-12.39ZM504 316.21l-.31 5.44a183 183 0 0 0-18.41-6.12v-9.33a32 32 0 0 1 11.3 5.41Zm-30.17 7.28a55 55 0 0 1 6.18.62v9.81l-29 .72.15-12.39ZM504 335.24l-.31 5.45a183 183 0 0 0-18.41-6.12v-9.34a32 32 0 0 1 11.3 5.41Zm-30.17 6.13a55 55 0 0 1 6.17.63v9.81l-29 .72.15-12.39ZM504 353.12l-.31 5.45a183 183 0 0 0-18.41-6.12v-9.34a32 32 0 0 1 11.3 5.41Zm-30.17 6.31a55 55 0 0 1 6.18.62v9.81l-29 .72.15-12.39ZM504 371.18l-.31 5.45a183 183 0 0 0-18.41-6.12v-9.34a32 32 0 0 1 11.3 5.41Zm-30.17 7.23a55 55 0 0 1 6.17.59v9.8l-29 .73.15-12.39ZM504 390.16l-.31 5.44a183 183 0 0 0-18.41-6.12v-9.33a32 32 0 0 1 11.3 5.41Zm-30.17 7.28a60 60 0 0 1 6.18.62v9.81l-29 .73.15-12.4ZM504 409.19l-.31 5.45a183 183 0 0 0-18.41-6.12v-9.34a32 32 0 0 1 11.3 5.41Zm-30.17 8.09a60 60 0 0 1 6.18.62v9.8l-29 .73.15-12.39ZM504 429l-.31 5.44a183 183 0 0 0-18.41-6.12V419a32 32 0 0 1 11.3 5.41Zm-30.17 10.65a55 55 0 0 1 6.18.62v9.81l-29 .72.15-12.39ZM504 451.4l-.31 5.45a183 183 0 0 0-18.41-6.12v-9.34a32 32 0 0 1 11.3 5.41Zm-30.17 7.26a60 60 0 0 1 6.18.62v9.81l-29 .73.15-12.4ZM504 470.42l-.31 5.44a183 183 0 0 0-18.41-6.12v-9.33a32.2 32.2 0 0 1 11.3 5.4ZM473.83 70.18a60 60 0 0 1 6.18.62v9.81l-29 .73.18-12.34ZM504 81.94l-.31 5.44a183 183 0 0 0-18.41-6.12v-9.33a32.2 32.2 0 0 1 11.3 5.4Zm-156.24 21.92 19.1-4.56v13.86l-19.35 3.9zm48.27-11.53v14.94l-22.12 4.46V97.62zm-48.27 32.53 19.1-4.56v13.86l-19.35 3.9zm48.27-11.53v14.93l-22.12 4.48v-14.12zm-48.27 31.77 19.1-4.56v13.86l-19.35 3.91zm48.27-11.53v14.93l-22.12 4.48v-14.12zm-48.27 34.12 19.1-4.56V177l-19.35 3.91zm48.27-11.51v14.93l-22.12 4.46v-14.11zm-48.27 32.53 19.1-4.56V198l-19.35 3.91zm48.27-11.53v14.94l-22.12 4.45v-14.11zm-48.27 31.88 19.1-4.56v13.87l-19.35 3.89zm48.27-11.52v14.94l-22.12 4.46v-14.13zm-48.27 34.13 19.1-4.56v13.86l-19.35 3.9zm48.27-11.54v14.94l-22.12 4.47v-14.12zm-48.27 32.54 19.1-4.56v13.85l-19.35 3.91zm48.27-11.52v14.92l-22.12 4.47v-14.11zm-48.27 31.76 19.1-4.56v13.85l-19.35 3.91zm48.27-11.53v14.93l-22.12 4.46v-14.1zm-48.27 34.12 19.1-4.56v13.87l-19.35 3.89zm48.27-11.51v14.93l-22.12 4.46v-14.12zm-48.27 32.51 19.1-4.56v13.87l-19.35 3.89zm48.27-11.51v14.93l-22.12 4.46v-14.12zm-48.27 34.09 19.1-4.56v13.86l-19.35 3.91zm48.27-11.52v14.94l-22.12 4.45v-14.1zm-48.27 34.13 19.1-4.56v13.86l-19.35 3.89zm48.27-11.52v14.93l-22.12 4.46v-14.12zm-48.27 32.52 19.1-4.56v13.86l-19.35 3.89zm48.27-11.52v14.93l-22.12 4.46v-14.12zm-48.27 31.02 19.1-4.56v13.87l-19.35 3.89zm48.27-11.52v14.94l-22.12 4.45v-14.12zm-48.27 34.13 19.1-4.56v13.86l-19.35 3.9zm48.27-11.54v14.94l-22.12 4.47v-14.12zm-48.27 32.54 19.1-4.56v13.86l-19.35 3.9zm48.27-11.54v14.94l-22.12 4.47v-14.12zm-48.27 31.9 19.1-4.56v13.85l-19.35 3.91zm48.27-11.53v14.93l-22.12 4.46v-14.1z"/><path fill="none" stroke="#fefbd9" stroke-miterlimit="10" stroke-width=".5" d="M201.45 49.8v471.5"/><path fill="#fefbda" d="M147.74 92.94a32.15 32.15 0 0 1 11.46-5.45v9.34c-7.2 1.71-18.57 6.17-18.57 6.17l-.3-5.45ZM193.29 97l-26.48-.66V86.07c1.24-.13 2.47-.23 3.69-.28l22.64-1.24Zm-46.59 15a32.9 32.9 0 0 1 12.5-5.72v9.37c-7.09 1.49-19.61 6.39-19.61 6.39l-.31-5.44Zm45.54 4-25.43-.64V105q1.33-.12 2.64-.18l22.64-1.24Zm-45.54 17.35a32.9 32.9 0 0 1 12.5-5.72V137c-7.09 1.49-19.61 6.39-19.61 6.39l-.31-5.44Zm45.54 4-25.43-.64v-10.32c.89-.09 1.77-.15 2.64-.19l22.64-1.2Zm-45.54 15.03a32.9 32.9 0 0 1 12.5-5.72V156c-7.09 1.49-19.61 6.39-19.61 6.39l-.31-5.45Zm45.54 4-25.43-.63v-10.34q1.33-.12 2.64-.18l22.64-1.23Zm-45.54 13.88a32.9 32.9 0 0 1 12.5-5.72v9.38c-7.09 1.49-19.61 6.39-19.61 6.39l-.31-5.45Zm45.54 4-25.43-.63v-10.34q1.33-.12 2.64-.18l22.64-1.24Zm-45.54 11.97a32.9 32.9 0 0 1 12.5-5.72v9.37c-7.09 1.49-19.61 6.39-19.61 6.39l-.31-5.44Zm45.54 4-25.43-.64v-10.32c.89-.09 1.77-.15 2.64-.19l22.64-1.24ZM146.7 207.3a32.9 32.9 0 0 1 12.5-5.72V211c-7.09 1.49-19.61 6.39-19.61 6.39l-.31-5.44Zm45.54 4-25.43-.64v-10.33q1.33-.12 2.64-.18l22.64-1.24Zm-45.54 15.03a32.9 32.9 0 0 1 12.5-5.72V230c-7.09 1.49-19.61 6.39-19.61 6.39l-.31-5.45Zm45.54 4.01-25.43-.64v-10.33c.89-.09 1.77-.15 2.64-.19l22.64-1.24Zm-45.54 15.83a32.9 32.9 0 0 1 12.5-5.72v9.37c-7.09 1.49-19.61 6.39-19.61 6.39l-.31-5.44Zm45.54 4-25.43-.64v-10.32c.89-.09 1.77-.15 2.64-.19l22.64-1.24Zm-44.5 18.72a32.15 32.15 0 0 1 11.46-5.45v9.34c-7.21 1.71-18.57 6.16-18.57 6.16l-.3-5.45Zm45.55 4.01-26.48-.66V262c1.24-.14 2.47-.23 3.69-.29l22.64-1.24Zm-46.59 15a33 33 0 0 1 12.5-5.71v9.37c-7.09 1.49-19.61 6.39-19.61 6.39l-.31-5.44Zm45.54 4.01-25.43-.64v-10.33c.89-.09 1.77-.15 2.64-.19l22.64-1.23ZM146.7 309.3a32.9 32.9 0 0 1 12.5-5.72V313c-7.09 1.49-19.61 6.39-19.61 6.39l-.31-5.44Zm45.54 4-25.43-.64v-10.33q1.33-.12 2.64-.18l22.64-1.24Zm-45.54 15.03a32.9 32.9 0 0 1 12.5-5.72V332c-7.09 1.49-19.61 6.39-19.61 6.39l-.31-5.45Zm45.54 4-25.43-.63v-10.33c.89-.09 1.77-.15 2.64-.19l22.64-1.24Zm-44.5 13.88a32.15 32.15 0 0 1 11.46-5.45v9.34c-7.21 1.71-18.57 6.16-18.57 6.16l-.3-5.45Zm45.55 4-26.48-.65v-10.21c1.24-.14 2.47-.23 3.69-.29l22.64-1.24Zm-46.59 14.06a32.9 32.9 0 0 1 12.5-5.72v9.38c-7.09 1.49-19.61 6.39-19.61 6.39l-.31-5.45Zm45.54 4-25.43-.63v-10.33c.89-.09 1.77-.15 2.64-.19l22.64-1.24Zm-45.54 14.98a32.9 32.9 0 0 1 12.5-5.72v9.37c-7.09 1.49-19.61 6.39-19.61 6.39l-.31-5.44Zm45.54 4-25.43-.64v-10.32c.89-.09 1.77-.15 2.64-.19l22.64-1.24Zm-45.54 15.03a32.9 32.9 0 0 1 12.5-5.72v9.38c-7.09 1.49-19.61 6.39-19.61 6.39l-.31-5.45Zm45.54 4-25.43-.63v-10.34q1.33-.12 2.64-.18l22.64-1.24Zm-45.54 15.84a32.9 32.9 0 0 1 12.5-5.72v9.37c-7.09 1.49-19.61 6.39-19.61 6.39l-.31-5.44Zm45.54 4-25.43-.64v-10.33q1.33-.12 2.64-.18l22.64-1.24Zm-45.54 18.37a32.9 32.9 0 0 1 12.5-5.72v9.38c-7.09 1.49-19.61 6.39-19.61 6.39l-.31-5.45Zm45.54 4-25.43-.63v-10.33c.89-.09 1.77-.15 2.64-.19l22.64-1.24ZM146.7 463.5a32.85 32.85 0 0 1 12.5-5.71v9.37c-7.09 1.49-19.61 6.39-19.61 6.39l-.31-5.45Zm45.54 4.01-25.43-.64v-10.33c.89-.09 1.77-.15 2.64-.19l22.64-1.24ZM146.7 75a32.85 32.85 0 0 1 12.5-5.71v9.37c-7.09 1.49-19.61 6.39-19.61 6.39l-.31-5.44Zm45.54 4-25.43-.64v-10.3c.89-.09 1.77-.15 2.64-.19l22.64-1.24Zm53.96 11.03 18.49 4.41v14.25l-18.49-3.74zm48.53 24.72-24.87-5.02V95.68l24.61 5.87zm-47.48-3.72 17.44 4.16v14.29l-17.44-3.53zm48.52 24.72-25.91-5.22v-14.1l25.66 6.12zm-48.52-4.49 17.44 4.17v14.29l-17.44-3.53zM295.77 156l-25.91-5.24v-14.09l25.66 6.12zm-48.52-2.13 17.44 4.16v14.28l-17.44-3.51zm48.52 24.73-25.91-5.23v-14.11l25.66 6.12zm-48.52-3.73 17.44 4.17v14.28l-17.44-3.51zm48.52 24.73-25.91-5.23v-14.11l25.66 6.14zm-48.52-4.37 17.44 4.17v14.29l-17.44-3.52zm48.52 24.73-25.91-5.23v-14.1l25.66 6.12zm-48.52-2.14 17.44 4.18v14.29l-17.44-3.53zm48.52 24.74-25.91-5.24v-14.09l25.66 6.13zm-47.47-3.74 16.39 3.92v14.33l-16.39-3.31zm48.52 24.74-26.96-5.44v-14.14l26.71 6.38zm-49.57-4.5 17.44 4.18v14.28L247.25 274zm48.52 24.74-25.91-5.24v-14.1l25.66 6.14zm-48.52-2.12 17.44 4.15v14.3l-17.44-3.52zm48.52 24.71-25.91-5.22v-14.1l25.66 6.12zm-47.47-3.71 16.39 3.9v14.34l-16.39-3.31zm48.52 24.71-26.96-5.44v-14.13l26.71 6.37zm-49.57-2.14 17.44 4.17v14.28l-17.44-3.51zm48.52 24.73-25.91-5.23v-14.09l25.66 6.11zm-48.52-2.12 17.44 4.15v14.3l-17.44-3.52zm48.52 24.71-25.91-5.22v-14.1l25.66 6.13zm-47.47-3.71 16.39 3.9v14.34l-16.39-3.31zm48.52 24.71-26.96-5.44V374l26.71 6.38zm-49.57-5.21 17.44 4.15v14.3l-17.44-3.51zm48.52 24.72-25.91-5.22v-14.11l.56.13 10.03 2.41 15.07 3.59zm-48.52-2.13 17.44 4.17v14.3l-17.44-3.53zm48.52 24.74-25.91-5.24v-14.09l25.66 6.12zm-47.47-3.74 16.39 3.92v14.33l-16.39-3.31zm48.52 24.74-26.96-5.44v-14.14l26.71 6.38zm-49.57-4.38 17.44 4.18v14.28l-17.44-3.52zm48.52 24.74-25.91-5.24v-14.1l25.66 6.14z"/><path fill="url(#g)" d="M166.81 466.87v3h-7.61v-2.7a12 12 0 0 1 3.9-.38Z"/><path fill="url(#h)" d="M18.94 394.93S80.55 459 250.12 490c220.75 40.35 323.64 22.44 323.64 22.44S457 533.41 252.92 496.6C61.38 462 24.37 409 24.37 409l4 8.88 3.16 7.12L38 439.3l6 13.41 5.59 12.49 30.54 65.32a513.5 513.5 0 0 0 86 31.67c111.11 29.88 204 14.4 243.11 7.88 19.88-3.31 41.36-8.91 84.32-20.13 24-6.27 41.07-11.19 61.14-22.71a191.7 191.7 0 0 0 28.49-20l-119.91.69c-171.85 1-283.12-42-310.66-51.2-6.68-2.22-12.16-4.13-15.77-5.41 0-2.88-.05-5.76-.08-8.65-2.33.47-4.75 1-7.26 1.65-3.51.89-6.8 1.87-9.87 2.89l-9-3.19-18-7.26-6.74-3.05-20.16-10.23-7.09-4-14.75-9.17-7.5-5.07-16.83-13.36-6-9.1q2.68 6.09 5.37 12.16"/><text fill="#bf1e2d" font-family="Poppins-Black, Poppins" font-size="157.17" font-weight="800" transform="translate(259.69 225.34)">N<tspan x="0" y="122.59">G</tspan></text><text fill="#0d5e4f" stroke="#fff" stroke-miterlimit="10" font-family="Poppins-Black, Poppins" font-size="157.17" font-weight="800" transform="translate(259.69 225.34)">N<tspan x="0" y="122.59">G</tspan></text><text fill="none" stroke="#fff" stroke-miterlimit="10" stroke-width=".75" font-family="Poppins-Black, Poppins" font-size="157.17" font-weight="800" transform="translate(259.69 225.34)">N<tspan x="0" y="122.59">G</tspan></text><text fill="#0d5e4f" stroke="#fff" stroke-miterlimit="10" font-family="Poppins-Black, Poppins" font-size="157.17" font-weight="800"><tspan x="267.65" y="473.13">R</tspan></text><path fill="#fff" d="M136.24 137.56h1.36V451.5h-1.36z"/><path fill="url(#i)" d="M31.86 423.43a463 463 0 0 0 41.72 23.33c51.07 25.17 94.89 35 135.49 43.83 37.45 8.15 65.46 11.72 98.68 15.94 30.61 3.9 62.95 7.94 106.37 9.69 72.64 2.93 120.5-2.79 131-4.1 15.92-2 29-4.18 38.06-5.82a63 63 0 0 1-10 7.95 64 64 0 0 1-6.33 3.59c-45.86 18-146.58 52.44-267.54 49.57-89.13-2.11-161.79-23.31-174.17-27.64l-46.56-16.31-6.09-14a727 727 0 0 0 65.46 21.39 735 735 0 0 0 150.26 24.89c47.07 2.84 138.78 7.52 245.14-27.69 14.85-4.91 26.92-9.59 35.08-12.9a741.8 741.8 0 0 1-288.24 36.53A734.6 734.6 0 0 1 69 504.42c-2.1-4.82-7.75-17.85-8-18.87.27-.63 52.41 19.26 57.34 21.12 45.67 17.28 117.73 29.79 175.06 34.28 152.18 11.91 277.12-26.74 276.84-28.23S455.38 548 302.81 537c-104.2-7.5-188.45-34.53-245.46-57.51-2.54-5.78-8.56-19.57-8.9-20.69.27-.66 55.75 19.86 74.91 26.57 78.91 27.66 152 35 186.45 38.3a933 933 0 0 0 121.11 3.17 962.5 962.5 0 0 0 139.13-15.34c-109.76 15.73-200.67 11.9-263.25 5.23-49.09-5.23-127.51-14.14-221.48-50.94-18-7-32.61-13.56-42.71-18.25Z"/><path fill="#0a5e50" d="M583.18 507.24q-42.64 4.29-85.54 5T412 509.81q-42.75-3.18-85.11-10c-28.23-4.48-56.27-10-84.26-15.74-5.84-1.22-11.83-2.59-17.71-4s-11.8-2.85-17.68-4.34q-17.64-4.49-35.13-9.53c-11.66-3.37-23.28-6.87-34.83-10.61-2.89-.9-5.76-1.89-8.64-2.83s-5.78-1.86-8.62-3c-5.69-2.14-11.29-4.48-16.85-6.93Q86.46 435.47 70.35 427q-8.05-4.26-16-8.73c-5.26-3-10.58-6-15.65-9.3a86.6 86.6 0 0 1-14.15-11.46 83.4 83.4 0 0 1-11.29-14.25A93.5 93.5 0 0 1 .55 349.34a93.4 93.4 0 0 0 12.92 33.75 84.3 84.3 0 0 0 11.34 14.14A86.3 86.3 0 0 0 39 408.54c5.07 3.3 10.4 6.22 15.66 9.23s10.61 5.86 16 8.68q16.1 8.46 32.74 15.82c5.55 2.44 11.15 4.75 16.82 6.88 2.83 1.07 5.73 2 8.6 2.92s5.76 1.91 8.65 2.81c11.55 3.71 23.17 7.18 34.82 10.53s23.37 6.48 35.13 9.45c5.88 1.47 11.77 2.92 17.67 4.3s11.77 2.7 17.81 4h-.06c28 5.61 56 11.29 84.21 15.8s56.55 8 85 10.21 57.05 3 85.61 2.61 57.08-1.85 85.52-4.54"/><path fill="#fefbda" d="M754.08 271.79q-23.76-1.41-48.55-3.73v9.79q24.75 2 48.55 3Zm0 67.1c-25.79 1.69-41.74 1.85-41.74 1.85h-6.81v8.88h48.55Zm108.29 10.75v-22.99l-56.56 7.69 11.81 15.3zM750.16 188.2h-44.63v65.44c35.47 4.75 69.74 7.94 102.63 9.86Zm3.92 128.34q-23.72.7-48.55.32v9c16.54.09 32.73-.25 48.55-.92Zm0-23.07q-23.69-.41-48.55-1.79v11q24.81 1 48.55.91Zm27.69 9.71c28.37-.69 55.34-2.35 80.6-4.64v-7.91c-27.39 1.88-56.81 3-88 3Zm80.6-114.98h-48.43v75.62q24.76 1.37 48.43 1.81Zm0 85.97c-32.35.47-67.48-.08-104.67-2.17l7.19 9.33c34.48 1.26 67.17 1.17 97.48.21Zm0 33.77a1107 1107 0 0 1-71.62 6.89l5.78 7.49c23-1.91 45-4.48 65.84-7.49Zm24.22 41.71h51.9v-38.81c-17.36 4.48-34.82 8.29-51.9 11.52Zm51.9-54.16c-16.14 3.2-33.49 6.28-51.9 9.07v6.49c18.4-3.08 35.76-6.49 51.9-10Zm0-24.33c-16.15 1-33.5 1.91-51.9 2.46v6.92a1434 1434 0 0 0 51.9-3.52Zm-45.43-64.75a24.5 24.5 0 0 0 8.29 5.42 29.7 29.7 0 0 0 21.22 0 24 24 0 0 0 13.72-13.73 29.56 29.56 0 0 0 0-21.22 24.13 24.13 0 0 0-13.72-13.72 29.84 29.84 0 0 0-21.22 0 24.28 24.28 0 0 0-13.72 13.72 29.7 29.7 0 0 0 0 21.22 24.4 24.4 0 0 0 5.43 8.31m45.43 76.64c-16.15 2.11-33.49 4.05-51.9 5.68v7.38c18.38-2 35.73-4.39 51.9-6.9Zm0-59.57h-51.9v42.41q26.74.06 51.9-.85Zm134.15 34.08c-13.72 3.34-51.7 13.16-107.63 21.72v5.5c53.69-9.64 91-20.39 106-25.43Zm31.45 92.09-45.2-77.51 7.66-8.11c-.6.26-1.2.55-1.8.83 0 0-39.19 18.29-80.4 32.35q-9.57 3.29-19.34 6.21v46.23h51.9v-33.1l6.23-6.69 19.37 39.79ZM1069.43 261A1080 1080 0 0 1 965 289.89v5c53.2-13.09 89.69-26.59 102.81-32.21Z"/><path fill="#fefbda" d="M1072.48 256.73c-.09-1-40.58 6.94-107.47 12.46v5.26c66.81-7.12 107.47-16.73 107.47-17.72m32.3-33.25h-58.58l-29.29 32.75v-77.72H965v85.34c41.2-2.23 78.62-6.09 111.68-10.58Zm10.38 0h51.91v126.17h-51.91zm6.46-17.07a24.8 24.8 0 0 0 8.3 5.42 29.7 29.7 0 0 0 21.22 0 24.08 24.08 0 0 0 13.73-13.73 29.7 29.7 0 0 0 0-21.22 24.18 24.18 0 0 0-13.73-13.72 29.84 29.84 0 0 0-21.22 0 24.2 24.2 0 0 0-13.72 13.72 29.84 29.84 0 0 0 0 21.22 24.6 24.6 0 0 0 5.42 8.31m160.77 137.7-8.76-35.51q-3 1.14-6.58 2.18a24.6 24.6 0 0 1-6.81 1.05 9 9 0 0 1-7.08-2.9 11 11 0 0 1-2.6-7.71v-45h29.53v-32.74h-29.53v-28.37h-51.68v28.37h-17.28v32.75h17.28v52.82a45.85 45.85 0 0 0 3.35 17.82 37.7 37.7 0 0 0 9.57 13.62 42.8 42.8 0 0 0 15 8.58 58 58 0 0 0 19.6 2.88 99 99 0 0 0 10.16-.51 88 88 0 0 0 9.74-1.56 77 77 0 0 0 8.82-2.48 39 39 0 0 0 7.27-3.29M1414 248.1a39.9 39.9 0 0 0-11.42-14.7 51.5 51.5 0 0 0-18.22-9.11 88.7 88.7 0 0 0-24.51-3.12 156 156 0 0 0-30.1 3.17 217.6 217.6 0 0 0-32.17 9.06l11.53 34.6a136 136 0 0 1 21-6.06 90.5 90.5 0 0 1 17.3-2c6.39 0 11.2 1.22 14.47 3.64a12.54 12.54 0 0 1 5.14 10.2h-28.82q-24.21 0-36.56 9.86t-12.34 28.66a44.9 44.9 0 0 0 2.83 16.32 33.9 33.9 0 0 0 8.25 12.52 37.1 37.1 0 0 0 13.25 8 52.7 52.7 0 0 0 17.88 2.82q12.24 0 21-4.15A37.6 37.6 0 0 0 1367 336v13.61h51V268a47.3 47.3 0 0 0-4-19.9m-47 61.19a21.3 21.3 0 0 1-7.79 7.2 20.45 20.45 0 0 1-9.75 2.48c-3.68 0-6.53-1-8.53-3s-3-4.66-3-8.13.94-5.91 2.83-7.6 4.62-2.54 8.25-2.54h18Zm-622.4 74.77a23.16 23.16 0 0 1 16.74-7 25.4 25.4 0 0 1 5.27.56 30 30 0 0 1 5.18 1.57 29.4 29.4 0 0 1 9.21 5.91l8-9.64a38 38 0 0 0-5.85-4.24 41.4 41.4 0 0 0-6.77-3.17 47 47 0 0 0-7.35-2 41 41 0 0 0-7.65-.73 40.1 40.1 0 0 0-15 2.76 37.5 37.5 0 0 0-12 7.57 35.5 35.5 0 0 0-8 11.36 34.7 34.7 0 0 0-2.89 14.13 35.48 35.48 0 0 0 10.67 25.67 36.5 36.5 0 0 0 11.77 7.63 38.2 38.2 0 0 0 14.63 2.78 41.7 41.7 0 0 0 7.46-.68 51 51 0 0 0 7.42-1.88 50.4 50.4 0 0 0 7-2.89 40 40 0 0 0 6-3.76v-32.09h-32.75v11.2h19.9v14.17a33 33 0 0 1-4.47 2.09 29 29 0 0 1-4.93 1.45 23.7 23.7 0 0 1-14-1.35 22.8 22.8 0 0 1-7.5-5.12 24.2 24.2 0 0 1-5-7.71 25.6 25.6 0 0 1 0-18.94 23.7 23.7 0 0 1 4.91-7.65m78.5 40.59a7.4 7.4 0 0 1-2.48.43 4.55 4.55 0 0 1-3.52-1.45 6.64 6.64 0 0 1-1.33-4.6V362h-13.61v58.19a20.5 20.5 0 0 0 1.2 7.28 15 15 0 0 0 3.26 5.21 13.3 13.3 0 0 0 4.8 3.12 16 16 0 0 0 5.85 1 19.6 19.6 0 0 0 5-.67 23 23 0 0 0 5.1-2l-1.51-10.7a18 18 0 0 1-2.76 1.22m56.34-34.87a25.9 25.9 0 0 0-9-5.51 35.2 35.2 0 0 0-23.16 0 26.2 26.2 0 0 0-9 5.51 25 25 0 0 0-5.8 8.59 31 31 0 0 0 0 22.19 24.75 24.75 0 0 0 5.8 8.6 26.8 26.8 0 0 0 9 5.58 34.36 34.36 0 0 0 23.16 0 26.55 26.55 0 0 0 9-5.58 24.8 24.8 0 0 0 5.77-8.6 31 31 0 0 0 0-22.19 25.05 25.05 0 0 0-5.77-8.59m-7 26.49a14.7 14.7 0 0 1-3 5.18 13.7 13.7 0 0 1-4.61 3.34 15.28 15.28 0 0 1-11.87 0 13.65 13.65 0 0 1-4.64-3.34 15 15 0 0 1-3-5.18 19.7 19.7 0 0 1-1.09-6.65 19.4 19.4 0 0 1 1.09-6.6 15.6 15.6 0 0 1 3-5.15 13.6 13.6 0 0 1 4.64-3.36 15.4 15.4 0 0 1 11.87 0 13.65 13.65 0 0 1 4.61 3.36 15.2 15.2 0 0 1 3 5.15 19.4 19.4 0 0 1 1.09 6.6 19.7 19.7 0 0 1-1.11 6.65Zm76.06-26.38a22.8 22.8 0 0 0-8-5.61 26.2 26.2 0 0 0-10.33-2 22.6 22.6 0 0 0-9.38 1.87 19.67 19.67 0 0 0-8.29 7V362h-13.7v74.26h13.7v-8.47c.4.6.82 1.16 1.26 1.7a19.3 19.3 0 0 0 7.12 5.39 23.6 23.6 0 0 0 9.59 1.88 25.7 25.7 0 0 0 10.28-2 23.2 23.2 0 0 0 7.93-5.5 24.15 24.15 0 0 0 5.08-8.53 35.2 35.2 0 0 0-.05-22.19 25.35 25.35 0 0 0-5.21-8.65M940.62 416a15.3 15.3 0 0 1-3 5.18 14.3 14.3 0 0 1-4.64 3.38 13.9 13.9 0 0 1-5.87 1.23 14.5 14.5 0 0 1-5.93-1.2 13.7 13.7 0 0 1-4.61-3.37 15.2 15.2 0 0 1-3-5.16 19.9 19.9 0 0 1-1.09-6.69 19 19 0 0 1 1.09-6.52 15.7 15.7 0 0 1 3-5.17 13.8 13.8 0 0 1 4.61-3.37 14.5 14.5 0 0 1 5.93-1.19 14.3 14.3 0 0 1 5.87 1.19 14.1 14.1 0 0 1 4.64 3.37 15.8 15.8 0 0 1 3 5.17 19 19 0 0 1 1.07 6.52 19.6 19.6 0 0 1-1.07 6.63m68.64-22.77a15.4 15.4 0 0 0-4.33-5.94 19.8 19.8 0 0 0-7-3.73 31.4 31.4 0 0 0-9.44-1.31 49 49 0 0 0-6.7.43A37 37 0 0 0 976 384a45 45 0 0 0-5.54 2.05 61 61 0 0 0-5.6 2.85l4.75 8.91a38 38 0 0 1 4.11-2.2 33 33 0 0 1 4.05-1.6 27 27 0 0 1 3.95-1 25 25 0 0 1 3.76-.32c3.93 0 6.89.88 8.9 2.66a9.35 9.35 0 0 1 3 7.39v1.41h-15.46a30 30 0 0 0-8.68 1.13 17.9 17.9 0 0 0-6.35 3.23 13.7 13.7 0 0 0-3.93 5 15.8 15.8 0 0 0-1.35 6.65 16.9 16.9 0 0 0 1.27 6.63 15 15 0 0 0 3.69 5.25 17.1 17.1 0 0 0 5.87 3.51 22.7 22.7 0 0 0 7.78 1.26 30 30 0 0 0 6.57-.67 20 20 0 0 0 5.5-2 16.4 16.4 0 0 0 4.33-3.34c.27-.3.52-.59.75-.9v6.36h13.45l-.05-35a21.2 21.2 0 0 0-1.51-8.03M996.08 421a11.3 11.3 0 0 1-3 3.14 14.3 14.3 0 0 1-4.23 2 17.5 17.5 0 0 1-5.18.75 13 13 0 0 1-3.9-.52 8.6 8.6 0 0 1-2.91-1.51 6.25 6.25 0 0 1-1.82-2.35 7.2 7.2 0 0 1-.63-3.06 5.73 5.73 0 0 1 2.38-5.14c1.59-1.06 4-1.57 7.38-1.57h13.12v4.53a8.44 8.44 0 0 1-1.21 3.73m49.05 3.65a7.4 7.4 0 0 1-2.47.43 4.6 4.6 0 0 1-3.54-1.45 6.7 6.7 0 0 1-1.32-4.6V362h-13.6v58.19a20.5 20.5 0 0 0 1.19 7.28 15 15 0 0 0 3.26 5.21 13.3 13.3 0 0 0 4.79 3.12 16.1 16.1 0 0 0 5.86 1 19.4 19.4 0 0 0 5-.67 23 23 0 0 0 5.11-2l-1.49-10.7a19 19 0 0 1-2.79 1.22m89.64-15.65a21.3 21.3 0 0 0 5.57-7.95 28.4 28.4 0 0 0 1.93-10.73 25.65 25.65 0 0 0-1.93-10.19 20.4 20.4 0 0 0-5.57-7.56 25.2 25.2 0 0 0-9-4.69 41.1 41.1 0 0 0-12.11-1.63h-29.51v70.05h14.1v-20.72h15.41c.75 0 1.48 0 2.2-.06l11.92 20.73h16l-15.38-23.34a23.6 23.6 0 0 0 6.37-3.91m-36.49-31.14h15.41a24 24 0 0 1 6.46.79 13.2 13.2 0 0 1 4.78 2.38 10.35 10.35 0 0 1 3 4 14.6 14.6 0 0 1 1 5.68 15.6 15.6 0 0 1-1 5.8 10.4 10.4 0 0 1-3 4.15 13 13 0 0 1-4.8 2.51 22.8 22.8 0 0 1-6.46.85h-15.41Zm101.12 13.01a20.7 20.7 0 0 0-8.31-6.34 32.8 32.8 0 0 0-23.23-.19 25.2 25.2 0 0 0-8.66 5.55 24.8 24.8 0 0 0-5.63 8.6 31.92 31.92 0 0 0 0 22.19 24.1 24.1 0 0 0 5.58 8.55 24.9 24.9 0 0 0 8.73 5.53 31.3 31.3 0 0 0 11.43 2 33 33 0 0 0 12.9-2.41 27.3 27.3 0 0 0 9.72-6.81l-7.27-7.21a19.15 19.15 0 0 1-6.47 4.49 19.7 19.7 0 0 1-7.73 1.53 15.9 15.9 0 0 1-6.33-1.23 14.5 14.5 0 0 1-5-3.48 15.5 15.5 0 0 1-3.2-5.5 20 20 0 0 1-.58-2.1h39.33a45 45 0 0 0-.77-13.18 24.8 24.8 0 0 0-4.51-9.99m-34.33 14.5a19.5 19.5 0 0 1 .76-3.23 15.3 15.3 0 0 1 2.88-5.22 12.6 12.6 0 0 1 4.49-3.38 14.3 14.3 0 0 1 5.89-1.17 14.8 14.8 0 0 1 5.25.89 11.45 11.45 0 0 1 6.78 6.66 15.6 15.6 0 0 1 1.07 5.45Zm92.49-12.14a15.5 15.5 0 0 0-4.33-5.94 19.8 19.8 0 0 0-7-3.73 31.4 31.4 0 0 0-9.44-1.31 49 49 0 0 0-6.71.43 37 37 0 0 0-5.87 1.28 46 46 0 0 0-5.53 2.05 61 61 0 0 0-5.6 2.85l4.75 8.91a37 37 0 0 1 4.11-2.2 32 32 0 0 1 4-1.6 27 27 0 0 1 4-1 25 25 0 0 1 3.75-.32c3.94 0 6.9.88 8.9 2.66a9.32 9.32 0 0 1 3 7.39v1.41h-15.41a30 30 0 0 0-8.68 1.13 17.9 17.9 0 0 0-6.35 3.23 13.7 13.7 0 0 0-3.93 5 15.8 15.8 0 0 0-1.35 6.65 16.9 16.9 0 0 0 1.27 6.63 15.1 15.1 0 0 0 3.67 5.25 17.4 17.4 0 0 0 5.89 3.51 22.7 22.7 0 0 0 7.77 1.26 30.2 30.2 0 0 0 6.58-.67 20.1 20.1 0 0 0 5.5-2 16.4 16.4 0 0 0 4.33-3.34 9 9 0 0 0 .74-.88v6.34h13.46l-.05-35a21.2 21.2 0 0 0-1.47-7.99M1244.38 421a11.7 11.7 0 0 1-3 3.14 14.3 14.3 0 0 1-4.23 2 17.5 17.5 0 0 1-5.18.75 12.9 12.9 0 0 1-3.9-.52 8.6 8.6 0 0 1-2.91-1.51 6.25 6.25 0 0 1-1.82-2.35 7.2 7.2 0 0 1-.63-3.06c0-2.38.79-4.08 2.38-5.14s4-1.57 7.38-1.57h13.12v4.53a8.3 8.3 0 0 1-1.21 3.73m49.05 3.65a7.4 7.4 0 0 1-2.47.43 4.6 4.6 0 0 1-3.54-1.45 6.7 6.7 0 0 1-1.32-4.6V362h-13.6v58.19a20.3 20.3 0 0 0 1.19 7.28 15 15 0 0 0 3.25 5.21 13.5 13.5 0 0 0 4.8 3.12 16.1 16.1 0 0 0 5.86 1 19.5 19.5 0 0 0 5-.67 23 23 0 0 0 5.11-2l-1.5-10.7a18.6 18.6 0 0 1-2.78 1.22m38.84.24a12.3 12.3 0 0 1-3.45.54 7.1 7.1 0 0 1-2.3-.35 4.3 4.3 0 0 1-1.72-1.15 4.9 4.9 0 0 1-1.08-2.09 12.6 12.6 0 0 1-.34-3.26v-26.36h15.1v-9.41h-15.1v-12.56h-13.62v12.56h-7.5v9.41h7.5v28.66A18.9 18.9 0 0 0 1311 428a13.22 13.22 0 0 0 8.54 7.9 20.6 20.6 0 0 0 6.28.92 23.4 23.4 0 0 0 3.55-.25 25.4 25.4 0 0 0 3.48-.74 28 28 0 0 0 3.37-1.22 26 26 0 0 0 3.2-1.68l-3.09-9.71a26.5 26.5 0 0 1-4.06 1.67m36.38-3.05-14.86-39h-14.15l22.16 52.53-1.6 3.61a9.7 9.7 0 0 1-3.16 4.12 7.6 7.6 0 0 1-4.44 1.32 9.4 9.4 0 0 1-3.48-.64 15.2 15.2 0 0 1-3.48-2.06l-5.81 9.76a22.8 22.8 0 0 0 6.38 3.63 21.7 21.7 0 0 0 7.22 1.17 19.23 19.23 0 0 0 11.29-3.3 21.25 21.25 0 0 0 7.38-9.95l23.9-60.22h-13.7ZM757.7 272c-1.2-.08-2.42-.14-3.62-.21"/></svg>